<?xml version="1.0" encoding="UTF-8"?>
<svg viewBox="0 0 1052.3622 744.09448" xmlns="http://www.w3.org/2000/svg" xmlns:xlink="http://www.w3.org/1999/xlink">
 <defs>
  <linearGradient id="a">
   <stop stop-color="#00002d" stop-opacity=".63265" offset="0"/>
   <stop stop-color="#00002d" stop-opacity=".18367" offset="1"/>
   <stop stop-color="#00002d" stop-opacity="0" offset="1"/>
  </linearGradient>
  <linearGradient id="b">
   <stop stop-color="#2c0000" offset="0"/>
   <stop stop-color="#89777f" offset="1"/>
   <stop stop-color="#e7eeff" stop-opacity="0" offset="1"/>
  </linearGradient>
  <linearGradient id="f" x1="642.22" x2="626.54" y1="344.91" y2="457.05" gradientTransform="scale(1.1206 .89241)" gradientUnits="userSpaceOnUse" xlink:href="#a"/>
  <linearGradient id="e" x1="823.26" x2="822.3" y1="232.18" y2="256.84" gradientTransform="matrix(.69959 0 0 1.4294 -4 -4.5103e-17)" gradientUnits="userSpaceOnUse" xlink:href="#a" spreadMethod="reflect"/>
  <linearGradient id="d" x1="390.73" x2="370.23" y1="335.91" y2="350.88" gradientUnits="userSpaceOnUse" xlink:href="#b"/>
  <linearGradient id="c" x1="582.93" x2="555.12" y1="225.81" y2="250" gradientTransform="scale(.93809 1.066)" gradientUnits="userSpaceOnUse" xlink:href="#b"/>
 </defs>
 <g transform="matrix(1.1509 0 0 1.1509 -79.396 -32.389)">
  <path d="m487.75 235.99 35.746-2.8983s7.7288-0.9661 13.525 2.8983 10.627 6.7627 11.593 11.593 3.8644 13.525 1.9322 18.356-1.9322 10.627-6.7627 12.559-8.6949 3.8644-13.525 4.8305-88.881-3.8644-88.881-3.8644 3.8644-4.8305 6.7627-6.7627 2.8983-2.8983 2.8983-2.8983-0.9661 3.8644-1.9322-3.8644 0-9.661 4.8305-15.458 5.7966-9.661 15.458-11.593 18.356-2.8983 18.356-2.8983z" fill="#e7eeff" fill-rule="evenodd" stroke="#000" stroke-width="1.9"/>
  <path d="m268 174.09 114-68 30-16 22-4-146 100-20-12z" fill="#e7eeff" fill-rule="evenodd" stroke="#000" stroke-width="2"/>
  <path d="m274.69 173.08 101.66-60.562-99.494 73.539-2.1629-12.977z" fill-opacity=".09189" fill-rule="evenodd"/>
  <path d="m636 290.09 272-188s14-8 24-6l10 2-238 198-68-6z" fill="#e7eeff" fill-rule="evenodd" stroke="#000" stroke-width="2"/>
  <path d="m692.13 294.21 227.11-183.85-250.9 190.34 23.792-6.4888z" fill-opacity=".09189" fill-rule="evenodd"/>
  <path d="m386 276.09s40-2 84 0 222 14 236 16c10.722-0.04874 26.312 5.1805 41.951 10.771 14 6 38.049 23.229 40.049 23.229s30.312 8.361 37.59 12.361c15.063 7.278 51.59 32.458 63.639 57.639 7.5415 13.298 8.7708 22 4.7708 32s-20 22-30 24-58 2-80 0-186-34-186-34l-68 12-386.34 178.2c-11.339-0.67797-19.39-3.7966-27.034-6.2034-6-10 1.3729-10 1.3729-10l330-178s-21.102-12.966-27.102-22.966-14.898-17.034-14.898-17.034l-12-8-45.27-25.177-28.73-46.823 1.0354-9.1063-83.035-110.89s22-6 30-4 118 106 118 106z" fill="#e7eeff" fill-rule="evenodd" stroke="#000" stroke-width="2"/>
  <path transform="matrix(1.2277 .097074 -.11974 .99528 -41.531 -36.824)" d="m430.42 338.55a34.607 16.222 0 1 1 -69.213 0 34.607 16.222 0 1 1 69.213 0z" fill-opacity=".04324"/>
  <path d="m402.3 356.93 281.18 62.725s12.977 2.1629 36.77 6.4888" fill="none" stroke="#000058" stroke-linecap="round" stroke-opacity=".16757" stroke-width="5.8"/>
  <path d="m393 352.26 15.458-6.3103s13.525-4.2069 5.7966-12.621-25.119 2.1034-25.119 2.1034l3.8644 16.827z" fill-opacity=".11892" fill-rule="evenodd"/>
  <path d="m244 186.09-134 74s6 2 14 2c8-2 156-70 152-72s-10-4-10-4h-22z" fill="#e7eeff" fill-rule="evenodd" stroke="#000" stroke-width="1.3"/>
  <path d="m333.31 316.11 40.576-0.9661s5.7966 0 11.593 2.8983 14.492 12.559 15.458 16.424 3.8644 18.356-1.9322 25.119-11.593 12.559-17.39 14.492-23.186 1.9322-23.186 1.9322-16.424-4.8305-25.119-9.661-17.39-15.458-18.356-21.254-0.9661-13.525 2.8983-17.39 15.458-11.593 15.458-11.593z" fill="#e7eeff" fill-rule="evenodd" stroke="#000" stroke-width="1.8"/>
  <path d="m717.81 294.84s1.9322 0.98465 0 6.7812c-4.3907 5.7966-9.6562 7.7188-9.6562 7.7188l40.938 34.594 32.281-19.875s-23.959-14.729-31.688-18.594-31.875-10.625-31.875-10.625zm-17.375 18.375s-9.688 6.7606-21.281 10.625-15.437 1.9375-15.438 1.9375-5.8072 13.519-3.875 31.875 4.8337 29.945 12.562 32.844 7.7187-0.96875 7.7188-0.96875l62.812-40.562-42.5-35.75z" fill="url(#f)" fill-rule="evenodd" stroke="#000" stroke-width="1.8"/>
  <path d="m469.25 325.72s-1.5454 2.3674-2.6875 6.5938-1.125 8.4375-1.125 8.4375-0.0114 2.8378 0.75 6.125 2.2812 7.5 2.2812 7.5 5.713 1.4079 6.0938 0.46875-1e-5 -7.0515 0-13.156-1e-5 -15.5 0-15.5l-5.3125-0.46875zm18.344 1.5938s-1.612 2.4103-2.8125 6.7812-1.2188 8.75-1.2188 8.75 0.01214 2.9128 0.8125 6.3125 2.4062 7.7813 2.4062 7.7812 6.0061 1.4401 6.4062 0.46875 1e-5 -7.2801 0-13.594 1e-5 -16.031 0-16.031l-5.5938-0.46875zm19.875 3.625s-1.6784 2.4103-2.9375 6.7812-1.25 8.75-1.25 8.75 0.00434 2.9128 0.84375 6.3125 2.5 7.7813 2.5 7.7812 6.299 1.4401 6.7188 0.46875 1e-5 -7.2801 0-13.594 1e-5 -16.031 0-16.031l-5.875-0.46875zm133.41 2.9375c-1.4492-0.12076-3.3803 0.11334-5.3125 1.5625-3.8644 2.8983-3.8776 10.615-4.8438 18.344s-0.87236 17.266 0.09375 23.062c-0.58706 2.6903 3.7813 4.9688 3.7812 4.9688s15.639 4.2896 19.781 2.2188c-0.51772-3.624-3.3464-12.331-4.3125-19.094s-1.9375-18.875-1.9375-18.875 2.4295-5.857-0.46875-10.688l-4.375-0.90625s-0.9571-0.47299-2.4062-0.59375zm-114.03 0.15625s-1.776 2.4103-3.0938 6.7812-1.3125 8.75-1.3125 8.75-0.00353 2.9128 0.875 6.3125 2.6562 7.7813 2.6562 7.7812 6.592 1.4401 7.0312 0.46875 2e-5 -7.2801 0-13.594 2e-5 -16.031 0-16.031l-6.1562-0.46875zm20.406 2.5938s-1.8422 2.4631-3.2188 6.9062-1.375 8.9062-1.375 8.9062-0.01143 2.9505 0.90625 6.4062 2.75 7.9062 2.75 7.9062 6.8849 1.4561 7.3438 0.46875 1e-5 -7.3946 0-13.812 1e-5 -16.281 0-16.281l-6.4062-0.5zm21.875 2.625s-2.0718 2.5905-3.625 7.25-1.5625 9.3125-1.5625 9.3125-0.00418 3.0947 1.0312 6.7188 3.125 8.2813 3.125 8.2812 7.7635 1.5667 8.2812 0.53125-3e-5 -7.7696 0-14.5-3e-5 -17.094 0-17.094l-7.25-0.5zm24.844 3.0938s-2.0718 2.5905-3.625 7.25-1.5625 9.3125-1.5625 9.3125-0.00416 3.0947 1.0312 6.7188 3.125 8.3125 3.125 8.3125 7.7635 1.5354 8.2812 0.5 0-7.7696 0-14.5v-17.062l-7.25-0.53125z" fill="url(#e)" fill-rule="evenodd" stroke="#000" stroke-width="1.8"/>
  <path d="m399.16 345.19a17.344 18.379 0 1 1 -34.687 0 17.344 18.379 0 1 1 34.687 0z" fill="url(#d)" stroke="#000"/>
  <path transform="matrix(.93671 0 0 1 29.784 1.4823)" d="m550.86 255.88a16.308 18.638 0 1 1 -32.616 0 16.308 18.638 0 1 1 32.616 0z" fill="url(#c)" stroke="#000" stroke-width="1.0332"/>
  <path d="m874 428.09s-4 6-38 6-62-6-90-12-66-26-66-26-28-4-36 0 0 10 20 12 84 22 112 26 54 6 70 4 28-10 28-10z" fill-opacity=".16216" fill-rule="evenodd"/>
  <path d="m324 284.09 50-6s0-2-1.6667 14-6.6667-4-15-6-33.333-2-33.333-2z" fill-opacity=".18919" fill-rule="evenodd"/>
  <path d="m328.49 282.09 53.514-2-90-80s55.946 52 58.378 64-21.892 18-21.892 18z" fill-opacity=".08649" fill-rule="evenodd"/>
  <path d="m382 282.09s58-2 150 4 137.82 7.2353 137.82 7.2353c28.294 1.5294 50 1.5294 22.294 14.588-20.059 13.824-27.529 10.765-35.529 16.765s-18.588 9.4118-28.588 9.4118-46.977-2.8596-72.977-6.8596-125.02-16.163-141.02-16.163-34.977-7.1404-42.977-15.14 10.977-13.837 10.977-13.837z" fill="#595b5e" fill-opacity=".04324" fill-rule="evenodd"/>
  <path d="m421.77 372.07 157.89 36.77s-101.66-19.466-116.8-12.977-17.303 8.6517-28.118-2.1629-12.977-21.629-12.977-21.629z" fill-opacity=".09189" fill-rule="evenodd"/>
  <path d="m140.59 601.34 406.63-188.17-47.584 8.6517-359.04 179.52z" fill-opacity=".09189" fill-rule="evenodd"/>
  <path d="m238.46 186.06h42.714s-21.357 0-90.767 32.038 48.053-32.038 48.053-32.038z" fill-opacity=".06486" fill-rule="evenodd"/>
  <path d="m448.05 272.42s45.421 2.1629 49.747-6.4888 0-10.815 6.4887-19.466 12.977-12.977 12.977-12.977-8.6517 10.815-8.6517 19.466 2.1629 21.629 2.1629 21.629l-62.725-2.1629z" fill-opacity=".14595" fill-rule="evenodd"/>
  <path d="m365.53 320.16s-8.6517 2.1629-8.6517 17.303-2.1629 19.466 2.1629 23.792 17.303 6.4888 17.303 6.4888-4.3258 6.4887-19.466 2.1629-30.281-10.815-30.281-10.815 23.792 10.815 23.792 4.3258-2.1629-15.14 0-25.955 15.14-17.303 15.14-17.303z" fill-opacity=".14595" fill-rule="evenodd"/>
 </g>
</svg>
