<?xml version="1.0" encoding="UTF-8"?>
<svg viewBox="0 0 111.16065 118.01401" xmlns="http://www.w3.org/2000/svg" xmlns:xlink="http://www.w3.org/1999/xlink">
 <defs>
  <filter id="u">
   <feGaussianBlur stdDeviation=".64659"/>
  </filter>
  <filter id="t">
   <feGaussianBlur stdDeviation="1.02643"/>
  </filter>
  <filter id="h"/>
  <filter id="i" x="-.18693" y="-.03817" width="1.3739" height="1.0763">
   <feGaussianBlur stdDeviation=".32945"/>
  </filter>
  <linearGradient id="b">
   <stop stop-color="#595d5f" offset="0"/>
   <stop stop-color="#cecece" offset="1"/>
  </linearGradient>
  <linearGradient id="a">
   <stop stop-color="#fff" offset="0"/>
   <stop stop-color="#fff" stop-opacity="0" offset="1"/>
  </linearGradient>
  <linearGradient id="g">
   <stop stop-color="#555753" offset="0"/>
   <stop offset="1"/>
  </linearGradient>
  <linearGradient id="r" x1="59.043" x2="78.355" y1="-261.62" y2="-280.64" gradientTransform="matrix(1,0,0,-1,-.07322,.05178)" gradientUnits="userSpaceOnUse">
   <stop stop-color="#cdcdcd" offset="0"/>
   <stop stop-color="#848484" stop-opacity=".63137" offset=".60304"/>
   <stop stop-color="#fff" offset="1"/>
  </linearGradient>
  <linearGradient id="q" x1="73.172" x2="77.782" y1="275.22" y2="282.31" gradientUnits="userSpaceOnUse">
   <stop stop-color="#505050" offset="0"/>
   <stop stop-color="#505050" stop-opacity="0" offset="1"/>
  </linearGradient>
  <linearGradient id="p" x1="13.25" x2="56.061" y1="212.86" y2="233.18" gradientUnits="userSpaceOnUse">
   <stop stop-color="#729fcf" offset="0"/>
   <stop stop-color="#3465a4" offset="1"/>
  </linearGradient>
  <linearGradient id="l" x1="20.738" x2="43.275" y1="-433.29" y2="-381.69" gradientUnits="userSpaceOnUse">
   <stop stop-color="#e8e8e8" offset="0"/>
   <stop stop-color="#ccc" offset="1"/>
  </linearGradient>
  <linearGradient id="e" x1="17.857" x2="18.214" y1="188.43" y2="207.36" gradientTransform="matrix(.78243,0,0,1,-.44536,-8.217)" gradientUnits="userSpaceOnUse">
   <stop stop-color="#767272" offset="0"/>
   <stop stop-color="#e6e2e2" offset=".39955"/>
   <stop stop-color="#585858" offset="1"/>
  </linearGradient>
  <linearGradient id="s" x1="42.616" x2="77.971" y1="300.06" y2="296.93" gradientUnits="userSpaceOnUse" xlink:href="#a" spreadMethod="reflect"/>
  <linearGradient id="o" x1="43.31" x2="43.275" y1="-432.39" y2="-438.93" gradientUnits="userSpaceOnUse" xlink:href="#b"/>
  <linearGradient id="n" x1="43.31" x2="43.275" y1="-430.69" y2="-437.28" gradientUnits="userSpaceOnUse" xlink:href="#b"/>
  <linearGradient id="m" x1="43.31" x2="43.275" y1="-428.69" y2="-435.28" gradientUnits="userSpaceOnUse" xlink:href="#b"/>
  <linearGradient id="k" x1="37.55" x2="35.212" y1="-347.7" y2="-419.29" gradientUnits="userSpaceOnUse" xlink:href="#a"/>
  <linearGradient id="f" x1="24.395" x2="26.87" y1="211.97" y2="213.73" gradientUnits="userSpaceOnUse" xlink:href="#g"/>
  <linearGradient id="d" x1="13.75" x2="13.538" y1="188.61" y2="174.68" gradientUnits="userSpaceOnUse" xlink:href="#a" spreadMethod="reflect"/>
  <linearGradient id="c" x1="31.021" x2="33.231" y1="184.59" y2="186.17" gradientUnits="userSpaceOnUse" xlink:href="#g"/>
  <radialGradient id="j" cx="67" cy="263.86" r="16.75" gradientTransform="matrix(.92409 -.46667 .30798 .63165 -76.678 134.83)" gradientUnits="userSpaceOnUse" xlink:href="#a"/>
 </defs>
 <g transform="translate(7.8401 -192.1)">
  <path d="m2.9137 207.01h91.244c3.7114 0 6.6994 2.9879 6.6994 6.6994v87.244c0 3.7115-2.9879 6.6994-6.6994 6.6994h-91.244c-3.7114 0-6.6994-2.9879-6.6994-6.6994v-87.244c0-3.7114 2.9879-6.6994 6.6994-6.6994z" fill="#2e3436" filter="url(#t)" opacity=".69388"/>
  <path d="m-0.08634 203.51h91.244c3.7114 0 6.6994 2.9879 6.6994 6.6994v87.244c0 3.7115-2.9879 6.6994-6.6994 6.6994h-91.244c-3.7114 0-6.6994-2.9879-6.6994-6.6994v-87.244c0-3.7114 2.9879-6.6994 6.6994-6.6994z" fill="#2e3436"/>
  <path transform="matrix(1,0,0,-1,2,-146)" d="m5.5831-438.93h75.384a2.558 2.558 0 0 1 2.558 2.558v39.236a2.558 2.558 0 0 1 -2.558 2.558h-75.384a2.558 2.558 0 0 1 -2.558 -2.558v-39.236a2.558 2.558 0 0 1 2.558 -2.558" fill="url(#o)"/>
  <path transform="matrix(1,0,0,-1,2,-146)" d="m5.6035-437.28h75.343a2.5784 2.5784 0 0 1 2.5784 2.5784v39.549a2.5784 2.5784 0 0 1 -2.5784 2.5784h-75.343a2.5784 2.5784 0 0 1 -2.5784 -2.5784v-39.549a2.5784 2.5784 0 0 1 2.5784 -2.5784" fill="url(#n)"/>
  <path transform="matrix(1,0,0,-1,2,-146)" d="m5.6035-435.28h75.343a2.5784 2.5784 0 0 1 2.5784 2.5784v39.549a2.5784 2.5784 0 0 1 -2.5784 2.5784h-75.343a2.5784 2.5784 0 0 1 -2.5784 -2.5784v-39.549a2.5784 2.5784 0 0 1 2.5784 -2.5784" fill="url(#m)"/>
  <path transform="matrix(1,0,0,-1,2,-146)" d="m7.5815-432.99h71.387a4.5563 4.5563 0 0 1 4.5563 4.5563v69.887a4.5563 4.5563 0 0 1 -4.5563 4.5563h-71.387a4.5563 4.5563 0 0 1 -4.5563 -4.5563v-69.887a4.5563 4.5563 0 0 1 4.5563 -4.5563" fill="url(#l)" stroke="url(#k)" stroke-width=".6"/>
  <path d="m-6.5901 293.21v2.9062c0.89849 2.6382 3.3974 4.5312 6.3438 4.5312h91.25c2.7836 0 5.1453-1.6822 6.1562-4.0938-1.1474 2.0268-3.3112 3.375-5.8125 3.375h-91.25c-3.7114 0-6.6875-3.0073-6.6875-6.7188zm104.62 0c0 0.73051-0.13025 1.4354-0.34375 2.0938v2.625c0 0.8793-0.16446 1.7304-0.46875 2.5 0.51288-0.95201 0.8125-2.0589 0.8125-3.2188v-4z" fill="url(#s)" opacity=".50612"/>
  <path d="m85.156 264.43c-3.0502 6.4571-16.152 18.404-26.688 22.188 1.7121 0.50962 6.0298-0.59375 7.9062-0.59375 10.489 0 19-8.5183 19-19.062 0-0.85401-0.11065-1.7069-0.21875-2.5312z" fill="url(#q)" filter="url(#u)"/>
  <g transform="matrix(.52304 0 0 .52304 90.639 247.02)" font-family="Rekha" font-size="15.295" font-weight="500" letter-spacing="0" word-spacing="0">
   <path d="m-105.23745-10.76v-.22405c.50785,0 .8514-.05477 1.03064-.16431 .2589-.15933.38836-.49291.38836-1.00077v-6.76639c0-.21907-.0199-.37341-.0598-.46304-.0697-.15932-.21907-.23898-.4481-.23899-.10954,9e-006-.19419.01-.25393.02987l-.76178.29874v-.20912l2.68863-1.35925 .1195.02987v8.96211c-1e-005,.34853.0946.58254.2838.70203s.56759.17924 1.1352.17924v.22405h-4.12257"/>
  </g>
  <g transform="matrix(.52304 0 0 .52304 100.42 246.94)" font-family="Rekha" font-size="15.295" font-weight="500" letter-spacing="0" word-spacing="0">
   <path d="m-99.905-12.80635-.82152,2.04635h-5.82537v-.17924l2.65876-2.82307c1.29452-1.38414 1.94178-2.66871 1.94179-3.85371-1e-005-.5178-.13444-.96591-.4033-1.34432-.3784-.52776-.95596-.79165-1.73267-.79165-.59748,9e-006-1.08044.21908-1.44888.65722-.20912.24896-.43815.67715-.68709,1.28457l-.31368-.07468c.20912-1.04557.62735-1.82229 1.2547-2.33015 .52776-.42818 1.16507-.64228 1.91192-.64228 .71696,1e-005 1.34431.24896 1.88204.74684 .54768.48795.82152,1.13521.82153,1.94179-1e-005,.69706-.23402,1.41403-.70204,2.15091-.25891.40828-.6622.90617-1.20988,1.49368l-2.50939,2.62889h3.5699c.31865,1e-006 .55266-.04481.70204-.13443 .19915-.11949.43814-.40329.71697-.8514l.19417.07469"/>
  </g>
  <g transform="matrix(.52304 0 0 .52304 111.78 246.94)" font-family="Rekha" font-size="15.295" font-weight="500" letter-spacing="0" word-spacing="0">
   <path d="m-104.71466-15.68916-.0149-.19418c.77671-.24894 1.35925-.54768 1.74761-.89621 .48794-.43814.7319-.98085.73191-1.62812-1e-005-.41822-.13444-.77173-.4033-1.06052-.29874-.3286-.71199-.49291-1.23975-.49292-.45807,9e-006-.86634.12946-1.22483.38836-.35848.24896-.68709.64727-.98583,1.19495l-.22405-.05975c.26886-.88624.70701-1.53351 1.31444-1.94179 .46802-.31864 1.00575-.47797 1.61318-.47798 .84642,1e-005 1.47377.25892 1.88204.77672 .29874.37841.4481.79166.44811,1.23976-1e-005,.41824-.10954.79166-.32861,1.12026-.20912.31866-.56263.64229-1.06052.9709 .68709.28879 1.17503.65723 1.46381,1.10533s.43317,1.00077.43317,1.65799c0,1.04558-.38836,1.88205-1.16507,2.50939-.77672.61739-1.76753.92608-2.97243.92608-.51782,0-.92609-.07468-1.22483-.22405-.28878-.14937-.43317-.35848-.43317-.62735 0-.1892.0548-.32363.16431-.4033 .11949-.07966.2589-.11949.41823-.1195 .20912,1e-006 .53773.13941.98583.41823s.83149.41823 1.15014.41823c.64726,0 1.15511-.24397 1.52356-.73191 .31865-.42819.47797-.95098.47798-1.56837-1e-005-.29873-.0697-.61241-.20912-.94102-.19916-.47797-.50785-.82152-.92608-1.03064-.25891-.13941-.51284-.22903-.76178-.26886s-.64229-.05974-1.18001-.05975"/>
  </g>
  <g transform="matrix(.52304 0 0 .52304 122.92 246.92)" font-family="Rekha" font-size="15.295" font-weight="500" letter-spacing="0" word-spacing="0">
   <path d="m-99.95-14.21v0.95596h-1.5236v2.4944h-1.1501v-2.4944h-4.1973v-0.95596l4.6902-6.6469h0.65723v6.6469h1.5236m-2.6886 0v-5.0785l-3.5848 5.0785h3.5848"/>
  </g>
  <g transform="matrix(.52304 0 0 .52304 134.03 246.81)" font-family="Rekha" font-size="15.295" font-weight="500" letter-spacing="0" word-spacing="0">
   <path d="m-104.29643-19.46818-.62735,1.26963c.85638.14938 1.47377.29377 1.85217.43317 .68709.24895 1.2298.6174 1.62812,1.10533 .3286.38836.5427.74685.64228,1.07545 .10953.31866.1643.80659.16431,1.46381-1e-005,1.00575-.37343,1.85217-1.12026,2.53926s-1.70779,1.03064-2.88282,1.03064c-.59747,0-1.06052-.07966-1.38912-.23899s-.49292-.3784-.49292-.65722c0-.1892.0498-.33359.14937-.43317s.24894-.14937.4481-.14937c.29874,1e-006 .59748.0946.89621.2838 .66718.42819 1.09039.64228 1.26964.64228 .54768,0 1.0157-.21409 1.40406-.64228 .4481-.48794.67215-1.16009.67216-2.01647-1e-005-1.06549-.50786-1.88702-1.52356-2.46458-.80659-.45806-1.71774-.68709-2.73344-.6871-.0398,7e-006-.0697-.01991-.0896-.05975s-.0199-.08464 0-.13443l1.62811-3.54003h3.1218c.17924,1e-005 .31367-.02986.4033-.08962 .0896-.06969.18421-.16927.2838-.29874l.13443.10456-.5676,1.32938c-.01.03984-.0398.07469-.0896.10456-.0498.01992-.13444.02988-.25393.02987h-2.92762"/>
  </g>
  <g transform="matrix(.52304 0 0 .52304 66.999 257.79)" font-family="Rekha" font-size="15.295" font-weight="500" letter-spacing="0" word-spacing="0">
   <path d="m-100.33816-20.9768 .0299.23899c-1.2547.19917-2.29032.73191-3.10687,1.59824-.71697.76677-1.15511,1.65302-1.31444,2.65876 .29874-.17924.55266-.31865.76178-.41823 .35848-.16928.76178-.25392 1.20989-.25393 .81654,6e-006 1.47874.27385 1.9866.82153s.76177,1.31943.76178,2.31521c-1e-005,.79663-.19917,1.50862-.59748,2.13597-.5676.88625-1.43394,1.32938-2.59901,1.32938-.946,0-1.71276-.36346-2.30027-1.09039-.65723-.81655-.98584-1.97166-.98584-3.46535 0-1.56339.57258-2.92264 1.71774-4.07776 1.18499-1.19494 2.66373-1.79241 4.43625-1.79242m-3.04712,4.51093c-.27883,6e-006-.54271.03984-.79165.1195-.239.06971-.44811.18921-.62735.35848-.0896.08963-.16431.239-.22406.44811-.0498.20912-.0747.52777-.0747.95596 0,1.18499.21409,2.10112.64228,2.74838 .3784.57756.87132.86634 1.47875.86634 .48794,0 .88127-.20414 1.18001-.61241 .29874-.41823.4481-1.03562.44811-1.85217-1e-005-.88625-.13942-1.5833-.41823-2.09116-.33858-.62734-.8763-.94102-1.61318-.94102"/>
  </g>
  <g transform="matrix(.52304 0 0 .52304 78.256 257.79)" font-family="Rekha" font-size="15.295" font-weight="500" letter-spacing="0" word-spacing="0">
   <path d="m-100.29335-20.64819v.23899l-3.16662,9.7687h-.97089l2.9575-8.90236h-3.2413c-.43815,9e-006-.78668.10457-1.04558.31367-.15933.12946-.38836.4282-.6871.89621l-.25392-.11949 .64228-1.5385 .23899-.65722h5.52664"/>
  </g>
  <g transform="matrix(.52304 0 0 .52304 89.399 257.79)" font-family="Rekha" font-size="15.295" font-weight="500" letter-spacing="0" word-spacing="0">
   <path d="m-103.83339-15.42029c-.36844.29874-.62735.56263-.77671.79165-.27883.42819-.41824.94102-.41824,1.5385s.16929,1.10035.50786,1.50862 .80161.61241 1.38912.61241c.48794,0 .88127-.14439 1.18002-.43317 .30869-.29874.46303-.71199.46304-1.23976-1e-005-.60743-.27883-1.15511-.83647-1.64305-.23899-.20911-.74186-.58751-1.50862-1.1352m-2.33015,2.47952c0-.70701.24397-1.30448.73191-1.79242 .17924-.17924.58253-.50785 1.20988-.98583-.60743-.53772-.98583-.88625-1.1352-1.04558-.47798-.5178-.71697-1.1103-.71697-1.77749 0-.707.30372-1.27958.91115-1.71774 .54769-.39831 1.17503-.59746 1.88205-.59747 .81654,1e-005 1.4638.20913 1.94179.62735 .4481.38837.67215.88626.67216,1.49368s-.22904,1.13023-.6871,1.56837c-.24895.239-.6871.52777-1.31444.86634 .93603.66719 1.57334,1.26964 1.91191,1.80736 .26886.42819.40329.92609.4033,1.49369s-.18423,1.07048-.55266,1.50862c-.52778.62735-1.33437.94102-2.41977.94102-.8763,0-1.57833-.24895-2.1061-.74684-.48794-.45806-.73191-1.00575-.73191-1.64305m1.19495-5.98968c0,.4979.24397.9958.73191,1.49369 .24894.25891.62734.54769 1.1352.86634 .41823-.27881.72194-.53274.91115-.76178 .3286-.40827.49291-.90118.49291-1.47875 0-.4481-.13443-.82152-.40329-1.12026-.29874-.33856-.72195-.50784-1.26963-.50785-.51782,1e-005-.91613.15436-1.19495.46304-.26887.29875-.4033.64727-.4033,1.04558"/>
  </g>
  <g transform="matrix(.52304 0 0 .52304 100.68 257.79)" font-family="Rekha" font-size="15.295" font-weight="500" letter-spacing="0" word-spacing="0">
   <path d="m-106.11873-10.43139-.0448-.29874c1.18499-.19916 2.18078-.71199 2.98737-1.5385 .76676-.78667 1.27959-1.72769 1.5385-2.82307l-.0299-.02987c-.31866.26887-.67217.473-1.06052.61241-.3784.13941-.7568.20912-1.1352.20912-.90617,3e-006-1.60322-.33857-2.09116-1.01571-.39832-.54768-.59747-1.19494-.59747-1.94179 0-1.0157.2838-1.8671.8514-2.5542 .57755-.69704 1.33933-1.04557 2.28533-1.04558 .93604,1e-005 1.71276.38837 2.33015,1.16508 .62734.76677.94102,1.77251.94103,3.01724-1e-005,1.68289-.51782,3.11683-1.55344,4.30181-1.1352,1.29453-2.60897,1.94179-4.42131,1.94179m4.52587-5.63119v-.58254c0-1.28456-.15435-2.22558-.46304-2.82307-.33858-.64726-.84643-.97089-1.52356-.9709-.57756,1e-005-1.00077.27883-1.26963.83646-.21908.44811-.32862,1.04061-.32861,1.77749-1e-005,.74685.11949,1.36922.35848,1.86711 .32861.67714.84642,1.01571 1.55343,1.01571 .23899,4e-006 .49789-.05476.77672-.16431s.49789-.22405.65722-.34355c.15932-.12945.23899-.33359.23899-.61241"/>
  </g>
  <g transform="matrix(.52304 0 0 .52304 107.75 257.79)" font-family="Rekha" font-size="15.295" font-weight="500" letter-spacing="0" word-spacing="0">
   <path d="m-105.23745-10.76v-.22405c.50785,0 .8514-.05477 1.03064-.16431 .2589-.15933.38836-.49291.38836-1.00077v-6.76639c0-.21907-.0199-.37341-.0598-.46304-.0697-.15932-.21907-.23898-.4481-.23899-.10954,9e-006-.19419.01-.25393.02987l-.76178.29874v-.20912l2.68863-1.35925 .1195.02987v8.96211c-1e-005,.34853.0946.58254.2838.70203s.56759.17924 1.1352.17924v.22405h-4.12257"/>
   <path d="m-95.797-20.469c-0.63731 9e-6 -1.1203 0.40828-1.4489 1.2248s-0.49292 1.9966-0.49292 3.54c-1e-6 1.175 0.08464 2.121 0.25393 2.838 0.30869 1.2846 0.87131 1.9268 1.6879 1.9268 0.6373 0 1.1203-0.39334 1.4489-1.18 0.3286-0.79663 0.49291-1.9916 0.49292-3.5848-6e-6 -1.1153-0.08465-2.0364-0.25393-2.7633-0.3087-1.3344-0.87132-2.0015-1.6879-2.0015m0-0.38836c1.2149 1e-5 2.121 0.63732 2.7185 1.9119 0.43814 0.93605 0.65721 2.0165 0.65722 3.2413-7e-6 1.2447-0.21908 2.3302-0.65722 3.2562-0.59748 1.2646-1.5036 1.897-2.7185 1.897s-2.121-0.63233-2.7185-1.897c-0.43815-0.92608-0.65722-2.0115-0.65722-3.2562-1e-6 -1.2149 0.21907-2.2903 0.65722-3.2264 0.59747-1.2846 1.5036-1.9268 2.7185-1.9268"/>
  </g>
  <g transform="matrix(.52304 0 0 .52304 118.96 257.79)" font-family="Rekha" font-size="15.295" font-weight="500" letter-spacing="0" word-spacing="0">
   <path d="m-105.23745-10.76v-.22405c.50785,0 .8514-.05477 1.03064-.16431 .2589-.15933.38836-.49291.38836-1.00077v-6.76639c0-.21907-.0199-.37341-.0598-.46304-.0697-.15932-.21907-.23898-.4481-.23899-.10954,9e-006-.19419.01-.25393.02987l-.76178.29874v-.20912l2.68863-1.35925 .1195.02987v8.96211c-1e-005,.34853.0946.58254.2838.70203s.56759.17924 1.1352.17924v.22405h-4.12257"/>
   <path d="m-97.76902-10.76v-.22405c.50785,0 .8514-.05477 1.03064-.16431 .2589-.15933.38836-.49291.38836-1.00077v-6.76639c-3e-006-.21907-.01992-.37341-.05975-.46304-.06971-.15932-.21908-.23898-.4481-.23899-.10954,9e-006-.19418.01-.25393.02987l-.76178.29874v-.20912l2.68863-1.35925 .1195.02987v8.96211c-4e-006,.34853.0946.58254.2838.70203s.56759.17924 1.1352.17924v.22405h-4.12257"/>
  </g>
  <g transform="matrix(.52304 0 0 .52304 130.16 257.79)" font-family="Rekha" font-size="15.295" font-weight="500" letter-spacing="0" word-spacing="0">
   <path d="m-105.23745-10.76v-.22405c.50785,0 .8514-.05477 1.03064-.16431 .2589-.15933.38836-.49291.38836-1.00077v-6.76639c0-.21907-.0199-.37341-.0598-.46304-.0697-.15932-.21907-.23898-.4481-.23899-.10954,9e-006-.19419.01-.25393.02987l-.76178.29874v-.20912l2.68863-1.35925 .1195.02987v8.96211c-1e-005,.34853.0946.58254.2838.70203s.56759.17924 1.1352.17924v.22405h-4.12257"/>
   <path d="m-92.43657-12.80635-.82153,2.04635h-5.82537v-.17924l2.65876-2.82307c1.29452-1.38414 1.94179-2.66871 1.94179-3.85371-5e-006-.5178-.13444-.96591-.4033-1.34432-.3784-.52776-.95596-.79165-1.73268-.79165-.59748,9e-006-1.08043.21908-1.44887.65722-.20912.24896-.43815.67715-.6871,1.28457l-.31367-.07468c.20912-1.04557.62735-1.82229 1.25469-2.33015 .52777-.42818 1.16507-.64228 1.91192-.64228 .71696,1e-005 1.34431.24896 1.88204.74684 .54768.48795.82152,1.13521.82153,1.94179-7e-006,.69706-.23402,1.41403-.70203,2.15091-.25891.40828-.66221.90617-1.20989,1.49368l-2.50939,2.62889h3.56991c.31865,1e-006 .55266-.04481.70203-.13443 .19915-.11949.43814-.40329.71697-.8514l.19418.07469"/>
  </g>
  <g transform="matrix(.52304 0 0 .52304 62.999 268.42)" font-family="Rekha" font-size="15.295" font-weight="500" letter-spacing="0" word-spacing="0">
   <path d="m-105.23745-10.76v-.22405c.50785,0 .8514-.05477 1.03064-.16431 .2589-.15933.38836-.49291.38836-1.00077v-6.76639c0-.21907-.0199-.37341-.0598-.46304-.0697-.15932-.21907-.23898-.4481-.23899-.10954,9e-006-.19419.01-.25393.02987l-.76178.29874v-.20912l2.68863-1.35925 .1195.02987v8.96211c-1e-005,.34853.0946.58254.2838.70203s.56759.17924 1.1352.17924v.22405h-4.12257"/>
   <path d="m-97.24623-15.68916-.01494-.19418c.77671-.24894 1.35925-.54768 1.74761-.89621 .48793-.43814.7319-.98085.73191-1.62812-5e-006-.41822-.13444-.77173-.4033-1.06052-.29874-.3286-.71199-.49291-1.23976-.49292-.45807,9e-006-.86634.12946-1.22482.38836-.35849.24896-.6871.64727-.98583,1.19495l-.22405-.05975c.26886-.88624.70701-1.53351 1.31444-1.94179 .46802-.31864 1.00574-.47797 1.61318-.47798 .84642,1e-005 1.47376.25892 1.88204.77672 .29873.37841.4481.79166.44811,1.23976-6e-006,.41824-.10954.79166-.32861,1.12026-.20912.31866-.56263.64229-1.06052.9709 .68709.28879 1.17503.65723 1.46381,1.10533s.43316,1.00077.43317,1.65799c-7e-006,1.04558-.38837,1.88205-1.16508,2.50939-.77672.61739-1.76753.92608-2.97243.92608-.51781,0-.92609-.07468-1.22482-.22405-.28878-.14937-.43317-.35848-.43317-.62735-1e-006-.1892.05477-.32363.16431-.4033 .11949-.07966.25891-.11949.41823-.1195 .20912,1e-006 .53773.13941.98583.41823s.83148.41823 1.15014.41823c.64726,0 1.15511-.24397 1.52356-.73191 .31865-.42819.47797-.95098.47798-1.56837-5e-006-.29873-.06971-.61241-.20912-.94102-.19916-.47797-.50786-.82152-.92609-1.03064-.25891-.13941-.51284-.22903-.76178-.26886s-.64229-.05974-1.18001-.05975"/>
  </g>
  <g transform="matrix(.52304 0 0 .52304 74.192 268.41)" font-family="Rekha" font-size="15.295" font-weight="500" letter-spacing="0" word-spacing="0">
   <path d="m-105.23745-10.76v-.22405c.50785,0 .8514-.05477 1.03064-.16431 .2589-.15933.38836-.49291.38836-1.00077v-6.76639c0-.21907-.0199-.37341-.0598-.46304-.0697-.15932-.21907-.23898-.4481-.23899-.10954,9e-006-.19419.01-.25393.02987l-.76178.29874v-.20912l2.68863-1.35925 .1195.02987v8.96211c-1e-005,.34853.0946.58254.2838.70203s.56759.17924 1.1352.17924v.22405h-4.12257"/>
   <path d="m-92.481-14.21v0.95596h-1.5236v2.4944h-1.1501v-2.4944h-4.1973v-0.95596l4.6902-6.6469h0.65722v6.6469h1.5236m-2.6886 0v-5.0785l-3.5848 5.0785h3.5848"/>
  </g>
  <g transform="matrix(.52304 0 0 .52304 85.385 268.41)" font-family="Rekha" font-size="15.295" font-weight="500" letter-spacing="0" word-spacing="0">
   <path d="m-105.23745-10.76v-.22405c.50785,0 .8514-.05477 1.03064-.16431 .2589-.15933.38836-.49291.38836-1.00077v-6.76639c0-.21907-.0199-.37341-.0598-.46304-.0697-.15932-.21907-.23898-.4481-.23899-.10954,9e-006-.19419.01-.25393.02987l-.76178.29874v-.20912l2.68863-1.35925 .1195.02987v8.96211c-1e-005,.34853.0946.58254.2838.70203s.56759.17924 1.1352.17924v.22405h-4.12257"/>
   <path d="m-96.828-19.46818-.62735,1.26963c.85638.14938 1.47377.29377 1.85217.43317 .68709.24895 1.2298.6174 1.62812,1.10533 .3286.38836.5427.74685.64228,1.07545 .10953.31866.1643.80659.16431,1.46381-6e-006,1.00575-.37343,1.85217-1.12026,2.53926s-1.70778,1.03064-2.88281,1.03064c-.59748,0-1.06052-.07966-1.38913-.23899s-.49292-.3784-.49292-.65722c-1e-006-.1892.04979-.33359.14937-.43317s.24895-.14937.44811-.14937c.29873,1e-006 .59747.0946.89621.2838 .66718.42819 1.09039.64228 1.26963.64228 .54768,0 1.0157-.21409 1.40406-.64228 .4481-.48794.67215-1.16009.67216-2.01647-6e-006-1.06549-.50786-1.88702-1.52356-2.46458-.80659-.45806-1.71774-.68709-2.73344-.6871-.03983,7e-006-.06971-.01991-.08962-.05975s-.01992-.08464 0-.13443l1.62812-3.54003h3.1218c.17924,1e-005 .31367-.02986.4033-.08962 .08962-.06969.18421-.16927.2838-.29874l.13443.10456-.5676,1.32938c-.01.03984-.03984.07469-.08962.10456-.04979.01992-.13444.02988-.25393.02987h-2.92762"/>
  </g>
  <g transform="matrix(.52304 0 0 .52304 96.578 269.78)" font-family="Rekha" font-size="15.295" font-weight="500" letter-spacing="0" word-spacing="0">
   <path d="m-105.23745-10.76v-.22405c.50785,0 .8514-.05477 1.03064-.16431 .2589-.15933.38836-.49291.38836-1.00077v-6.76639c0-.21907-.0199-.37341-.0598-.46304-.0697-.15932-.21907-.23898-.4481-.23899-.10954,9e-006-.19419.01-.25393.02987l-.76178.29874v-.20912l2.68863-1.35925 .1195.02987v8.96211c-1e-005,.34853.0946.58254.2838.70203s.56759.17924 1.1352.17924v.22405h-4.12257"/>
   <path d="m-92.86974-20.9768 .02987.23899c-1.2547.19917-2.29032.73191-3.10687,1.59824-.71697.76677-1.15512,1.65302-1.31444,2.65876 .29873-.17924.55266-.31865.76178-.41823 .35848-.16928.76178-.25392 1.20989-.25393 .81654,6e-006 1.47874.27385 1.9866.82153s.76177,1.31943.76178,2.31521c-7e-006,.79663-.19917,1.50862-.59747,2.13597-.56761.88625-1.43394,1.32938-2.59901,1.32938-.946,0-1.71276-.36346-2.30028-1.09039-.65722-.81655-.98583-1.97166-.98583-3.46535 0-1.56339.57258-2.92264 1.71774-4.07776 1.18499-1.19494 2.66373-1.79241 4.43625-1.79242m-3.04712,4.51093c-.27882,6e-006-.54271.03984-.79165.1195-.23899.06971-.44811.18921-.62735.35848-.08962.08963-.16431.239-.22405.44811-.04979.20912-.07469.52777-.07469.95596-1e-006,1.18499.21409,2.10112.64228,2.74838 .3784.57756.87131.86634 1.47875.86634 .48793,0 .88127-.20414 1.18001-.61241 .29873-.41823.4481-1.03562.4481-1.85217-5e-006-.88625-.13942-1.5833-.41823-2.09116-.33857-.62734-.8763-.94102-1.61318-.94102"/>
  </g>
  <g transform="matrix(.52304 0 0 .52304 107.77 268.41)" font-family="Rekha" font-size="15.295" font-weight="500" letter-spacing="0" word-spacing="0">
   <path d="m-105.23745-10.76v-.22405c.50785,0 .8514-.05477 1.03064-.16431 .2589-.15933.38836-.49291.38836-1.00077v-6.76639c0-.21907-.0199-.37341-.0598-.46304-.0697-.15932-.21907-.23898-.4481-.23899-.10954,9e-006-.19419.01-.25393.02987l-.76178.29874v-.20912l2.68863-1.35925 .1195.02987v8.96211c-1e-005,.34853.0946.58254.2838.70203s.56759.17924 1.1352.17924v.22405h-4.12257"/>
   <path d="m-92.82493-20.64819v.23899l-3.16661,9.7687h-.97089l2.9575-8.90236h-3.2413c-.43815,9e-006-.78668.10457-1.04558.31367-.15933.12946-.38836.4282-.6871.89621l-.25393-.11949 .64228-1.5385 .23899-.65722h5.52663"/>
  </g>
  <g transform="matrix(.52304 0 0 .52304 118.96 269.79)" font-family="Rekha" font-size="15.295" font-weight="500" letter-spacing="0" word-spacing="0">
   <path d="m-105.1777-13.09015v-.22405c.50785,0 .8514-.05477 1.03064-.16431 .2589-.15933.38836-.49291.38836-1.00077v-6.76639c0-.21907-.0199-.37341-.0598-.46304-.0697-.15932-.21907-.23898-.4481-.23899-.10954,9e-006-.19419.01-.25393.02987l-.76178.29874v-.20912l2.68863-1.35925 .1195.02987v8.96211c-1e-005,.34853.0946.58254.2838.70203s.56759.17924 1.1352.17924v.22405h-4.12257"/>
   <path d="m-96.30521-17.75044c-.36845.29874-.62735.56263-.77672.79165-.27882.42819-.41823.94102-.41823,1.5385s.16928,1.10035.50785,1.50862 .80161.61241 1.38913.61241c.48793,0 .88127-.14439 1.18001-.43317 .30869-.29874.46304-.71199.46304-1.23976-6e-006-.60743-.27883-1.15511-.83646-1.64305-.23899-.20911-.74187-.58751-1.50862-1.1352m-2.33015,2.47952c-1e-006-.70701.24397-1.30448.73191-1.79242 .17924-.17924.58254-.50785 1.20989-.98583-.60743-.53772-.98583-.88625-1.1352-1.04558-.47798-.5178-.71697-1.1103-.71697-1.77749-1e-006-.707.30372-1.27958.91115-1.71774 .54768-.39831 1.17503-.59746 1.88204-.59747 .81654,1e-005 1.46381.20913 1.94179.62735 .4481.38837.67215.88626.67216,1.49368s-.22904,1.13023-.6871,1.56837c-.24895.239-.6871.52777-1.31444.86634 .93604.66719 1.57334,1.26964 1.91192,1.80736 .26886.42819.40329.92609.4033,1.49369s-.18423,1.07048-.55266,1.50862c-.52777.62735-1.33436.94102-2.41977.94102-.8763,0-1.57833-.24895-2.1061-.74684-.48794-.45806-.73191-1.00575-.73191-1.64305m1.19495-5.98968c-2e-006,.4979.24397.9958.73191,1.49369 .24894.25891.62734.54769 1.1352.86634 .41823-.27881.72194-.53274.91115-.76178 .3286-.40827.49291-.90118.49292-1.47875-6e-006-.4481-.13444-.82152-.4033-1.12026-.29874-.33856-.72195-.50784-1.26963-.50785-.51781,1e-005-.91613.15436-1.19495.46304-.26887.29875-.4033.64727-.4033,1.04558"/>
  </g>
  <g transform="matrix(.52304 0 0 .52304 130.16 268.42)" font-family="Rekha" font-size="15.295" font-weight="500" letter-spacing="0" word-spacing="0">
   <path d="m-105.23745-10.76v-.22405c.50785,0 .8514-.05477 1.03064-.16431 .2589-.15933.38836-.49291.38836-1.00077v-6.76639c0-.21907-.0199-.37341-.0598-.46304-.0697-.15932-.21907-.23898-.4481-.23899-.10954,9e-006-.19419.01-.25393.02987l-.76178.29874v-.20912l2.68863-1.35925 .1195.02987v8.96211c-1e-005,.34853.0946.58254.2838.70203s.56759.17924 1.1352.17924v.22405h-4.12257"/>
   <path d="m-98.6503-10.43139-.04481-.29874c1.18499-.19916 2.18078-.71199 2.98737-1.5385 .76675-.78667 1.27959-1.72769 1.5385-2.82307l-.02987-.02987c-.31866.26887-.67216.473-1.06052.61241-.3784.13941-.7568.20912-1.1352.20912-.90617,3e-006-1.60322-.33857-2.09116-1.01571-.39832-.54768-.59747-1.19494-.59747-1.94179-1e-006-1.0157.2838-1.8671.8514-2.5542 .57756-.69704 1.33933-1.04557 2.28534-1.04558 .93604,1e-005 1.71275.38837 2.33015,1.16508 .62734.76677.94102,1.77251.94102,3.01724-6e-006,1.68289-.51782,3.11683-1.55343,4.30181-1.13521,1.29453-2.60897,1.94179-4.42131,1.94179m4.52587-5.63119v-.58254c-6e-006-1.28456-.15435-2.22558-.46304-2.82307-.33857-.64726-.84642-.97089-1.52356-.9709-.57756,1e-005-1.00077.27883-1.26963.83646-.21908.44811-.32861,1.04061-.32861,1.77749-2e-006,.74685.11949,1.36922.35849,1.86711 .32861.67714.84642,1.01571 1.55343,1.01571 .23899,4e-006 .49789-.05476.77672-.16431s.49789-.22405.65722-.34355c.15932-.12945.23898-.33359.23899-.61241"/>
  </g>
  <g transform="matrix(.52304 0 0 .52304 62.999 288.49)" font-family="Rekha" font-size="15.295" font-weight="500" letter-spacing="0" word-spacing="0">
   <path d="m-99.905-12.80635-.82152,2.04635h-5.82537v-.17924l2.65876-2.82307c1.29452-1.38414 1.94178-2.66871 1.94179-3.85371-1e-005-.5178-.13444-.96591-.4033-1.34432-.3784-.52776-.95596-.79165-1.73267-.79165-.59748,9e-006-1.08044.21908-1.44888.65722-.20912.24896-.43815.67715-.68709,1.28457l-.31368-.07468c.20912-1.04557.62735-1.82229 1.2547-2.33015 .52776-.42818 1.16507-.64228 1.91192-.64228 .71696,1e-005 1.34431.24896 1.88204.74684 .54768.48795.82152,1.13521.82153,1.94179-1e-005,.69706-.23402,1.41403-.70204,2.15091-.25891.40828-.6622.90617-1.20988,1.49368l-2.50939,2.62889h3.5699c.31865,1e-006 .55266-.04481.70204-.13443 .19915-.11949.43814-.40329.71697-.8514l.19417.07469"/>
   <path d="m-92.82493-20.64819v.23899l-3.16661,9.7687h-.97089l2.9575-8.90236h-3.2413c-.43815,9e-006-.78668.10457-1.04558.31367-.15933.12946-.38836.4282-.6871.89621l-.25393-.11949 .64228-1.5385 .23899-.65722h5.52663"/>
  </g>
  <g transform="matrix(.52304 0 0 .52304 74.063 288.85)" font-family="Rekha" font-size="15.295" font-weight="500" letter-spacing="0" word-spacing="0">
   <path d="m-99.905-12.80635-.82152,2.04635h-5.82537v-.17924l2.65876-2.82307c1.29452-1.38414 1.94178-2.66871 1.94179-3.85371-1e-005-.5178-.13444-.96591-.4033-1.34432-.3784-.52776-.95596-.79165-1.73267-.79165-.59748,9e-006-1.08044.21908-1.44888.65722-.20912.24896-.43815.67715-.68709,1.28457l-.31368-.07468c.20912-1.04557.62735-1.82229 1.2547-2.33015 .52776-.42818 1.16507-.64228 1.91192-.64228 .71696,1e-005 1.34431.24896 1.88204.74684 .54768.48795.82152,1.13521.82153,1.94179-1e-005,.69706-.23402,1.41403-.70204,2.15091-.25891.40828-.6622.90617-1.20988,1.49368l-2.50939,2.62889h3.5699c.31865,1e-006 .55266-.04481.70204-.13443 .19915-.11949.43814-.40329.71697-.8514l.19417.07469"/>
   <path d="m-96.36496-15.42029c-.36845.29874-.62735.56263-.77672.79165-.27882.42819-.41823.94102-.41823,1.5385s.16928,1.10035.50785,1.50862 .80161.61241 1.38913.61241c.48793,0 .88127-.14439 1.18001-.43317 .30869-.29874.46304-.71199.46304-1.23976-6e-006-.60743-.27883-1.15511-.83646-1.64305-.23899-.20911-.74187-.58751-1.50862-1.1352m-2.33015,2.47952c-1e-006-.70701.24397-1.30448.73191-1.79242 .17924-.17924.58254-.50785 1.20989-.98583-.60743-.53772-.98583-.88625-1.1352-1.04558-.47798-.5178-.71697-1.1103-.71697-1.77749-1e-006-.707.30372-1.27958.91115-1.71774 .54768-.39831 1.17503-.59746 1.88204-.59747 .81654,1e-005 1.46381.20913 1.94179.62735 .4481.38837.67215.88626.67216,1.49368s-.22904,1.13023-.6871,1.56837c-.24895.239-.6871.52777-1.31444.86634 .93604.66719 1.57334,1.26964 1.91192,1.80736 .26886.42819.40329.92609.4033,1.49369s-.18423,1.07048-.55266,1.50862c-.52777.62735-1.33436.94102-2.41977.94102-.8763,0-1.57833-.24895-2.1061-.74684-.48794-.45806-.73191-1.00575-.73191-1.64305m1.19495-5.98968c-2e-006,.4979.24397.9958.73191,1.49369 .24894.25891.62734.54769 1.1352.86634 .41823-.27881.72194-.53274.91115-.76178 .3286-.40827.49291-.90118.49292-1.47875-6e-006-.4481-.13444-.82152-.4033-1.12026-.29874-.33856-.72195-.50784-1.26963-.50785-.51781,1e-005-.91613.15436-1.19495.46304-.26887.29875-.4033.64727-.4033,1.04558"/>
  </g>
  <g transform="matrix(.52304 0 0 .52304 85.135 288.78)" font-family="Rekha" font-size="15.295" font-weight="500" letter-spacing="0" word-spacing="0">
   <path d="m-99.905-12.80635-.82152,2.04635h-5.82537v-.17924l2.65876-2.82307c1.29452-1.38414 1.94178-2.66871 1.94179-3.85371-1e-005-.5178-.13444-.96591-.4033-1.34432-.3784-.52776-.95596-.79165-1.73267-.79165-.59748,9e-006-1.08044.21908-1.44888.65722-.20912.24896-.43815.67715-.68709,1.28457l-.31368-.07468c.20912-1.04557.62735-1.82229 1.2547-2.33015 .52776-.42818 1.16507-.64228 1.91192-.64228 .71696,1e-005 1.34431.24896 1.88204.74684 .54768.48795.82152,1.13521.82153,1.94179-1e-005,.69706-.23402,1.41403-.70204,2.15091-.25891.40828-.6622.90617-1.20988,1.49368l-2.50939,2.62889h3.5699c.31865,1e-006 .55266-.04481.70204-.13443 .19915-.11949.43814-.40329.71697-.8514l.19417.07469"/>
   <path d="m-98.6503-10.43139-.04481-.29874c1.18499-.19916 2.18078-.71199 2.98737-1.5385 .76675-.78667 1.27959-1.72769 1.5385-2.82307l-.02987-.02987c-.31866.26887-.67216.473-1.06052.61241-.3784.13941-.7568.20912-1.1352.20912-.90617,3e-006-1.60322-.33857-2.09116-1.01571-.39832-.54768-.59747-1.19494-.59747-1.94179-1e-006-1.0157.2838-1.8671.8514-2.5542 .57756-.69704 1.33933-1.04557 2.28534-1.04558 .93604,1e-005 1.71275.38837 2.33015,1.16508 .62734.76677.94102,1.77251.94102,3.01724-6e-006,1.68289-.51782,3.11683-1.55343,4.30181-1.13521,1.29453-2.60897,1.94179-4.42131,1.94179m4.52587-5.63119v-.58254c-6e-006-1.28456-.15435-2.22558-.46304-2.82307-.33857-.64726-.84642-.97089-1.52356-.9709-.57756,1e-005-1.00077.27883-1.26963.83646-.21908.44811-.32861,1.04061-.32861,1.77749-2e-006,.74685.11949,1.36922.35849,1.86711 .32861.67714.84642,1.01571 1.55343,1.01571 .23899,4e-006 .49789-.05476.77672-.16431s.49789-.22405.65722-.34355c.15932-.12945.23898-.33359.23899-.61241"/>
  </g>
  <g transform="matrix(.52304 0 0 .52304 95.949 287.81)" font-family="Rekha" font-size="15.295" font-weight="500" letter-spacing="0" word-spacing="0">
   <path d="m-104.71466-15.68916-.0149-.19418c.77671-.24894 1.35925-.54768 1.74761-.89621 .48794-.43814.7319-.98085.73191-1.62812-1e-005-.41822-.13444-.77173-.4033-1.06052-.29874-.3286-.71199-.49291-1.23975-.49292-.45807,9e-006-.86634.12946-1.22483.38836-.35848.24896-.68709.64727-.98583,1.19495l-.22405-.05975c.26886-.88624.70701-1.53351 1.31444-1.94179 .46802-.31864 1.00575-.47797 1.61318-.47798 .84642,1e-005 1.47377.25892 1.88204.77672 .29874.37841.4481.79166.44811,1.23976-1e-005,.41824-.10954.79166-.32861,1.12026-.20912.31866-.56263.64229-1.06052.9709 .68709.28879 1.17503.65723 1.46381,1.10533s.43317,1.00077.43317,1.65799c0,1.04558-.38836,1.88205-1.16507,2.50939-.77672.61739-1.76753.92608-2.97243.92608-.51782,0-.92609-.07468-1.22483-.22405-.28878-.14937-.43317-.35848-.43317-.62735 0-.1892.0548-.32363.16431-.4033 .11949-.07966.2589-.11949.41823-.1195 .20912,1e-006 .53773.13941.98583.41823s.83149.41823 1.15014.41823c.64726,0 1.15511-.24397 1.52356-.73191 .31865-.42819.47797-.95098.47798-1.56837-1e-005-.29873-.0697-.61241-.20912-.94102-.19916-.47797-.50785-.82152-.92608-1.03064-.25891-.13941-.51284-.22903-.76178-.26886s-.64229-.05974-1.18001-.05975"/>
   <path d="m-95.797-20.469c-0.63731 9e-6 -1.1203 0.40828-1.4489 1.2248s-0.49292 1.9966-0.49292 3.54c-1e-6 1.175 0.08464 2.121 0.25393 2.838 0.30869 1.2846 0.87131 1.9268 1.6879 1.9268 0.6373 0 1.1203-0.39334 1.4489-1.18 0.3286-0.79663 0.49291-1.9916 0.49292-3.5848-6e-6 -1.1153-0.08465-2.0364-0.25393-2.7633-0.3087-1.3344-0.87132-2.0015-1.6879-2.0015m0-0.38836c1.2149 1e-5 2.121 0.63732 2.7185 1.9119 0.43814 0.93605 0.65721 2.0165 0.65722 3.2413-7e-6 1.2447-0.21908 2.3302-0.65722 3.2562-0.59748 1.2646-1.5036 1.897-2.7185 1.897s-2.121-0.63233-2.7185-1.897c-0.43815-0.92608-0.65722-2.0115-0.65722-3.2562-1e-6 -1.2149 0.21907-2.2903 0.65722-3.2264 0.59747-1.2846 1.5036-1.9268 2.7185-1.9268"/>
  </g>
  <g transform="matrix(.52304 0 0 .52304 107.71 287.86)" font-family="Rekha" font-size="15.295" font-weight="500" letter-spacing="0" word-spacing="0">
   <path d="m-104.71466-15.68916-.0149-.19418c.77671-.24894 1.35925-.54768 1.74761-.89621 .48794-.43814.7319-.98085.73191-1.62812-1e-005-.41822-.13444-.77173-.4033-1.06052-.29874-.3286-.71199-.49291-1.23975-.49292-.45807,9e-006-.86634.12946-1.22483.38836-.35848.24896-.68709.64727-.98583,1.19495l-.22405-.05975c.26886-.88624.70701-1.53351 1.31444-1.94179 .46802-.31864 1.00575-.47797 1.61318-.47798 .84642,1e-005 1.47377.25892 1.88204.77672 .29874.37841.4481.79166.44811,1.23976-1e-005,.41824-.10954.79166-.32861,1.12026-.20912.31866-.56263.64229-1.06052.9709 .68709.28879 1.17503.65723 1.46381,1.10533s.43317,1.00077.43317,1.65799c0,1.04558-.38836,1.88205-1.16507,2.50939-.77672.61739-1.76753.92608-2.97243.92608-.51782,0-.92609-.07468-1.22483-.22405-.28878-.14937-.43317-.35848-.43317-.62735 0-.1892.0548-.32363.16431-.4033 .11949-.07966.2589-.11949.41823-.1195 .20912,1e-006 .53773.13941.98583.41823s.83149.41823 1.15014.41823c.64726,0 1.15511-.24397 1.52356-.73191 .31865-.42819.47797-.95098.47798-1.56837-1e-005-.29873-.0697-.61241-.20912-.94102-.19916-.47797-.50785-.82152-.92608-1.03064-.25891-.13941-.51284-.22903-.76178-.26886s-.64229-.05974-1.18001-.05975"/>
   <path d="m-97.76902-10.76v-.22405c.50785,0 .8514-.05477 1.03064-.16431 .2589-.15933.38836-.49291.38836-1.00077v-6.76639c-3e-006-.21907-.01992-.37341-.05975-.46304-.06971-.15932-.21908-.23898-.4481-.23899-.10954,9e-006-.19418.01-.25393.02987l-.76178.29874v-.20912l2.68863-1.35925 .1195.02987v8.96211c-4e-006,.34853.0946.58254.2838.70203s.56759.17924 1.1352.17924v.22405h-4.12257"/>
  </g>
  <g transform="matrix(.52304 0 0 .52304 62.999 278.8)" font-family="Rekha" font-size="15.295" font-weight="500" letter-spacing="0" word-spacing="0">
   <path d="m-99.905-12.80635-.82152,2.04635h-5.82537v-.17924l2.65876-2.82307c1.29452-1.38414 1.94178-2.66871 1.94179-3.85371-1e-005-.5178-.13444-.96591-.4033-1.34432-.3784-.52776-.95596-.79165-1.73267-.79165-.59748,9e-006-1.08044.21908-1.44888.65722-.20912.24896-.43815.67715-.68709,1.28457l-.31368-.07468c.20912-1.04557.62735-1.82229 1.2547-2.33015 .52776-.42818 1.16507-.64228 1.91192-.64228 .71696,1e-005 1.34431.24896 1.88204.74684 .54768.48795.82152,1.13521.82153,1.94179-1e-005,.69706-.23402,1.41403-.70204,2.15091-.25891.40828-.6622.90617-1.20988,1.49368l-2.50939,2.62889h3.5699c.31865,1e-006 .55266-.04481.70204-.13443 .19915-.11949.43814-.40329.71697-.8514l.19417.07469"/>
   <path d="m-95.797-20.469c-0.63731 9e-6 -1.1203 0.40828-1.4489 1.2248s-0.49292 1.9966-0.49292 3.54c-1e-6 1.175 0.08464 2.121 0.25393 2.838 0.30869 1.2846 0.87131 1.9268 1.6879 1.9268 0.6373 0 1.1203-0.39334 1.4489-1.18 0.3286-0.79663 0.49291-1.9916 0.49292-3.5848-6e-6 -1.1153-0.08465-2.0364-0.25393-2.7633-0.3087-1.3344-0.87132-2.0015-1.6879-2.0015m0-0.38836c1.2149 1e-5 2.121 0.63732 2.7185 1.9119 0.43814 0.93605 0.65721 2.0165 0.65722 3.2413-7e-6 1.2447-0.21908 2.3302-0.65722 3.2562-0.59748 1.2646-1.5036 1.897-2.7185 1.897s-2.121-0.63233-2.7185-1.897c-0.43815-0.92608-0.65722-2.0115-0.65722-3.2562-1e-6 -1.2149 0.21907-2.2903 0.65722-3.2264 0.59747-1.2846 1.5036-1.9268 2.7185-1.9268"/>
  </g>
  <g transform="matrix(.52304 0 0 .52304 74.192 278.8)" font-family="Rekha" font-size="15.295" font-weight="500" letter-spacing="0" word-spacing="0">
   <path d="m-99.905-12.80635-.82152,2.04635h-5.82537v-.17924l2.65876-2.82307c1.29452-1.38414 1.94178-2.66871 1.94179-3.85371-1e-005-.5178-.13444-.96591-.4033-1.34432-.3784-.52776-.95596-.79165-1.73267-.79165-.59748,9e-006-1.08044.21908-1.44888.65722-.20912.24896-.43815.67715-.68709,1.28457l-.31368-.07468c.20912-1.04557.62735-1.82229 1.2547-2.33015 .52776-.42818 1.16507-.64228 1.91192-.64228 .71696,1e-005 1.34431.24896 1.88204.74684 .54768.48795.82152,1.13521.82153,1.94179-1e-005,.69706-.23402,1.41403-.70204,2.15091-.25891.40828-.6622.90617-1.20988,1.49368l-2.50939,2.62889h3.5699c.31865,1e-006 .55266-.04481.70204-.13443 .19915-.11949.43814-.40329.71697-.8514l.19417.07469"/>
   <path d="m-97.76902-10.76v-.22405c.50785,0 .8514-.05477 1.03064-.16431 .2589-.15933.38836-.49291.38836-1.00077v-6.76639c-3e-006-.21907-.01992-.37341-.05975-.46304-.06971-.15932-.21908-.23898-.4481-.23899-.10954,9e-006-.19418.01-.25393.02987l-.76178.29874v-.20912l2.68863-1.35925 .1195.02987v8.96211c-4e-006,.34853.0946.58254.2838.70203s.56759.17924 1.1352.17924v.22405h-4.12257"/>
  </g>
  <g transform="matrix(.52304 0 0 .52304 85.385 278.8)" font-family="Rekha" font-size="15.295" font-weight="500" letter-spacing="0" word-spacing="0">
   <path d="m-99.905-12.80635-.82152,2.04635h-5.82537v-.17924l2.65876-2.82307c1.29452-1.38414 1.94178-2.66871 1.94179-3.85371-1e-005-.5178-.13444-.96591-.4033-1.34432-.3784-.52776-.95596-.79165-1.73267-.79165-.59748,9e-006-1.08044.21908-1.44888.65722-.20912.24896-.43815.67715-.68709,1.28457l-.31368-.07468c.20912-1.04557.62735-1.82229 1.2547-2.33015 .52776-.42818 1.16507-.64228 1.91192-.64228 .71696,1e-005 1.34431.24896 1.88204.74684 .54768.48795.82152,1.13521.82153,1.94179-1e-005,.69706-.23402,1.41403-.70204,2.15091-.25891.40828-.6622.90617-1.20988,1.49368l-2.50939,2.62889h3.5699c.31865,1e-006 .55266-.04481.70204-.13443 .19915-.11949.43814-.40329.71697-.8514l.19417.07469"/>
   <path d="m-92.43657-12.80635-.82153,2.04635h-5.82537v-.17924l2.65876-2.82307c1.29452-1.38414 1.94179-2.66871 1.94179-3.85371-5e-006-.5178-.13444-.96591-.4033-1.34432-.3784-.52776-.95596-.79165-1.73268-.79165-.59748,9e-006-1.08043.21908-1.44887.65722-.20912.24896-.43815.67715-.6871,1.28457l-.31367-.07468c.20912-1.04557.62735-1.82229 1.25469-2.33015 .52777-.42818 1.16507-.64228 1.91192-.64228 .71696,1e-005 1.34431.24896 1.88204.74684 .54768.48795.82152,1.13521.82153,1.94179-7e-006,.69706-.23402,1.41403-.70203,2.15091-.25891.40828-.66221.90617-1.20989,1.49368l-2.50939,2.62889h3.56991c.31865,1e-006 .55266-.04481.70203-.13443 .19915-.11949.43814-.40329.71697-.8514l.19418.07469"/>
  </g>
  <g transform="matrix(.52304 0 0 .52304 96.578 278.8)" font-family="Rekha" font-size="15.295" font-weight="500" letter-spacing="0" word-spacing="0">
   <path d="m-99.905-12.80635-.82152,2.04635h-5.82537v-.17924l2.65876-2.82307c1.29452-1.38414 1.94178-2.66871 1.94179-3.85371-1e-005-.5178-.13444-.96591-.4033-1.34432-.3784-.52776-.95596-.79165-1.73267-.79165-.59748,9e-006-1.08044.21908-1.44888.65722-.20912.24896-.43815.67715-.68709,1.28457l-.31368-.07468c.20912-1.04557.62735-1.82229 1.2547-2.33015 .52776-.42818 1.16507-.64228 1.91192-.64228 .71696,1e-005 1.34431.24896 1.88204.74684 .54768.48795.82152,1.13521.82153,1.94179-1e-005,.69706-.23402,1.41403-.70204,2.15091-.25891.40828-.6622.90617-1.20988,1.49368l-2.50939,2.62889h3.5699c.31865,1e-006 .55266-.04481.70204-.13443 .19915-.11949.43814-.40329.71697-.8514l.19417.07469"/>
   <path d="m-97.24623-15.68916-.01494-.19418c.77671-.24894 1.35925-.54768 1.74761-.89621 .48793-.43814.7319-.98085.73191-1.62812-5e-006-.41822-.13444-.77173-.4033-1.06052-.29874-.3286-.71199-.49291-1.23976-.49292-.45807,9e-006-.86634.12946-1.22482.38836-.35849.24896-.6871.64727-.98583,1.19495l-.22405-.05975c.26886-.88624.70701-1.53351 1.31444-1.94179 .46802-.31864 1.00574-.47797 1.61318-.47798 .84642,1e-005 1.47376.25892 1.88204.77672 .29873.37841.4481.79166.44811,1.23976-6e-006,.41824-.10954.79166-.32861,1.12026-.20912.31866-.56263.64229-1.06052.9709 .68709.28879 1.17503.65723 1.46381,1.10533s.43316,1.00077.43317,1.65799c-7e-006,1.04558-.38837,1.88205-1.16508,2.50939-.77672.61739-1.76753.92608-2.97243.92608-.51781,0-.92609-.07468-1.22482-.22405-.28878-.14937-.43317-.35848-.43317-.62735-1e-006-.1892.05477-.32363.16431-.4033 .11949-.07966.25891-.11949.41823-.1195 .20912,1e-006 .53773.13941.98583.41823s.83148.41823 1.15014.41823c.64726,0 1.15511-.24397 1.52356-.73191 .31865-.42819.47797-.95098.47798-1.56837-5e-006-.29873-.06971-.61241-.20912-.94102-.19916-.47797-.50786-.82152-.92609-1.03064-.25891-.13941-.51284-.22903-.76178-.26886s-.64229-.05974-1.18001-.05975"/>
  </g>
  <g transform="matrix(.52304 0 0 .52304 107.77 278.8)" font-family="Rekha" font-size="15.295" font-weight="500" letter-spacing="0" word-spacing="0">
   <path d="m-99.905-12.80635-.82152,2.04635h-5.82537v-.17924l2.65876-2.82307c1.29452-1.38414 1.94178-2.66871 1.94179-3.85371-1e-005-.5178-.13444-.96591-.4033-1.34432-.3784-.52776-.95596-.79165-1.73267-.79165-.59748,9e-006-1.08044.21908-1.44888.65722-.20912.24896-.43815.67715-.68709,1.28457l-.31368-.07468c.20912-1.04557.62735-1.82229 1.2547-2.33015 .52776-.42818 1.16507-.64228 1.91192-.64228 .71696,1e-005 1.34431.24896 1.88204.74684 .54768.48795.82152,1.13521.82153,1.94179-1e-005,.69706-.23402,1.41403-.70204,2.15091-.25891.40828-.6622.90617-1.20988,1.49368l-2.50939,2.62889h3.5699c.31865,1e-006 .55266-.04481.70204-.13443 .19915-.11949.43814-.40329.71697-.8514l.19417.07469"/>
   <path d="m-92.481-14.21v0.95596h-1.5236v2.4944h-1.1501v-2.4944h-4.1973v-0.95596l4.6902-6.6469h0.65722v6.6469h1.5236m-2.6886 0v-5.0785l-3.5848 5.0785h3.5848"/>
  </g>
  <path d="m81.978 262.42c2.849 5.8433-1.7714 14.08-10.32 18.397s-17.788 3.0798-20.637-2.7635 1.7714-14.08 10.32-18.397 17.788-3.0798 20.637 2.7635z" fill="url(#j)" opacity=".58367"/>
  <path d="m58.22 286.79c12.728-3.5355 26.749-18.91 27.457-24.92 0 0-9.7161 1.5741-24.742-0.19369 1.0607 8.1317-2.7145 25.114-2.7145 25.114z" fill="url(#r)"/>
  <path d="m9.8282 207.38c-2.5131 0-4.5425 2.007-4.5425 4.5312v20.969h80.146v-20.969c0-2.5242-2.0293-4.5312-4.5425-4.5312h-71.062z" fill="url(#p)" stroke="#9cbcdd"/>
  <g transform="matrix(.76709 0 0 .76709 16.519 96.242)" fill="#fff" font-family="Yanone Kaffeesatz" font-size="18" letter-spacing="0" text-anchor="middle" word-spacing="0">
   <path d="m13.209 171.69c0 1.4049-0.10807 2.1613-1.1707 2.1613-0.59437 0-1.1347-0.28817-1.4769-0.59436-0.09006 0.18011-0.23414 0.45027-0.23414 0.82851 0 0.52232 0.43227 1.0627 1.9092 1.0627 1.9632 0 2.4675-1.3508 2.4675-3.134v-9.636c-1.4949 0-1.4949 0-1.4949 0.66641v8.6454"/>
   <path d="m21.33545,174.98326c.36022.036.6484.036.86454.036 .57636,0 .66641-.10807.63039-.30619l-3.224-12.33765c-.18011-.036-.43227-.054-.68442-.054-.3242,0-.52232.0721-.55835.25216l-3.20599,12.39169c.34221.036.72045.054.91857.054 .57636,0 .63039-.0901.68442-.28818l.70244-2.95383h3.09792l.77448,3.20599m-2.95383-7.0964c.27017-1.20675.52232-2.59361.63039-3.45815 .09006.86454.34221,2.26941.63039,3.45815l.61238,2.55758h-2.48554l.61238-2.55758"/>
   <path d="m28.765 174.98h1.0987c0.19812 0 0.30619-0.10807 0.30619-0.28818v-12.32c-1.4409 0-1.4769 0-1.4769 0.30619v4.2326c0 0.84653 0.05403 4.2686 0.18011 5.3493v0.054c-0.43227-1.3508-1.3508-4.1426-1.7111-5.0792l-2.0172-4.863h-1.1167c-0.21613 0-0.30619 0.09-0.30619 0.30619v12.302c1.4589 0 1.4589 0 1.4589-0.28818v-4.3767c0-0.77448-0.07205-4.2146-0.18011-5.3853 0.45028 1.4049 1.3869 4.2867 1.7111 5.0972l2.0533 4.9531"/>
   <path d="m33.22 162.38c-1.5129 0-1.5129 0-1.5129 0.30619v8.6274c0 2.0893 0.36023 3.8544 3.242 3.8544 1.4229 0 2.6116-0.36022 3.0619-0.6484v-12.14c-1.4589 0-1.4769 0-1.4769 0.30619v10.807c-0.30619 0.1621-0.95459 0.3242-1.585 0.3242-1.5129 0-1.7291-1.0086-1.7291-2.4675v-8.9696"/>
   <path d="m45.08065,174.98326c.36022.036.6484.036.86454.036 .57636,0 .66641-.10807.63039-.30619l-3.224-12.33765c-.18011-.036-.43227-.054-.68442-.054-.3242,0-.52232.0721-.55835.25216l-3.20599,12.39169c.34221.036.72045.054.91857.054 .57636,0 .63039-.0901.68442-.28818l.70244-2.95383h3.09792l.77448,3.20599m-2.95383-7.0964c.27017-1.20675.52232-2.59361.63039-3.45815 .09006.86454.34221,2.26941.63039,3.45815l.61238,2.55758h-2.48554l.61238-2.55758"/>
   <path d="m47.46713,174.98326c1.44089,0 1.4589,0 1.4589-.28818v-4.827h.63039c.10807,0 .23414,0 .36022-.018 .43227.59437 1.27879,2.0893 1.47692,5.13319 .3242.018.63039.036.86454.036 .68442,0 .73846-.0901.73846-.36022-.18011-2.84577-1.1347-4.44876-1.69305-5.18722 .93658-.52233 1.56697-1.603 1.56697-3.53019 0-2.50355-1.04465-3.56621-3.31406-3.56621h-1.78311c-.30619,0-.30619.30619-.30619.30619v12.30163m3.78235-9.11366c0,1.90919-.52232,2.64765-1.53095,2.64765h-.79249v-4.86302h.90056c1.06266,0 1.42288.84652 1.42288,2.21537"/>
   <path d="m55.618 174.98c1.4769 0 1.4589 0 1.4589-0.28818v-4.917l2.4315-7.4026c-1.4949 0-1.4949 0-1.585 0.27016l-0.63039 2.1974c-0.34221 1.1527-0.84652 3.242-0.90056 3.7643-0.03602-0.52232-0.52232-2.6116-0.88255-3.7643l-0.72045-2.4675c-1.693 0-1.7291 0-1.657 0.23414l2.4855 7.2765v5.0972"/>
  </g>
  <g transform="translate(-13.083 27.4)">
   <path d="m34.936 165.23v6.0312c1.9909 1.4149 3.375 4.2938 3.375 7.625 0 3.3369-1.3786 6.2219-3.375 7.625v5.0938c4.7703-0.67805 8.5-6.3228 8.5-13.188s-3.7297-12.509-8.5-13.188z" fill="#494949" filter="url(#h)" opacity=".2"/>
   <path transform="matrix(.89297 0 0 .89297 9.099 -4.2719)" d="m33.941 213.73a7.0711 6.364 0 1 1 -14.142 0 7.0711 6.364 0 1 1 14.142 0z" fill="url(#f)"/>
   <g transform="matrix(1.1009 0 0 1.3252 18.021 -72.299)">
    <path d="m13.806 178.43a3.6327 4.6429 0 0 1 3.6327 4.6429v11.429a3.6327 4.6429 0 0 1 -3.6327 4.6429 3.6327 4.6429 0 0 1 -3.6327 -4.6429v-11.429a3.6327 4.6429 0 0 1 3.6327 -4.6429" fill="url(#e)"/>
    <path transform="matrix(1.1536 0 0 1 -1.8123 0)" d="m13.538 178.43a2.1148 4.6429 0 0 1 2.1148 4.6429v11.429a2.1148 4.6429 0 0 1 -2.1148 4.6429 2.1148 4.6429 0 0 1 -2.1148 -4.6429v-11.429a2.1148 4.6429 0 0 1 2.1148 -4.6429" fill="url(#d)" filter="url(#i)" opacity=".47126"/>
   </g>
   <path d="m29.235 188.5v2.0298c1.0875 0.80934 2.4652 1.3073 3.9908 1.3073 1.5205 0 2.8976-0.50295 3.9908-1.3073v-1.789c-1.0678 0.72842-2.4084 1.1697-3.8532 1.1697-1.5881 0-3.0238-0.54187-4.1284-1.4106z" fill="url(#c)" opacity=".31837"/>
  </g>
  <g transform="translate(33.521 27.4)">
   <path d="m34.936 165.23v6.0312c1.9909 1.4149 3.375 4.2938 3.375 7.625 0 3.3369-1.3786 6.2219-3.375 7.625v5.0938c4.7703-0.67805 8.5-6.3228 8.5-13.188s-3.7297-12.509-8.5-13.188z" fill="#494949" filter="url(#h)" opacity=".2"/>
   <path transform="matrix(.89297 0 0 .89297 9.099 -4.2719)" d="m33.941 213.73a7.0711 6.364 0 1 1 -14.142 0 7.0711 6.364 0 1 1 14.142 0z" fill="url(#f)"/>
   <g transform="matrix(1.1009 0 0 1.3252 18.021 -72.299)">
    <path d="m13.806 178.43a3.6327 4.6429 0 0 1 3.6327 4.6429v11.429a3.6327 4.6429 0 0 1 -3.6327 4.6429 3.6327 4.6429 0 0 1 -3.6327 -4.6429v-11.429a3.6327 4.6429 0 0 1 3.6327 -4.6429" fill="url(#e)"/>
    <path transform="matrix(1.1536 0 0 1 -1.8123 0)" d="m13.538 178.43a2.1148 4.6429 0 0 1 2.1148 4.6429v11.429a2.1148 4.6429 0 0 1 -2.1148 4.6429 2.1148 4.6429 0 0 1 -2.1148 -4.6429v-11.429a2.1148 4.6429 0 0 1 2.1148 -4.6429" fill="url(#d)" filter="url(#i)" opacity=".47126"/>
   </g>
   <path d="m29.235 188.5v2.0298c1.0875 0.80934 2.4652 1.3073 3.9908 1.3073 1.5205 0 2.8976-0.50295 3.9908-1.3073v-1.789c-1.0678 0.72842-2.4084 1.1697-3.8532 1.1697-1.5881 0-3.0238-0.54187-4.1284-1.4106z" fill="url(#c)" opacity=".31837"/>
  </g>
 </g>
</svg>
