<?xml version="1.0" encoding="UTF-8"?>
<svg viewBox="0 0 433.87 514.46" xmlns="http://www.w3.org/2000/svg">
 <g transform="matrix(1.1768 0 0 1.1768 -73.46 -90.844)" fill-rule="evenodd">
  <g transform="matrix(.91828 .39593 -.39593 .91828 361.83 -56.462)">
   <path d="m168.3 524.07s-11.723 8.7586-12.127 11.454c-0.40424 2.6949-0.53897 6.6025-0.53897 6.6025s5.9289-4.1771 5.6594-6.3331c-0.2695-2.1559 16.304-6.3331 16.304-6.3331" fill="#ebdf44" stroke-width="0"/>
   <path d="m168.3 524.07s-11.723 8.7586-12.127 11.454c-0.40424 2.6949-0.53897 6.6025-0.53897 6.6025s5.9289-4.1771 5.6594-6.3331c-0.2695-2.1559 16.304-6.3331 16.304-6.3331" fill="none" stroke="#000" stroke-width="3"/>
  </g>
  <g transform="matrix(.97429 .2253 -.2253 .97429 89.356 -104.37)">
   <path d="m272.49 519.06s19.227-7.4387 24.818-7.9561c5.5911-0.5174 12.825 1.425 12.825 1.425s-10.248 1.0989-12.825 2.4937c-2.5762 1.3948-6.5311 6.5311-6.5311 6.5311" fill="#ebdf44" stroke-width="0"/>
   <path d="m272.49 519.06s19.227-7.4387 24.818-7.9561c5.5911-0.5174 12.825 1.425 12.825 1.425s-10.248 1.0989-12.825 2.4937c-2.5762 1.3948-6.5311 6.5311-6.5311 6.5311" fill="none" stroke="#000" stroke-width="3"/>
   <path d="m292.76 530.58c-2.0397-1.1656 29.974-13.026 30.174-15.087 0.19977-2.0609-46.392 3.7717-46.392 3.7717" fill="#ebdf44" stroke-width="0"/>
   <path d="m292.76 530.58c-5.1426-0.2392 24.05-12.048 30.174-15.087 6.1234-3.0388-46.274 5.1967-46.274 5.1967" fill="none" stroke="#000" stroke-width="3"/>
   <path d="m232.41 463.07c3.7717 8.2978 35.683 68.38 42.244 68.646 6.5601 0.26599 27.229 3.0571 29.042 3.3945 2.2248 0.41406 12.447 5.2805 12.447 5.2805s-7.9206-9.8065-10.561-9.8065c-2.6402 0-22.253-7.5435-23.762-9.8066-16.132-18.686-31.12-49.71-35.454-61.857" fill="#ebdf44" stroke-width="0"/>
   <path d="m232.41 463.07c3.7717 8.2978 35.683 68.38 42.244 68.646 6.5601 0.26599 27.229 3.0571 29.042 3.3945 2.2248 0.41406 12.447 5.2805 12.447 5.2805s-7.9206-9.8065-10.561-9.8065c-2.6402 0-22.253-7.5435-23.762-9.8066-16.132-18.686-31.12-49.71-35.454-61.857" fill="none" stroke="#000" stroke-width="3"/>
  </g>
  <g fill="#7f0000">
   <path d="m155.31 346.36s5.7098 37.281 21.16 40.976c15.45 3.6945 32.579 21.831 35.938 22.503 3.3587 0.67175 15.786 6.0456 17.801 6.0456 2.0152 0 42.655-23.511 42.655-23.511" stroke-width="0"/>
   <path d="m155.31 346.36s5.7098 37.281 21.16 40.976c15.45 3.6945 32.579 21.831 35.938 22.503 3.3587 0.67175 15.786 6.0456 17.801 6.0456 2.0152 0 42.655-23.511 42.655-23.511" stroke="#000" stroke-width="3"/>
   <path d="m314.14 193.74c-35.198 29.521-38.604 21.195-41.254 21.952-2.6493 0.75696-27.629 19.681-38.604 19.681-10.976 0-35.577-4.5417-49.202-1.1354s-80.615 27.25-80.615 27.25 4.5417 71.91 27.25 86.671c22.708 14.76 63.205 22.708 63.205 22.708s154.42 9.8404 174.86-34.82c20.438-44.66 16.653-80.237 16.653-80.237l-37.848-62.827" stroke-width="0"/>
   <path d="m314.14 193.74c-35.198 29.521-38.604 21.195-41.254 21.952-2.6493 0.75696-27.629 19.681-38.604 19.681-10.976 0-35.577-4.5417-49.202-1.1354s-80.615 27.25-80.615 27.25 4.5417 71.91 27.25 86.671c22.708 14.76 63.205 22.708 63.205 22.708s154.42 9.8404 174.86-34.82c20.438-44.66 16.653-80.237 16.653-80.237l-37.848-62.827" stroke="#000" stroke-width="3"/>
  </g>
  <path d="m313.19 491.52s19.227-7.4387 24.818-7.9561c5.5911-0.5174 12.825 1.425 12.825 1.425s-10.248 1.0989-12.825 2.4937c-2.5763 1.3948-6.5311 6.5311-6.5311 6.5311" fill="#ebdf44" stroke-width="0"/>
  <path d="m313.19 491.52s19.227-7.4387 24.818-7.9561c5.5911-0.5174 12.825 1.425 12.825 1.425s-10.248 1.0989-12.825 2.4937c-2.5763 1.3948-6.5311 6.5311-6.5311 6.5311" fill="none" stroke="#000" stroke-width="3"/>
  <path d="m333.46 503.05c-2.0397-1.1656 29.974-13.026 30.174-15.087 0.1998-2.0609-46.392 3.7717-46.392 3.7717" fill="#ebdf44" stroke-width="0"/>
  <path d="m333.46 503.05c-5.1426-0.2392 24.05-12.048 30.174-15.087 6.1234-3.0388-46.274 5.1967-46.274 5.1967" fill="none" stroke="#000" stroke-width="3"/>
  <path d="m273.12 435.54c3.7717 8.2978 35.683 68.38 42.244 68.646 6.5602 0.26599 27.229 3.0571 29.042 3.3945 2.2248 0.41406 12.447 5.2804 12.447 5.2804s-7.9206-9.8065-10.561-9.8065c-2.6402 0-22.253-7.5435-23.762-9.8066-16.132-18.686-31.12-49.71-35.454-61.857" fill="#ebdf44" stroke-width="0"/>
  <path d="m273.12 435.54c3.7717 8.2978 35.683 68.38 42.244 68.646 6.5602 0.26599 27.229 3.0571 29.042 3.3945 2.2248 0.41406 12.447 5.2804 12.447 5.2804s-7.9206-9.8065-10.561-9.8065c-2.6402 0-22.253-7.5435-23.762-9.8066-16.132-18.686-31.12-49.71-35.454-61.857" fill="none" stroke="#000" stroke-width="3"/>
  <path d="m182.09 388.7s26.044 19.648 27.872 20.104c1.8277 0.45691 16.449 6.3968 19.19 6.3968 2.7415 0 15.078-7.3107 15.078-7.3107l1.3708-22.846c-18.513 1.4072-18.942 14.215-63.512 3.6553z" fill-opacity=".091" stroke-width="0"/>
  <g fill="#7f0000">
   <path d="m342.93 350.33c-7.5572 32.596-7.1708 44.328-28.482 66.69-1.3894 4.1682-15.283 23.62-20.146 24.314-4.8628 0.6947-20.146 0-23.619-2.7788-3.4734-2.7788-11.81-23.619-16.673-25.704-4.8628-2.084-45.85-25.009-47.239-28.482-1.3894-3.4734-18.062-22.925-18.062-22.925" stroke-width="0"/>
   <path d="m342.93 350.33c-7.5572 32.596-7.1708 44.328-28.482 66.69-1.3894 4.1682-15.283 23.62-20.146 24.314-4.8628 0.6947-20.146 0-23.619-2.7788-3.4734-2.7788-11.81-23.619-16.673-25.704-4.8628-2.084-45.85-25.009-47.239-28.482-1.3894-3.4734-18.062-22.925-18.062-22.925" stroke="#000" stroke-width="3"/>
  </g>
  <g fill="#7f0000">
   <path d="m368.62 263.67c-0.982 51.064-14.239 72.668-41.735 77.088-27.496 4.4191-93.291 23.077-99.183 21.113s-34.861-0.982-34.861-6.874c0-5.8921 67.268-23.568 67.268-23.568s-61.866 21.113-63.83 13.748 57.447-27.005 57.447-27.005-44.19 18.167-45.172 8.3471c-0.98202-9.8201 36.825-18.167 36.825-18.167s-34.861 8.3471-33.388 1.964c1.473-6.383 24.059-9.3291 24.059-9.3291s-12.766-0.982-12.275-4.419 17.676-8.347 17.676-8.347l54.501 30.442" stroke-width="0"/>
   <path d="m368.62 263.67c-0.982 51.064-33.797 50.394-41.735 77.088-3.8692 13.011-88.579 24.79-99.183 21.113-5.8679-2.035-34.861-0.982-34.861-6.874 0-5.8921 67.268-23.568 67.268-23.568s-61.866 21.113-63.83 13.748 57.447-27.005 57.447-27.005-44.19 18.167-45.172 8.3471c-0.98202-9.8201 36.825-18.167 36.825-18.167s-34.861 8.3471-33.388 1.964c1.473-6.383 24.059-9.3291 24.059-9.3291s-12.766-0.982-12.275-4.419 33.38-11.518 33.38-11.518l38.798 33.613" stroke="#000" stroke-width="3"/>
   <g stroke="#000">
    <g stroke-width=".735">
     <path d="m261.33 311.42c-41.268 11.213-46.825 13.554-44.441 17.482 5.015 8.2628 59.448-6.0658 59.438-6.0912"/>
     <path d="m262.07 287.33c-41.269 11.213-46.825 13.554-44.441 17.482 5.0151 8.2628 59.449-6.0658 59.438-6.0913"/>
    </g>
    <path d="m282.19 335.52c-54.056 13.439-61.392 16.435-58.586 22.196 5.9023 12.12 77.171-4.9458 77.159-4.9828"/>
   </g>
  </g>
  <g fill="#7f0000">
   <g transform="matrix(.9541 0 0 1.0716 27.993 -33.389)">
    <path d="m371.41 284.08c0 31.657-36.239 66.646-53.734 66.646s-80.808-14.995-84.974-41.654c-4.1654-26.658 64.147-33.323 64.147-33.323" stroke-width="0"/>
    <path d="m371.41 284.08c0 31.657-36.239 66.646-53.734 66.646s-80.808-14.995-84.974-41.654c-4.1654-26.658 64.147-33.323 64.147-33.323" stroke="#000" stroke-width="3"/>
   </g>
   <g stroke="#000">
    <path d="m303.95 262.85l-28.052 18.51 38.285-3.5641-14.256 13.222 50.701-6.6682-26.558 23.224 32.306-6.2083-5.6335 20.005 16.211-7.3581"/>
    <path d="m269.92 274.47l-13.681 17.36 26.328-0.2299-13.336 14.486 38.285 0.3449-15.521 17.705 39.894-3.1041-10.117 15.866 24.029-1.2646"/>
   </g>
  </g>
  <g transform="matrix(1.2455 0 0 1.5557 -123.58 -191.54)">
   <path d="m424.1 238.01c10.45-2.818 7.3103-15.058 7.3103-15.058l-6.1056-5.1663-18.787 8.5714 2.1135 7.045s5.2532 5.8996 15.468 4.608z" fill="#ff1616" stroke-width="0"/>
   <path d="m424.87 238.62c10.45-2.818 6.5479-15.668 6.5479-15.668l-6.1056-5.1663-18.787 8.5714 2.1135 7.045s6.0156 6.51 16.231 5.2184z" fill="none" stroke="#000" stroke-width="3"/>
  </g>
  <g fill="#7f0000">
   <path d="m365.34 118.09c-30.221 17.601-35.224 26.463-39.873 35.762-4.6494 9.2989-13.616 39.52-19.262 45.166-5.6457 5.6458-10.295 7.9705-10.295 7.9705l16.273-5.6457-1.9926 22.583c5.7846-7.0966 8.9397-14.569 10.627-22.251l4.3173 28.893c2.0318-9.1359 5.6618-16.141 12.952-18.266l0.6642 20.59c8.6453-0.2055 14.488-4.6152 17.269-13.616l-0.6642 26.9c3.001-6.0644 6.8744-10.384 13.948-8.3026 2.6791 14.354 0.87231 21.232-1.6605 26.9l10.295-4.6494-0.9963 16.605s11.624-15.941 10.959-20.59c-0.66422-4.6494-5.3136-8.6347-3.9852-13.948 2.7739-11.096 8.9668-34.871 6.9742-41.181s-14.28-51.144-14.28-51.144l-11.27-31.776z" stroke-width="0"/>
   <path d="m364.1 117.78c-30.221 17.601-33.98 26.774-38.63 36.072-4.6494 9.2989-13.616 39.52-19.262 45.166-5.6457 5.6458-10.295 7.9705-10.295 7.9705l16.273-5.6457-1.9926 22.583c5.7846-7.0966 8.9397-14.569 10.627-22.251l4.3173 28.893c2.0318-9.1359 5.6618-16.141 12.952-18.266l0.6642 20.59c8.6453-0.2055 14.488-4.6152 17.269-13.616l-0.6642 26.9c3.001-6.0644 6.8744-10.384 13.948-8.3026 2.6791 14.354 0.87231 21.232-1.6605 26.9l10.295-4.6494-0.9963 16.605s11.624-15.941 10.959-20.59c-0.66422-4.6494-5.3136-8.6347-3.9852-13.948 2.7739-11.096 8.9668-34.871 6.9742-41.181s-14.28-51.144-14.28-51.144l-12.514-32.087z" stroke="#000" stroke-width="3"/>
  </g>
  <path d="m402.61 122.92c-5.4806-10.729-30.226-9.1292-38.894-5.1454-8.8506 4.0676-14.831 20.43-14.831 20.43l12.712-8.4749-11.199 18.614 11.35-8.0209-10.442 26.181 11.199-13.469-3.6321 16.193 4.6915-7.4155-0.6053 17.252 8.1722-13.166 2.4214 24.214 2.7241-9.9883 4.6914 16.647 1.9674-15.739 6.9615 16.193s-1.7695-18.183-3.6321-21.49c-5.0318-8.9339 14.454-24.983 18.134-21.43l13.164-13.717-14.954-17.67z" fill="#cecea2" stroke-width="0"/>
  <path d="m402.61 122.92c-5.4806-10.729-30.226-9.1292-38.894-5.1454-8.8506 4.0676-14.831 20.43-14.831 20.43l12.712-8.4749-11.199 18.614 11.35-8.0209-10.442 26.181 11.199-13.469-3.6321 16.193 4.6915-7.4155-0.6053 17.252 8.1722-13.166 2.4214 24.214 2.7241-9.9883 4.6914 16.647 1.9674-15.739 6.9615 16.193s-3.9348-17.706-3.6321-21.49c0.30267-3.7834 0.27246-10.972 5.6882-16.381 2.1374-2.1346 11.945-5.7662 19.274-6.818 9.4212-1.352 9.5061-9.4821 9.5061-9.4821l-18.124-20.136z" fill="#7f0000" stroke="#000" stroke-width="3"/>
  <path d="m384.74 128.69c-3.1355 0-12.346 3.1355-12.346 9.6024 0 6.467 8.4266 17.049 9.9944 17.049s3.9194-1.3718 6.075-1.3718 3.9194 4.3113 3.9194 4.3113l9.7984-4.8992-1.9597-10.778 5.8791-5.4871s-10.582-8.6226-21.36-8.4266z" fill="#ff1616" stroke-width="0"/>
  <path d="m384.74 128.69c-3.1355 0-12.346 3.1355-12.346 9.6024 0 6.467 8.4266 17.049 9.9944 17.049s3.9194-1.3718 6.075-1.3718 3.9194 4.3113 3.9194 4.3113l9.7984-4.8992-1.9597-10.778 5.8791-5.4871s-10.582-8.6226-21.36-8.4266z" fill="none" stroke="#000" stroke-width="2"/>
  <path d="m412.52 135.24c14.164 10.701 21.732 21.818 14.87 22.14-5.7812 0.27048-5.9927-2.7823-7.2768-2.7823s-14.018-0.64209-14.018-0.64209l-1.8088-10.258" fill="#ffeb04" stroke-width="0"/>
  <path d="m404.29 144.05c4.8704-3.4078 4.6903-10.276 7.6538-8.633 15.169 8.4097 21.362 22.274 15.443 21.965-5.7797-0.30151-5.9927-2.7823-7.2768-2.7823s-14.018-0.64209-14.018-0.64209l-1.8014-9.9075z" fill="none" stroke="#000" stroke-width="3"/>
  <path d="m425.46 156.74c-6.5277-4.4945-11.022-12.199-12.734-11.129-1.7122 1.0701-5.9926 7.8119-5.9926 7.8119" fill-opacity=".091" stroke-width="0"/>
  <path d="m378.25 113.34c-3.1116-5.663-9.3641-24.287-7.4365-24.857 5.8406 4.4829 6.8424 7.7254 11.805 10.012 0 0 1.5037-13.941 2.7772-15.548 2.8253 1.928 8.0138 17.805 8.0138 17.805s8.8124-19.124 11.324-22.055c2.8565 2.759-0.21222 29.347-0.21222 29.347s8.2237-15.535 11.62-16.828c1.7578 3.7074 1.0789 17.991 1.0789 17.991 5.399-7.8339 3.7001-1.6225 5.793-2.985 3.856 9.342 3.1981 26.252-7.1425 30.325-8.7781 1.8249-35.859-14.988-37.62-23.208z" fill="#ff1616" stroke-width="0"/>
  <path d="m378.25 113.34c-3.1116-5.663-9.3641-24.287-7.4365-24.857 5.8406 4.4829 6.8424 7.7254 11.805 10.012 0 0 1.5037-13.941 2.7772-15.548 2.8253 1.928 8.0138 17.805 8.0138 17.805s8.8124-19.124 11.324-22.055c2.8565 2.759-0.21222 29.347-0.21222 29.347s8.2237-15.535 11.62-16.828c1.7578 3.7074 1.0789 17.991 1.0789 17.991 5.399-7.8339 3.7001-1.6225 5.793-2.985 3.856 9.342 3.1981 26.252-7.1425 30.325-8.7781 1.8249-35.859-14.988-37.62-23.208z" fill="none" stroke="#000" stroke-width="3"/>
  <g stroke-width="0">
   <path d="m393.45 138.83c0 3.5666-3.049 6.4579-6.8101 6.4579s-6.8101-2.8913-6.8101-6.4579 3.049-6.4579 6.8101-6.4579c3.7612 0 6.8101 2.8913 6.8101 6.4579z"/>
   <path d="m392.63 138.78c0 3.1746-2.7139 5.7482-6.0617 5.7482s-6.0618-2.5736-6.0618-5.7482c0-3.1747 2.714-5.7482 6.0618-5.7482s6.0617 2.5736 6.0617 5.7482z" fill="#ffba24"/>
   <path d="m391.12 138.68c0 2.2851-2.0189 4.1376-4.5094 4.1376-2.4904 0-4.5094-1.8525-4.5094-4.1376s2.0189-4.1376 4.5094-4.1376 4.5094 1.8524 4.5094 4.1376z"/>
  </g>
  <path d="m384.21 134.11c0.96185 4.6383 4.2073 4.6098 8.1965 3.566-4.523-0.27176-5.796-0.55844-8.1965-3.566z" fill="#fff" stroke-width="3"/>
  <path d="m428.05 157.03s-6.3743-6.0971-11.467-7.76c-5.0925-1.6628-11.778-4.9885-11.778-4.9885" fill="none" stroke="#000"/>
  <g fill="#7f0000">
   <path d="m114.13 281.62c-38.051-11.476-51.339-4.2279-50.131-1.208s50.131 11.476 50.131 11.476-42.883-7.2478-42.883 3.6239 58.586 4.8318 58.586 4.8318-44.091 9.0598-37.447 19.932c6.6438 10.872 62.21-14.496 62.21-14.496" stroke-width="0"/>
   <path d="m114.13 281.62c-38.051-11.476-51.339-4.2279-50.131-1.208s50.131 11.476 50.131 11.476-42.883-7.2478-42.883 3.6239 58.586 4.8318 58.586 4.8318-44.091 9.0598-37.447 19.932c6.6438 10.872 62.21-14.496 62.21-14.496" stroke="#000" stroke-width="3"/>
   <path d="m131.16 286.72c-53.342 16.041-60.524 19.389-57.443 25.008 6.4823 11.82 76.841-8.6772 76.827-8.7136" stroke="#000"/>
  </g>
  <path d="m180.89 243.94c-42.445-1.9051-59.461-117.2-82.111-108.37-12.623 3.8292 48.436 102.62 48.436 102.62s-44.029-86.306-56.054-82.87c-17.056 4.8731 36.965 94.06 36.965 94.06s-44.597-85.528-53.212-80.306c-8.6152 5.2218 32.806 85.572 32.806 85.572 0.00325-0.002167-32.651-61.079-40.621-52.187-7.9699 8.8926 36.013 69.301 36.013 69.301s-34.568-43.773-38.384-35.544c-3.9512 8.5202 28.51 48.709 28.51 48.709s29.621 30.938 67.141 24.355l37.52-6.5825" fill="#cecea2" stroke-width="0"/>
  <path d="m180.89 243.94c-42.445-1.9051-59.461-117.2-82.111-108.37-12.623 3.8292 48.436 102.62 48.436 102.62s-44.029-86.306-56.054-82.87c-17.056 4.8731 36.965 94.06 36.965 94.06s-44.597-85.528-53.212-80.306c-8.6152 5.2218 32.806 85.572 32.806 85.572 0.00325-0.002167-32.985-61.229-40.954-52.337-7.9699 8.8926 36.347 69.451 36.347 69.451s-34.568-43.773-38.384-35.544c-3.9512 8.5202 28.51 48.709 28.51 48.709s29.621 30.938 67.141 24.355l37.52-6.5825" fill="#7f0000" stroke="#000" stroke-width="3"/>
  <path d="m210.48 278.62s-60.614 11.546-63.02 6.735c-2.4053-4.8107 24.534-6.735 24.534-6.735s-33.894 5.6239-35.118 0.96216c-1.23-4.6842 32.713-8.6592 32.713-8.6592s-35.623-0.10455-35.599-6.7349c0.023773-6.6304 25.497-4.3296 25.497-4.3296s-29.917-2.4499-30.307-11.064c-0.3865-8.5251 29.826 3.8485 29.826 3.8485s-31.74-14.538-27.492-20.45c4.5667-6.3554 33.264 15.639 33.264 15.639s-30.394-20.82-24.534-26.459c5.8105-5.5912 12.989 5.7728 17.8 10.584 4.8107 4.8107 20.969 3.5702 26.735 3.738 5.4821 0.15952 32.757 12.92 32.757 12.92" fill="#cecea2" stroke-width="0"/>
  <g transform="matrix(.96272 .2705 -.2705 .96272 190.77 -67.443)">
   <path d="m187.94 502.95s-11.723 8.7586-12.127 11.454c-0.40424 2.6949-0.53897 6.6025-0.53897 6.6025s5.9289-4.1771 5.6594-6.3331c-0.2695-2.1559 16.304-6.3331 16.304-6.3331" fill="#ebdf44" stroke-width="0"/>
   <path d="m187.94 502.95s-11.723 8.7586-12.127 11.454c-0.40424 2.6949-0.53897 6.6025-0.53897 6.6025s5.9289-4.1771 5.6594-6.3331c-0.2695-2.1559 16.304-6.3331 16.304-6.3331" fill="none" stroke="#000" stroke-width="3"/>
  </g>
  <g fill="#7f0000" stroke="#000">
   <path d="m118.53 244.61c-35.365-43.035-41.223-48.371-45.22-43.362-8.4073 10.538 37.63 67.556 37.658 67.529"/>
   <path d="m134.56 241.94c-28.711-47.732-33.728-53.866-38.412-49.493-9.8542 9.1992 27.375 72.322 27.407 72.299"/>
   <path d="m210.48 278.62s-60.614 11.546-63.02 6.735c-2.4053-4.8107 24.534-6.735 24.534-6.735s-33.894 5.6239-35.118 0.96216c-1.23-4.6842 32.713-8.6592 32.713-8.6592s-35.623-0.10455-35.599-6.7349c0.023773-6.6304 25.497-4.3296 25.497-4.3296s-29.917-2.4499-30.307-11.064c-0.3865-8.5251 29.826 3.8485 29.826 3.8485s-31.74-14.538-27.492-20.45c4.5667-6.3554 33.264 15.639 33.264 15.639s-30.394-20.82-24.534-26.459c5.8105-5.5912 12.989 5.7728 17.8 10.584 4.8107 4.8107 20.969 3.5702 26.735 3.738 5.4821 0.15952 32.757 12.92 32.757 12.92" stroke-width="3"/>
  </g>
  <g fill-opacity=".091" stroke-width="0">
   <path d="m340.18 364.02s-5.483 30.157-9.5952 34.269c-4.1123 4.1122-15.078 17.363-15.078 17.363s-17.363 25.587-20.104 26.044c-2.7415 0.45691-24.217-2.7415-24.217-2.7415l24.674-21.018 14.164-45.692c18.042-16.873 22.915-5.4134 30.156-8.2246z"/>
   <path d="m319.35 496.94l12.509 1.8491-8.7017-4.6772-23.168-33.719-8.1578-19.035-7.2877-0.2176c13.076 26.471 23.624 44.542 34.807 55.8z"/>
   <path d="m241.47 467.79l5.7649 0.1088-11.312-27.41-4.3509-15.663-1.6316-8.9192-5.7649-1.8491c1.3966 19.502 8.668 36.471 17.295 53.733z"/>
   <path d="m390.5 161.59s-16.905 14.989-21.375 21.375c-4.4704 6.3863-0.64777 23.938-5.4375 34.156s11.812 39.935 11.812 41.531c0 1.1112-2.3071 11.748-4 19.469-5.419 2.9155-10.659 5.8529-13.219 8.375-4.3294 4.2655-12.908 18.153-26.406 28.469-13.498 10.315-47.563 28.238-65.938 34.531-18.375 6.2932-54.188 9.7188-54.188 9.7188l19.438 2.9375s28.227-3.621 51.031-4.75c40.103-10.662 42.43-17.992 51-15.125 45.384-23.934 53.151-64.252 53.151-64.252l1.5677-20.341s-5.4023-12.115-4.125-14.031c1.2772-1.9159 7.9688-33.861 7.9688-41.844 0-7.9828-4.1386-14.686-5.4159-20.434l4.1346-19.785z"/>
   <path d="m190.29 356.04l-1.2773 7.0249 7.6635 7.3442s-58.434-13.411-67.375-23.629c-8.9408-10.218-13.73-25.864-13.73-25.864l13.411-4.7897c14.202 17.05 33.825 32.012 61.308 39.914z"/>
  </g>
 </g>
</svg>
