<?xml version="1.0" encoding="UTF-8"?>
<svg enable-background="new -0.258 -0.548 123.547 123.539" viewBox="-0.258 -0.548 123.547 123.539" xmlns="http://www.w3.org/2000/svg">
 <path d="m109.09 123.36c8.156 0 14.758-6.586 14.758-14.742v-94.023c0-8.156-6.602-14.758-14.758-14.758h-94.016c-8.156 0-14.758 6.602-14.758 14.758v94.023c0 8.156 6.602 14.742 14.758 14.742h94.016z" fill="#231f20"/>
 <path d="m15.07 2.34c-6.758 0-12.258 5.5-12.258 12.258v94.023c0 6.758 5.5 12.25 12.258 12.25h94.016c6.766 0 12.258-5.492 12.258-12.25v-94.023c0-6.758-5.492-12.258-12.258-12.258h-94.016z" fill="#fff"/>
 <path d="m56.711 43.301c0 3.258-2.969 6.734-6.812 6.734v55.031c0 7.805-10.656 7.805-10.656 0v-55.031c-3.75 0-7.008-2.891-7.008-7.227v-30.273c0-2.633 3.805-2.742 3.805 0.102v22.383h6.86-0.281v-22.555c0-2.531 3.57-2.625 3.57 0.094v22.461h6.811v-22.555c0-2.492 3.711-2.586 3.711 0.094v30.742z" fill="#231f20"/>
 <path d="m90.094 19.582v85.445c0 7.641-10.672 7.531-10.672 0v-33.882h-5.688v-51.563c0-11.992 16.36-11.992 16.36 0z" fill="#231f20"/>
</svg>
