<svg width="16" height="16" fill="currentColor" version="1.1" viewBox="0 0 16 16" xmlns="http://www.w3.org/2000/svg">
 <path d="m6.043 12.504a0.35772 0.35772 0 0 1 0.35772-0.35772h6.439a0.35772 0.35772 0 0 1 0 0.71545h-6.439a0.35772 0.35772 0 0 1-0.35772-0.35772zm0-2.8618a0.35772 0.35772 0 0 1 0.35772-0.35772h6.439a0.35772 0.35772 0 0 1 0 0.71545h-6.439a0.35772 0.35772 0 0 1-0.35772-0.35772zm0-2.8618a0.35772 0.35772 0 0 1 0.35772-0.35772h6.439a0.35772 0.35772 0 0 1 0 0.71545h-6.439a0.35772 0.35772 0 0 1-0.35772-0.35772zm-2.1463 0.71545a0.71545 0.71545 0 1 0 0-1.4309 0.71545 0.71545 0 0 0 0 1.4309zm0 2.8618a0.71545 0.71545 0 1 0 0-1.4309 0.71545 0.71545 0 0 0 0 1.4309zm0 2.8618a0.71545 0.71545 0 1 0 0-1.4309 0.71545 0.71545 0 0 0 0 1.4309z" fill-rule="evenodd" stroke-width=".71545"/>
 <g>
  <path d="m7.6703 15.161c-0.54315 0.03188-1.0372 0.23071-1.7977 0.11985-1.3156-0.25283-1.5469 0.039703-3.2599-1.4622-1.0282-1.7974-1.3473-1.7031-1.4142-3.5955 0.039906-2.3844 0.26828-2.8763 1.0786-4.1947 0.82877-1.009 1.9577-2.0327 2.9483-2.5408 1.884-0.5232 3.5003-0.35324 5.1056 0.023969 1.2992 0.37639 1.6351 0.25297 2.9962 1.1745 0.6479 0.6208 0.73679 0.86106 1.2944 2.3251 0.23665 1.4926 0.47104 3.2458 0.04794 4.6501-0.48756 1.107-0.68448 1.8297-1.606 2.8764-0.55088 0.6427-0.93248 0.82652-2.0135 0.71909-0.44802-0.044526-2.0854-0.14382-2.0854-0.14382z" fill="none" stroke="#000" stroke-width="1px"/>
  <path d="m8.0299 3.2481v-2.7325" fill="none" stroke="#000" stroke-width="1px"/>
  <ellipse transform="rotate(-13.322)" cx="10.274" cy="3.8394" rx="2.4427" ry=".62871" fill="#fff" stroke="#000003" stroke-width=".85998"/>
 </g>
</svg>
