<svg class="bi bi-egg" width="16" height="16" fill="currentColor" version="1.1" viewBox="0 0 16 16" xmlns="http://www.w3.org/2000/svg" >
 <g>
  <path d="m4.5205 7.3328a2.068 2.0787 0 0 1-2.068-2.0787c0-0.81318 0.28539-1.7819 0.7205-2.5443 0.21673-0.37957 0.45993-0.68929 0.70478-0.89966 0.24733-0.21203 0.46572-0.29767 0.64274-0.29767s0.3954 0.085642 0.64274 0.29767c0.24485 0.21036 0.48805 0.52009 0.70478 0.89966 0.43511 0.76246 0.7205 1.7311 0.7205 2.5443a2.068 2.0787 0 0 1-2.068 2.0787zm0 0.41574a2.4816 2.4944 0 0 0 2.4816-2.4944c0-1.7935-1.2408-4.1574-2.4816-4.1574-1.2408 0-2.4816 2.3639-2.4816 4.1574a2.4816 2.4944 0 0 0 2.4816 2.4944z" stroke-width=".41467"/>
  <g transform="matrix(.78671 0 0 .78671 -5.4884 3.4859)" fill="none" stroke="#000" stroke-width=".5">
   <path d="m8.7489 9.1926v4.8898h5.2973v-4.8659z"/>
   <path d="m8.6557 9.1545 2.397-1.9415h4.8659l-1.9655 1.9655"/>
   <path d="m16.262 6.9587 0.0085 5.0159-2.1752 2.1906"/>
  </g>
  <g fill="#fff" stroke="#000003">
   <path d="m4.262 7.309c-0.43318-0.059608-0.83674-0.25363-1.1512-0.55344-0.31242-0.2979-0.51038-0.65036-0.61083-1.0875-0.040522-0.17636-0.040255-0.70235 4.921e-4 -0.97064 0.16055-1.0571 0.63296-2.1096 1.2204-2.719 0.24454-0.25368 0.46725-0.39789 0.68343-0.44254 0.80561-0.1664 1.9343 1.5416 2.1453 3.2464 0.034248 0.27671 0.033752 0.61731-0.0012003 0.82149-0.14392 0.84085-0.78706 1.5038-1.6312 1.6813-0.15699 0.033023-0.49843 0.045467-0.65528 0.023893z" stroke-width=".0085387"/>
   <g stroke-width=".0094286">
    <path d="m1.6036 12.64v-1.716h0.60032c0.33018 0 1.1745 0.0057 1.8763 0.01252l1.276 0.01252v3.407h-3.7526z"/>
    <path d="m2.3408 10.51-0.4602-0.0099 1.4097-1.1409h3.2631l-0.58435 0.58455-0.58435 0.58458-1.2918-0.004223c-0.71051-0.0023-1.4989-0.0087-1.752-0.01414z"/>
    <path d="m5.771 12.433v-1.7254l1.3143-1.3139 0.012098 0.10078c0.00673 0.055433 0.012178 0.82636 0.012269 1.7132l1.643e-4 1.6124-1.3389 1.3385z"/>
   </g>
  </g>
  <path d="m8.3175 4.6863h6.8314" fill="none" stroke="#000" stroke-width="2"/>
  <path d="m8.3894 11.302h6.6396" fill="none" stroke="#000" stroke-width="2"/>
 </g>
</svg>
