<?xml version="1.0" encoding="UTF-8"?>
<svg viewBox="0 0 130 190" xmlns="http://www.w3.org/2000/svg">
 <defs>
  <linearGradient id="a" x1="-.35169" x2=".33185" y1=".59356" y2=".66775" spreadMethod="reflect">
   <stop stop-color="#999" offset="0"/>
   <stop stop-color="#fff" offset=".9"/>
   <stop stop-color="#fff" offset="1"/>
  </linearGradient>
 </defs>
 <g fill-opacity=".164" fill-rule="evenodd" stroke="#000" stroke-linecap="round" stroke-linejoin="round" stroke-width="1.867">
  <path d="m65.913 23.177c-31.355 0-56.921 11.212-57.948 25.192h-0.031158v110.49c0 14.384 25.973 26.049 57.98 26.049s57.98-11.665 57.98-26.049v-110.49h-0.031128c-1.0272-13.98-26.593-25.192-57.948-25.192z" fill="#999"/>
  <path d="m123.89 157.69c-9.0544-14.987-36.697-15.862-57.98-16.846-31.355 0-56.921 7.2883-57.948 16.376" fill="none" stroke-opacity=".246"/>
 </g>
 <path d="m64.913 23.177c-31.355 0-56.921 11.212-57.948 25.192h-0.031158v110.49c0 14.384 25.973 26.049 57.98 26.049s57.98-11.665 57.98-26.049v-110.49h-0.031128c-1.0272-13.98-26.593-25.192-57.948-25.192z" fill="url(#a)" fill-rule="evenodd" opacity=".434" stroke="#000" stroke-linecap="round" stroke-linejoin="round" stroke-width="1.867"/>
 <g fill="#118cdd" stroke="#000" stroke-width="1.757">
  <path d="m118.3 22.352c-40.848-2.2901-60.268-4.0445-106.39 0v9.7347c-0.001526 0.060822 0 0.12012 0 0.18109 0 10.752 23.831 19.47 53.194 19.47s53.194-8.7173 53.194-19.47c0-0.060974 0.001556-0.12027 0-0.18109v-9.7347z"/>
  <path d="m118.29 22.357c0 10.752-23.831 19.479-53.194 19.479s-53.194-8.7265-53.194-19.479 23.831-19.479 53.194-19.479 53.194 8.7265 53.194 19.479z"/>
 </g>
</svg>
