<?xml version="1.0" encoding="UTF-8" standalone="no"?>
<svg
   xmlns:dc="http://purl.org/dc/elements/1.1/"
   xmlns:cc="http://creativecommons.org/ns#"
   xmlns:rdf="http://www.w3.org/1999/02/22-rdf-syntax-ns#"
   xmlns:svg="http://www.w3.org/2000/svg"
   xmlns="http://www.w3.org/2000/svg"
   xmlns:sodipodi="http://sodipodi.sourceforge.net/DTD/sodipodi-0.dtd"
   xmlns:inkscape="http://www.inkscape.org/namespaces/inkscape"
   viewBox="0 0 190 190"
   version="1.1"
   id="svg25"
   sodipodi:docname="logo_001.svg"
   inkscape:version="0.92.5 (2060ec1f9f, 2020-04-08)"
   width="190"
   height="190">
  <metadata
     id="metadata29">
    <rdf:RDF>
      <cc:Work
         rdf:about="">
        <dc:format>image/svg+xml</dc:format>
        <dc:type
           rdf:resource="http://purl.org/dc/dcmitype/StillImage" />
        <dc:title></dc:title>
      </cc:Work>
    </rdf:RDF>
  </metadata>
  <sodipodi:namedview
     pagecolor="#ffffff"
     bordercolor="#666666"
     borderopacity="1"
     objecttolerance="10"
     gridtolerance="10"
     guidetolerance="10"
     inkscape:pageopacity="0"
     inkscape:pageshadow="2"
     inkscape:window-width="1920"
     inkscape:window-height="960"
     id="namedview27"
     showgrid="false"
     inkscape:zoom="1.7566021"
     inkscape:cx="138.41266"
     inkscape:cy="54.052149"
     inkscape:window-x="0"
     inkscape:window-y="27"
     inkscape:window-maximized="1"
     inkscape:current-layer="layer1" />
  <defs
     id="defs9">
    <linearGradient
       id="a"
       x1="-41.757901"
       x2="53.14409"
       y1="101.28641"
       y2="111.58688"
       spreadMethod="reflect"
       gradientTransform="matrix(0.84865937,0,0,1.1783291,28.983051,1.6101695)"
       gradientUnits="userSpaceOnUse">
      <stop
         stop-color="#999"
         offset="0"
         id="stop2" />
      <stop
         stop-color="#fff"
         offset=".9"
         id="stop4" />
      <stop
         stop-color="#fff"
         offset="1"
         id="stop6" />
    </linearGradient>
  </defs>
  <text
     xml:space="preserve"
     style="font-style:normal;font-weight:normal;font-size:40px;line-height:1.25;font-family:sans-serif;letter-spacing:0px;word-spacing:0px;fill:#000000;fill-opacity:1;stroke:none"
     x="-28.983051"
     y="108.2839"
     id="text865"><tspan
       sodipodi:role="line"
       id="tspan863"
       x="-28.983051"
       y="143.67453" /></text>
  <g
     id="g15"
     style="fill-opacity:0.16400003;fill-rule:evenodd;stroke:#000000;stroke-width:1.86699998;stroke-linecap:round;stroke-linejoin:round"
     transform="translate(28.983051,1.6101695)">
    <path
       d="M 65.913,23.177 C 34.558,23.177 8.992,34.389 7.965,48.369 H 7.933842 v 110.49 c 0,14.384 25.973,26.049 57.98,26.049 32.007,0 57.979998,-11.665 57.979998,-26.049 V 48.369 h -0.0311 C 122.83551,34.389 97.269714,23.177 65.914714,23.177 Z"
       id="path11"
       inkscape:connector-curvature="0"
       style="fill:#999999" />
    <path
       d="m 123.89,157.69 c -9.0544,-14.987 -36.697,-15.862 -57.98,-16.846 -31.355,0 -56.921,7.2883 -57.948,16.376"
       id="path13"
       inkscape:connector-curvature="0"
       style="fill:none;stroke-opacity:0.24600004" />
  </g>
  <path
     d="m 93.896051,24.787169 c -31.355,0 -56.921,11.212 -57.948,25.192 h -0.03116 V 160.46917 c 0,14.384 25.973,26.049 57.98,26.049 32.006997,0 57.979997,-11.665 57.979997,-26.049 V 49.979169 h -0.0311 c -1.02723,-13.98 -26.59303,-25.192 -57.948025,-25.192 z"
     id="path17"
     inkscape:connector-curvature="0"
     style="opacity:0.43399999;fill:url(#a);fill-rule:evenodd;stroke:#000000;stroke-width:1.86699998;stroke-linecap:round;stroke-linejoin:round" />
  <g
     id="g23"
     style="fill:#118cdd;stroke:#000000;stroke-width:1.75699997"
     transform="translate(28.983051,1.6101695)">
    <path
       d="m 118.3,22.352 c -40.848,-2.2901 -60.268,-4.0445 -106.39,0 v 9.7347 c -0.0015,0.06082 0,0.12012 0,0.18109 0,10.752 23.831,19.47 53.194,19.47 29.363,0 53.194,-8.7173 53.194,-19.47 0,-0.06097 0.002,-0.12027 0,-0.18109 V 22.352 Z"
       id="path19"
       inkscape:connector-curvature="0" />
    <path
       d="m 118.29,22.357 c 0,10.752 -23.831,19.479 -53.194,19.479 -29.363,0 -53.194,-8.7265 -53.194,-19.479 0,-10.7525 23.831,-19.479 53.194,-19.479 29.363,0 53.194,8.7265 53.194,19.479 z"
       id="path21"
       inkscape:connector-curvature="0" />
  </g>
  <flowRoot
     xml:space="preserve"
     id="flowRoot855"
     style="font-style:normal;font-weight:normal;font-size:40px;line-height:1.25;font-family:sans-serif;letter-spacing:0px;word-spacing:0px;fill:#000000;fill-opacity:1;stroke:none"><flowRegion
       id="flowRegion857"><rect
         id="rect859"
         width="135.85805"
         height="111.10169"
         x="22.944916"
         y="54.947033" /></flowRegion><flowPara
       id="flowPara861" /></flowRoot>  <g
     inkscape:groupmode="layer"
     id="layer1"
     inkscape:label="Layer 1">
    <text
       xml:space="preserve"
       style="font-style:normal;font-variant:normal;font-weight:normal;font-stretch:normal;font-size:39.9848938px;line-height:1.25;font-family:rsfs10;-inkscape-font-specification:rsfs10;letter-spacing:0px;word-spacing:0px;fill:#000000;fill-opacity:1;stroke:none;stroke-width:0.99962246"
       x="58.106056"
       y="125.93246"
       id="text870"
       transform="scale(0.81361747,1.2290788)"><tspan
         sodipodi:role="line"
         id="tspan868"
         x="58.106056"
         y="125.93246"
         style="font-style:normal;font-variant:normal;font-weight:normal;font-stretch:normal;font-size:95.96376038px;font-family:rsfs10;-inkscape-font-specification:rsfs10;stroke-width:0.99962246">H</tspan></text>
  </g>
</svg>
