<?xml version="1.0" encoding="UTF-8" standalone="no"?>
<svg
   xmlns:dc="http://purl.org/dc/elements/1.1/"
   xmlns:cc="http://creativecommons.org/ns#"
   xmlns:rdf="http://www.w3.org/1999/02/22-rdf-syntax-ns#"
   xmlns:svg="http://www.w3.org/2000/svg"
   xmlns="http://www.w3.org/2000/svg"
   xmlns:sodipodi="http://sodipodi.sourceforge.net/DTD/sodipodi-0.dtd"
   xmlns:inkscape="http://www.inkscape.org/namespaces/inkscape"
   version="1.1"
   x="0px"
   y="0px"
   viewBox="0 0 550.00001 550.00001"
   id="svg786"
   sodipodi:docname="gluten-free.svg"
   width="550"
   height="550"
   inkscape:version="0.92.5 (2060ec1f9f, 2020-04-08)">
  <metadata
     id="metadata792">
    <rdf:RDF>
      <cc:Work
         rdf:about="">
        <dc:format>image/svg+xml</dc:format>
        <dc:type
           rdf:resource="http://purl.org/dc/dcmitype/StillImage" />
        <dc:title></dc:title>
      </cc:Work>
    </rdf:RDF>
  </metadata>
  <defs
     id="defs790" />
  <sodipodi:namedview
     pagecolor="#ffffff"
     bordercolor="#666666"
     borderopacity="1"
     objecttolerance="10"
     gridtolerance="10"
     guidetolerance="10"
     inkscape:pageopacity="0"
     inkscape:pageshadow="2"
     inkscape:window-width="1920"
     inkscape:window-height="960"
     id="namedview788"
     showgrid="false"
     fit-margin-top="0"
     fit-margin-left="0"
     fit-margin-right="0"
     fit-margin-bottom="0"
     inkscape:zoom="0.70710678"
     inkscape:cx="261.69019"
     inkscape:cy="99.172564"
     inkscape:window-x="0"
     inkscape:window-y="27"
     inkscape:window-maximized="1"
     inkscape:current-layer="svg786" />
  <style
     type="text/css"
     id="style421"> .st0{display:none;} .st1{display:inline;} .st2{fill:#010101;} </style>
  <g
     id="Layer_1"
     class="st0"
     style="display:none"
     transform="translate(0.00390625,-0.39251709)">
    <g
       class="st1"
       id="g503"
       style="display:inline">
      <g
         id="g435">
        <path
           d="m -479.5,600.5 v -15.7 h 36.8 V 617 c -7,4.7 -13.3,7.9 -18.7,9.6 -5.4,1.7 -11.8,2.5 -19.3,2.5 -9.2,0 -16.6,-1.5 -22.4,-4.6 -5.8,-3.1 -10.2,-7.6 -13.4,-13.6 -3.2,-6 -4.8,-13 -4.8,-20.8 0,-8.2 1.7,-15.4 5.2,-21.5 3.5,-6.1 8.6,-10.7 15.3,-13.9 5.2,-2.4 12.3,-3.7 21.1,-3.7 8.5,0 14.9,0.8 19.1,2.3 4.2,1.5 7.7,3.9 10.5,7 2.8,3.2 4.9,7.2 6.3,12.1 l -23,4 c -0.9,-2.8 -2.6,-5 -4.8,-6.5 -2.3,-1.5 -5.1,-2.3 -8.7,-2.3 -5.2,0 -9.4,1.8 -12.5,5.3 -3.1,3.6 -4.7,9.2 -4.7,16.9 0,8.2 1.6,14 4.7,17.5 3.1,3.5 7.5,5.3 13.1,5.3 2.7,0 5.2,-0.4 7.6,-1.1 2.4,-0.8 5.2,-2 8.3,-3.9 v -7.1 z"
           id="path423"
           inkscape:connector-curvature="0" />
        <path
           d="m -428.5,552.3 h 23.8 v 56.9 h 37.2 v 18.6 h -61 z"
           id="path425"
           inkscape:connector-curvature="0" />
        <path
           d="m -309.2,552.3 h 23.8 v 45 c 0,4.5 -0.7,8.7 -2.1,12.6 -1.4,4 -3.6,7.4 -6.7,10.4 -3,3 -6.2,5.1 -9.5,6.3 -4.6,1.7 -10.2,2.5 -16.7,2.5 -3.8,0 -7.8,-0.3 -12.3,-0.8 -4.4,-0.5 -8.1,-1.5 -11.1,-3.1 -3,-1.5 -5.7,-3.7 -8.2,-6.5 -2.5,-2.8 -4.2,-5.7 -5.1,-8.7 -1.5,-4.8 -2.2,-9.1 -2.2,-12.8 v -45 h 23.8 v 46 c 0,4.1 1.2,7.3 3.5,9.6 2.3,2.3 5.6,3.5 9.7,3.5 4.1,0 7.3,-1.1 9.7,-3.4 2.3,-2.3 3.5,-5.5 3.5,-9.7 v -45.9 z"
           id="path427"
           inkscape:connector-curvature="0" />
        <path
           d="m -275,552.3 h 72.4 V 571 h -24.3 v 56.8 h -23.8 V 571 H -275 Z"
           id="path429"
           inkscape:connector-curvature="0" />
        <path
           d="m -191.9,552.3 h 63.8 v 16.1 h -40 v 12 h 37.1 v 15.4 h -37 v 14.9 h 41.1 v 17.1 h -65 z"
           id="path431"
           inkscape:connector-curvature="0" />
        <path
           d="m -113.9,552.3 h 22.2 l 29,41.8 v -41.8 h 22.5 v 75.5 h -22.5 l -28.9,-41.4 v 41.4 H -114 v -75.5 z"
           id="path433"
           inkscape:connector-curvature="0" />
      </g>
      <g
         id="g445">
        <path
           d="m -426.8,678.9 h 58.9 v 16.2 h -35 v 13.2 h 29.9 v 15.2 h -29.9 v 30.8 h -23.9 z"
           id="path437"
           inkscape:connector-curvature="0" />
        <path
           d="m -354.8,754.4 v -75.5 h 39.7 c 7.4,0 13,0.6 16.9,1.9 3.9,1.2 7,3.5 9.4,6.9 2.4,3.3 3.6,7.4 3.6,12.2 0,4.2 -0.9,7.8 -2.7,10.8 -1.8,3 -4.3,5.5 -7.5,7.4 -2,1.2 -4.8,2.2 -8.4,3 2.8,0.9 4.9,1.9 6.2,2.8 0.9,0.6 2.1,1.9 3.8,4 1.7,2 2.8,3.6 3.3,4.7 l 11.5,21.9 h -26.9 l -12.7,-23.1 c -1.6,-3 -3.1,-4.9 -4.3,-5.8 -1.7,-1.2 -3.7,-1.8 -5.8,-1.8 h -2.1 v 30.6 z m 24,-44.9 h 10 c 1.1,0 3.2,-0.3 6.3,-1 1.6,-0.3 2.9,-1.1 3.9,-2.4 1,-1.3 1.5,-2.7 1.5,-4.4 0,-2.4 -0.8,-4.3 -2.4,-5.6 -1.6,-1.3 -4.5,-2 -8.9,-2 h -10.5 v 15.4 z"
           id="path439"
           inkscape:connector-curvature="0" />
        <path
           d="m -271.3,678.9 h 63.8 V 695 h -40 v 12 h 37.1 v 15.4 h -37.1 v 14.9 h 41.1 v 17.1 h -65 v -75.5 z"
           id="path441"
           inkscape:connector-curvature="0" />
        <path
           d="m -193.6,678.9 h 63.8 V 695 h -40 v 12 h 37.1 v 15.4 h -37.1 v 14.9 h 41.1 v 17.1 h -65 v -75.5 z"
           id="path443"
           inkscape:connector-curvature="0" />
      </g>
      <g
         id="g449">
        <path
           d="m -286.2,14.5 c -69.3,0 -134.5,26.9 -183.4,75.8 -101.1,101.1 -101.1,265.6 0,366.7 48.9,48.9 114,75.8 183.4,75.8 69.4,0 134.5,-26.9 183.4,-75.8 101.1,-101 101.1,-265.5 0,-366.6 -48.9,-48.9 -114,-75.9 -183.4,-75.9 z m -160.9,98.3 c 42.9,-42.9 100.1,-66.6 161,-66.6 50.3,0 99.5,16.7 139,47.2 l -319.3,319.3 c -70.1,-90.5 -62.2,-218.5 19.3,-299.9 z m 321.9,321.9 c -42.9,42.9 -100.1,66.6 -161,66.6 -59.9,0 -116.1,-22.9 -158.8,-64.4 l 322,-322 c 41.6,42.7 64.4,99 64.4,158.8 0,60.9 -23.6,118.1 -66.6,161 z"
           id="path447"
           inkscape:connector-curvature="0" />
      </g>
      <g
         id="g453">
        <path
           d="m -298,305.9 c 6.3,-1.4 10.5,-7.2 10,-19.2 l -18.4,18.4 c 2.9,1.2 5.9,1.4 8.4,0.8 z"
           id="path451"
           inkscape:connector-curvature="0" />
      </g>
      <g
         id="g457">
        <path
           d="m -329,232.4 c 2.8,5.5 6.5,13.3 8.8,27.2 l 11.3,-11.3 c -10.3,-10.1 -20.8,-17.4 -20.1,-15.9 z"
           id="path455"
           inkscape:connector-curvature="0" />
      </g>
      <g
         id="g461">
        <path
           d="m -297.8,368.1 c 8.1,-1.8 12.8,-10.8 8.8,-30.7 -1.8,-9.2 -11.1,-20.4 -20.3,-29.3 l -11.2,11.2 c 1.2,6.7 2,14.8 2.3,24.7 0.6,20.4 12.3,26 20.4,24.1 z"
           id="path459"
           inkscape:connector-curvature="0" />
      </g>
      <g
         id="g465">
        <path
           d="m -318,160.6 c 0.6,19.7 12.1,25.1 20.1,23.4 8,-1.8 12.5,-10.5 8.7,-29.7 -3.8,-19.1 -41,-46.5 -39.7,-43.8 4,7.9 9.9,20.8 10.9,50.1 z"
           id="path463"
           inkscape:connector-curvature="0" />
      </g>
      <g
         id="g469">
        <path
           d="m -329.3,170.1 c 4.1,8.3 10.1,21.6 11.1,51.9 0.4,14 6,21 12.1,23.4 l 18.5,-18.5 c -0.1,-3.4 -0.5,-7.2 -1.4,-11.5 -3.9,-19.7 -41.7,-48 -40.3,-45.3 z"
           id="path467"
           inkscape:connector-curvature="0" />
      </g>
      <g
         id="g473">
        <path
           d="m -288.7,398.6 c -4,-20.4 -42.4,-49.7 -41,-46.8 4.2,8.6 10.3,22.3 11.3,53.6 0.6,21.1 12.5,26.9 20.8,25 8.3,-1.9 13,-11.2 8.9,-31.8 z"
           id="path471"
           inkscape:connector-curvature="0" />
      </g>
      <g
         id="g477">
        <path
           d="m -274.5,303.7 c 8.1,1.8 19.6,-3.7 20.3,-23.8 0.4,-13.1 1.8,-22.9 3.6,-30.5 l -33.9,33.9 c -0.8,12.8 3.5,19 10,20.4 z"
           id="path475"
           inkscape:connector-curvature="0" />
      </g>
      <g
         id="g481">
        <path
           d="m -274.6,367.1 c 8.2,1.9 20,-3.8 20.6,-24.6 1,-30.8 7,-44.4 11.2,-52.8 1.4,-2.8 -36.7,26.1 -40.7,46.1 -4,20.3 0.7,29.4 8.9,31.3 z"
           id="path479"
           inkscape:connector-curvature="0" />
      </g>
      <g
         id="g485">
        <path
           d="m -274.5,179.7 c 8.1,1.8 19.6,-3.7 20.3,-23.8 0.9,-29.8 6.9,-42.9 11,-51.1 1.4,-2.7 -36.1,25.2 -40,44.6 -3.9,19.6 0.7,28.4 8.7,30.3 z"
           id="path483"
           inkscape:connector-curvature="0" />
      </g>
      <g
         id="g489">
        <path
           d="m -283.5,211.7 c -1,4.8 -1.4,9 -1.4,12.6 l 33.7,-33.7 c 2.4,-12.4 5.7,-19.7 8.4,-25 1.3,-2.8 -36.8,26 -40.7,46.1 z"
           id="path487"
           inkscape:connector-curvature="0" />
      </g>
      <g
         id="g493">
        <path
           d="m -283.7,397.9 c -4,20.6 0.7,29.9 8.9,31.8 8.3,1.9 20.1,-3.9 20.8,-25 1,-31.3 7.1,-45.1 11.3,-53.6 1.4,-2.9 -37,26.5 -41,46.8 z"
           id="path491"
           inkscape:connector-curvature="0" />
      </g>
      <g
         id="g497">
        <path
           d="m -269.5,106.9 c 1,-26.4 -16.4,-52.9 -18.4,-50 -1.9,2.9 -20.1,32 -17.9,52.5 2.2,20.6 9.8,27.6 18.7,26.7 8.9,-0.9 16.9,-8.5 17.6,-29.2 z"
           id="path495"
           inkscape:connector-curvature="0" />
      </g>
      <g
         id="g501">
        <rect
           x="-290.89999"
           y="435.20001"
           width="9.1999998"
           height="51.599998"
           id="rect499" />
      </g>
    </g>
    <g
       class="st1"
       id="g565"
       style="display:inline">
      <g
         id="g507">
        <path
           d="m 1382.5,132 c -2.1,2.6 -4.3,5.1 -6.6,7.5 -22.4,24.9 -45.1,49.5 -68.4,73.4 -26.5,27.1 -53.4,53.7 -81.3,79.5 -12.2,11.3 -24.5,22.6 -36.9,33.7 -11.7,10.5 -23.6,20.8 -35.5,31.2 -1.5,1.3 -2.1,2.4 -0.9,4.3 2.1,3.2 4,6.6 6.7,9.3 3.4,3.4 7.4,5.1 12.4,4.1 5.6,-1.1 10.8,-3.2 15.4,-6.8 8.7,-6.6 16.8,-14 24.8,-21.3 24.1,-22.2 47.5,-45 70.7,-68.2 30.7,-30.6 61.1,-61.5 90.2,-93.7 10.1,-11.1 20.4,-22.2 28.6,-34.9 0,-1 0,-2 0,-3 -5.1,-5.1 -10.2,-10.1 -15.1,-15.3 -1.7,-1.7 -2.7,-1.5 -4.1,0.2 z"
           id="path505"
           inkscape:connector-curvature="0" />
      </g>
      <g
         id="g511">
        <path
           d="m 1317.2,568.9 c -12.9,20.1 -21.2,42.3 -24.5,66 -2.3,16.1 2.7,30.3 10.8,38.3 26.3,25.4 58.2,16.9 66.8,-13.4 2.3,-8.1 3.1,-16.3 2.4,-24.7 -1.9,-24.9 -10.5,-47.1 -26,-66.9 -10.1,-13 -20.4,-13.4 -29.5,0.7 z m 23.7,65.3 c -2.6,4 -6.9,5.6 -11.7,4.3 -4.8,-1.4 -10.4,0.3 -12.9,-2.7 -6,-4.7 -9.4,-8.6 -10.4,-14.4 -1.2,-7.1 1.9,-11 8.7,-12.1 8.1,-1.3 21.3,5.2 25.5,12.2 2.6,4.2 3.4,8.7 0.8,12.7 z"
           id="path509"
           inkscape:connector-curvature="0" />
      </g>
      <g
         id="g515">
        <path
           d="m 1265.9,601.9 c -2.5,0.6 -4.9,1.4 -7.3,2.4 -12.4,5.4 -15.7,14.3 -9.7,26.3 3.6,7.2 9.2,13 14.2,19 4.5,3.7 8.6,8.9 15.2,6.1 6.1,-2.6 5.4,-8.6 5.9,-14 0.5,-6.7 1,-13.4 2.3,-20 3.6,-18.6 -2.1,-24.3 -20.6,-19.8 z"
           id="path513"
           inkscape:connector-curvature="0" />
      </g>
      <g
         id="g519">
        <path
           d="m 877.2,394.5 c -5,4.2 -7.3,9.5 -7.6,14.1 -0.1,19 19.1,32 35.6,25.9 6.6,-2.4 11.4,-7.3 16.6,-11.5 29.6,-23.9 59.1,-47.8 88.6,-71.7 26.7,-21.6 53.3,-43.3 80,-65 1.7,-1.3 2.7,-1.3 4,0.3 3.5,4.4 7.2,8.7 10.9,13 12.5,14.8 24.6,29.9 36.4,45.2 2.9,3.7 2.8,3.8 6.3,0.7 24.5,-21.6 48.6,-43.7 72,-66.3 28.5,-27.5 56.5,-55.6 83.8,-84.3 22.8,-24 45.3,-48.4 67.4,-73.1 2,-2.3 2,-3.5 -0.2,-5.6 -19.9,-19.4 -39.6,-38.9 -59.4,-58.4 -8.6,-8.5 -17.3,-16.9 -26.1,-25.3 -6.5,-6.2 -12.3,-6.2 -18.9,-0.1 -1.6,1.4 -3.1,3 -4.4,4.6 -12.3,15.2 -24.8,30.4 -37.5,45.3 -26.1,30.5 -52.7,60.5 -82,88 -25,23.5 -51.5,45.2 -77.7,67.3 -29.5,24.9 -59.2,49.6 -88.8,74.3 -33,27.7 -66,55.2 -99,82.6 z m 401,-326.8 c 10.3,0.1 18.6,8.4 18.5,18.9 0,11 -8.8,19.7 -19.7,19.6 -10.5,0 -18.8,-8.4 -18.8,-19 0.1,-10.6 9.3,-19.6 20,-19.5 z"
           id="path517"
           inkscape:connector-curvature="0" />
      </g>
      <g
         id="g523">
        <path
           d="m 1269.6,593.2 c 12.8,-1.9 23.3,-8.3 30.7,-15.8 20.6,-20.2 20.5,-41.3 0.2,-59.9 -15.8,-14.5 -32.9,-27.4 -50.7,-39.3 -10.9,-7.3 -21.9,-14.5 -34.9,-17.5 -12.3,-2.8 -18.3,2.5 -17.9,15.1 0.2,8.9 4.6,15.8 10.8,21.7 15.8,14.8 25,32.8 28.3,54.1 1.3,8.2 3.2,16.3 5.6,24.3 4.1,13.5 13.8,19.5 27.9,17.3 z"
           id="path521"
           inkscape:connector-curvature="0" />
      </g>
      <g
         id="g527">
        <path
           d="M 1279.5,476.2 C 1264.4,465 1249,454 1232.1,445.4 c -21.5,-10.9 -38.9,-7.6 -55.5,9.5 -4.2,4.3 -8.5,8.7 -12.7,13.1 -5.8,6 -11.5,12.1 -17.4,17.9 -9.4,9.4 -11.3,20.5 -7.7,32.8 2.2,7.5 6.1,14.1 11.6,19.7 22.2,22.3 31.7,49.1 28.5,80.4 -0.2,1.9 -0.1,3.8 -0.3,5.7 -1.3,14.5 2.3,27.9 8.5,40.8 6,12.6 13.9,23.8 23.2,33.9 21.8,23.8 47.1,42.4 79.2,49.6 19.9,4.4 37.4,-0.1 51.5,-15.6 9.3,-10.2 19,-20 28.7,-29.7 8.5,-8.6 14.2,-18.7 17.5,-30.4 11.3,-39.3 0.9,-74.6 -20,-107.8 -22.7,-36 -53.8,-64 -87.7,-89.1 z m 98.8,185.6 c -7.6,32.1 -29,44.4 -60.4,34.3 -20.6,-6.6 -37.7,-18.8 -53.8,-34.9 -8,-7.3 -15.7,-16.7 -22.3,-27 -10.3,-16.1 -16,-33.1 -14.5,-52.7 1.8,-23.7 0,-46.9 -15.3,-66.8 -6.2,-8.1 -13.2,-15.8 -18.6,-24.4 -6.3,-10 -11.2,-21.5 -2.6,-32.1 9,-11.2 21.6,-7.9 32.9,-3.6 18.7,7.1 34.7,19.1 50.7,30.9 32.7,24.1 62.5,51.2 84.3,85.9 17.3,27.6 27.5,57.1 19.6,90.4 z"
           id="path525"
           inkscape:connector-curvature="0" />
      </g>
      <g
         id="g531">
        <path
           d="m 1136.8,395.4 c -23.8,-19.9 -47.5,-39.8 -71.2,-59.8 -1.8,-1.5 -2.9,-1.3 -4.6,0.1 -11.5,9.5 -22.9,19.2 -34.9,28.2 -3.7,2.8 -3.7,2.8 -0.1,5.7 15.8,12.9 31.5,25.9 47.3,38.8 9.3,7.6 18.4,15.4 28,22.7 8.5,6.4 18,7.5 27.7,2.6 9.1,-4.7 14.2,-12.3 15.2,-22.4 -0.5,-6.4 -2.5,-11.8 -7.4,-15.9 z"
           id="path529"
           inkscape:connector-curvature="0" />
      </g>
      <g
         id="g535">
        <path
           d="m 1059.5,523 c -13.3,-8.3 -25.1,-15.5 -39.9,-13.5 -12.1,1.6 -15.4,9 -8.1,18.7 2.5,3.3 5.4,6.3 8.3,9.3 24.2,24.2 39.2,52 34.8,87.7 -0.8,6.6 -0.4,13.5 0.1,20.2 1.6,18.4 10,27 28.3,29.2 4.7,0.6 9.6,0.5 14.4,0.4 12.6,-0.5 20.9,-7 25.4,-18.6 8,-20.6 6.6,-41 -2.7,-60.6 -14.2,-30.1 -37.8,-52.2 -60.6,-72.8 z m 38.9,98.1 c 2.5,4.1 3.2,8.6 0.7,12.6 -2.6,4 -6.9,5.6 -11.7,4.3 -4.8,-1.3 -10.4,0.3 -12.9,-2.7 -6,-4.7 -9.4,-8.6 -10.4,-14.4 -1.2,-7.1 1.9,-11 8.7,-12.1 8.2,-1.3 21.4,5.2 25.6,12.3 z"
           id="path533"
           inkscape:connector-curvature="0" />
      </g>
      <g
         id="g539">
        <path
           d="M 1011.3,472.4 C 995.5,464 979.6,455.7 962.6,450 c -23.7,-8 -39.9,-2.6 -54.3,17.4 -7.7,10.6 -15.4,21.2 -23.1,31.9 -11.9,16.5 -11.9,30.7 1.3,46.1 6.8,8 15.2,14.6 22.8,21.9 18.1,17.4 23.1,40.1 24.6,63.8 1.4,20.7 9.7,38.1 22.9,53.7 7.5,8.9 15.9,16.7 25.1,23.6 24.1,18.3 50.3,31.9 81.2,33.6 19.5,1.1 35.8,-5.3 46.8,-22.6 3.8,-6 8.2,-11.5 12.4,-17.2 13.9,-17.4 26.2,-35.2 26.8,-59 1.1,-36.1 -12.7,-66.1 -35.3,-92.9 -28.3,-33.5 -64.1,-57.5 -102.5,-77.9 z m 125.2,177.4 c -4.4,25.9 -21.6,40.2 -47.5,36.4 -47.3,-7 -82.5,-32.7 -106.1,-74.2 -5.7,-10 -6,-21.5 -6.9,-32.7 -2.2,-26 -11.4,-48.4 -31.8,-65.6 -4.6,-3.9 -9.1,-8.1 -13,-12.6 -10.7,-12.2 -13.9,-24.8 -8.3,-33 8.5,-12.4 21,-10.9 33,-7.8 25.7,6.6 48.4,20 71.2,33 10,5.7 19.5,12.3 27.5,17.4 29,22.2 54.7,44.6 70.9,75.9 10.4,19.8 14.9,40.9 11,63.2 z"
           id="path537"
           inkscape:connector-curvature="0" />
      </g>
      <g
         id="g543">
        <path
           d="m 1006,534.1 c -4,-2.6 -8.1,-4.4 -12.5,-5.3 -11.5,-2.3 -18.3,3.8 -14.8,15 6.1,19.6 9.5,39.9 14.3,59.8 1.6,6.6 4.8,12.5 9.7,17.4 6.7,6.7 14.5,9.3 23.6,7.1 9.6,-2.3 15.4,-8.8 17.9,-18.2 2.9,-10.7 1.1,-21 -3.1,-31 -7.8,-18.1 -21.5,-31.5 -35.1,-44.8 z"
           id="path541"
           inkscape:connector-curvature="0" />
      </g>
      <g
         id="g547">
        <path
           d="m 993,489.9 c -12.7,-14.7 -29.4,-21.3 -48.7,-20.1 -10.1,0.6 -13.1,6.8 -8.9,16.3 4.2,9.5 11.1,17 17.3,22.3 14.2,10.8 26.5,10.9 37.7,1.7 7.1,-5.9 8.6,-13.4 2.6,-20.2 z"
           id="path545"
           inkscape:connector-curvature="0" />
      </g>
      <g
         id="g551">
        <path
           d="m 655.9,119.2 c 11.4,13 22.6,26.2 34.1,39 12.1,13.5 24.4,26.7 36.9,39.8 17.1,17.9 34.5,35.5 52.4,52.7 21.4,20.7 43.4,40.9 65.9,60.4 7.6,6.6 15.1,13.2 22.7,19.7 3.1,2.7 3.1,2.5 6,-0.5 2.7,-2.9 5.4,-5.7 8.2,-8.5 5.7,-5.6 11.7,-10.8 17.2,-16.6 6.4,-6.7 13.6,-12.7 20.2,-19.2 1.1,-1.1 2.7,-1.7 3.7,-0.2 1.6,2.3 4.3,3.2 6.3,4.9 5.9,5.1 12,9.9 17.9,14.9 1.8,1.6 3.1,1.5 4.9,0 11.9,-9.9 23.9,-19.6 35.8,-29.5 3.1,-2.6 3.1,-2.6 0.1,-5.3 C 963.4,249.6 938.5,228.5 913.7,207.3 898.6,194.4 883.4,181.4 869.1,167.6 849.3,148.4 830.6,128.1 812.4,107.4 794.2,86.7 776.5,65.5 759.1,44 c -3.8,-4.7 -7.2,-9.8 -12,-13.6 -2.4,-1.9 -5,-3.4 -8.3,-3.5 -2.6,0.1 -4.9,1.4 -7,3 -10.1,7.4 -18.4,17 -29.3,23.6 -3.7,2.2 -6.5,6 -9.7,9.1 -6.1,5.8 -12.9,10.6 -19,16.4 -1.6,1.5 -4.1,2.5 -5.4,3.8 -2,2.1 -4.1,3.9 -6.3,5.8 -5.7,5 -11.4,9.9 -17.1,14.9 -1,0.9 -1.5,2 -0.5,3.1 3.8,4.1 7.7,8.3 11.4,12.6 z m 84.8,-50.8 c 10.5,0.1 19.3,9.1 19.2,19.8 0,10.6 -8.4,18.7 -19,18.6 -10.6,-0.1 -19.6,-9.2 -19.4,-19.7 0.2,-10.3 8.9,-18.8 19.2,-18.7 z"
           id="path549"
           inkscape:connector-curvature="0" />
      </g>
      <g
         id="g555">
        <path
           d="m 697.3,231.5 c 18.7,19.3 37.7,38.3 57,57 19.7,19 39.5,37.9 60.2,55.9 6.1,5.3 12,10.8 19.3,14.5 6.7,3.4 13.4,2.6 18.3,-2 3.2,-3.1 5.9,-6.6 8.6,-10.2 1.4,-1.9 2.5,-3.8 0.7,-6.2 -0.8,-1.1 -0.4,-2.5 0.1,-4 -1.5,5.1 -3.5,2.2 -5.2,0.7 -9.5,-8.1 -18.9,-16.1 -28.3,-24.3 -18.6,-16.3 -36.8,-33.1 -54.8,-50.2 -26.1,-24.8 -51.3,-50.4 -76,-76.5 -17.8,-18.9 -35.3,-38.1 -52.2,-57.8 -3.4,-3.9 -6.9,-7.6 -10.2,-11.6 -2,-2.4 -3.2,-2.1 -5.3,-0.2 -5.3,4.9 -10.9,9.6 -16.3,14.4 0,0.8 0,1.6 0,2.4 0.7,1 1.5,1.9 2.1,2.9 3.6,6.2 8,11.9 12.4,17.6 21.5,27.3 45.4,52.5 69.6,77.6 z"
           id="path553"
           inkscape:connector-curvature="0" />
      </g>
      <g
         id="g559">
        <path
           d="m 857.2,540.1 c -28.5,-28.5 -62.7,-48.5 -98.8,-65.6 -18,-8.5 -36.2,-16.3 -55.3,-21.8 -23.9,-6.9 -40.8,0 -54,21 -7,11.1 -13.4,22.7 -21.1,33.3 -14.1,19.5 -4.5,38.1 7.3,48.8 4.3,3.9 8.9,7.3 13.5,10.8 16.3,12.4 28.4,27.6 32.6,48.2 1.8,8.8 3.9,17.5 5.4,26.4 1.6,9.7 4.6,18.8 10.2,26.7 29.8,41.9 70.4,65.5 121.7,69.2 20.8,1.5 38.3,-6.3 48.7,-26.1 3.2,-5.9 7.1,-11.4 10.7,-17.1 21.2,-33.9 23.3,-39.2 22.8,-61.6 -0.8,-37.2 -18.3,-66.7 -43.7,-92.2 z m 32.1,99.7 c -2,29.3 -26.2,43.7 -52.1,39.9 -32.5,-4.9 -60.8,-19.3 -84.3,-42.1 -13.3,-12.8 -24.4,-27.3 -26.6,-47.2 -1.4,-12.9 -5,-25.7 -9.9,-38 -5.8,-14.4 -15.8,-25.4 -28.1,-34.5 -9,-6.7 -17.6,-13.9 -23,-24.1 -8.5,-16.1 -1.1,-29.7 17.2,-31.3 18.6,-1.6 35.1,6.3 51.6,12.8 22.9,9.1 45.1,19.9 64.4,32.6 27.1,16.4 50.2,34.9 68.3,59.1 15.9,21.7 24.4,45.5 22.5,72.8 z"
           id="path557"
           inkscape:connector-curvature="0" />
      </g>
      <g
         id="g563">
        <path
           d="m 790.1,511.6 c -11.4,-6 -26.9,-14.4 -42.7,-22.1 -10.3,-5 -21.1,-9.2 -31.9,-13.2 -9.3,-3.5 -19,-6.1 -29.1,-4.9 -12.2,1.4 -16.2,8.6 -10.8,19.6 4,8.2 10.2,14.9 17.8,19.7 22.7,14.4 35.1,35.5 38.5,61.4 6.4,48.7 48.7,89 96,96.7 35.4,5.7 52.3,-12.1 52,-43.4 -0.2,-20.7 -8.7,-38.5 -21,-54.7 -17.6,-23.4 -40.8,-40.4 -68.8,-59.1 z m 54.1,121.6 c -2.6,4 -6.9,5.6 -11.7,4.3 -4.8,-1.3 -10.4,0.3 -12.9,-2.7 -6,-4.7 -9.4,-8.6 -10.4,-14.4 -1.2,-7.1 1.9,-11 8.7,-12.1 8.1,-1.3 21.3,5.2 25.5,12.2 2.6,4.2 3.4,8.6 0.8,12.7 z"
           id="path561"
           inkscape:connector-curvature="0" />
      </g>
    </g>
    <g
       class="st1"
       id="g627"
       style="display:inline">
      <g
         id="g569">
        <path
           d="m 1390.6,979.4 c -2.1,2.6 -4.3,5.1 -6.6,7.5 -22.4,24.9 -45.1,49.5 -68.4,73.4 -26.5,27.1 -53.4,53.7 -81.3,79.5 -12.2,11.3 -24.5,22.6 -36.9,33.7 -11.7,10.5 -23.6,20.8 -35.5,31.2 -1.5,1.3 -2.1,2.4 -0.9,4.3 2.1,3.2 4,6.6 6.7,9.3 3.4,3.4 7.4,5.1 12.4,4.1 5.6,-1.1 10.8,-3.2 15.4,-6.8 8.7,-6.6 16.8,-14 24.8,-21.3 24.1,-22.2 47.5,-45 70.7,-68.2 30.7,-30.6 61.1,-61.5 90.2,-93.7 10.1,-11.1 20.4,-22.2 28.6,-34.9 0,-1 0,-2 0,-3 -5.1,-5.1 -10.2,-10.1 -15.1,-15.3 -1.7,-1.7 -2.7,-1.5 -4.1,0.2 z"
           id="path567"
           inkscape:connector-curvature="0" />
      </g>
      <g
         id="g573">
        <path
           d="m 1325.3,1416.3 c -12.9,20.1 -21.2,42.3 -24.5,66 -2.3,16.1 2.7,30.3 10.8,38.3 26.3,25.4 58.2,16.9 66.8,-13.4 2.3,-8.1 3.1,-16.3 2.4,-24.7 -1.9,-24.9 -10.5,-47.1 -26,-66.9 -10.1,-13 -20.4,-13.4 -29.5,0.7 z m 23.8,65.3 c -2.6,4 -6.9,5.6 -11.7,4.3 -4.8,-1.4 -10.4,0.3 -12.9,-2.7 -6,-4.7 -9.4,-8.6 -10.4,-14.4 -1.2,-7.1 1.9,-11 8.7,-12.1 8.1,-1.3 21.3,5.2 25.5,12.2 2.6,4.2 3.3,8.7 0.8,12.7 z"
           id="path571"
           inkscape:connector-curvature="0" />
      </g>
      <g
         id="g577">
        <path
           d="m 1274,1449.2 c -2.5,0.6 -4.9,1.4 -7.3,2.4 -12.4,5.4 -15.7,14.3 -9.7,26.3 3.6,7.2 9.2,13 14.2,19 4.5,3.7 8.6,8.9 15.2,6.1 6.1,-2.6 5.4,-8.6 5.9,-14 0.5,-6.7 1,-13.4 2.3,-20 3.6,-18.6 -2.1,-24.3 -20.6,-19.8 z"
           id="path575"
           inkscape:connector-curvature="0" />
      </g>
      <g
         id="g581">
        <path
           d="m 885.3,1241.9 c -5,4.2 -7.3,9.5 -7.6,14.1 -0.1,19 19.1,32 35.6,25.9 6.6,-2.4 11.4,-7.3 16.6,-11.5 29.6,-23.9 59.1,-47.8 88.6,-71.7 26.7,-21.6 53.3,-43.3 80,-65 1.7,-1.3 2.7,-1.3 4,0.3 3.5,4.4 7.2,8.7 10.9,13 12.5,14.8 24.6,29.9 36.5,45.2 2.9,3.7 2.8,3.8 6.3,0.7 24.5,-21.6 48.5,-43.7 72,-66.3 28.5,-27.5 56.5,-55.6 83.8,-84.3 22.8,-24 45.3,-48.4 67.4,-73.1 2,-2.3 2,-3.5 -0.2,-5.6 -19.9,-19.4 -39.6,-38.9 -59.4,-58.4 -8.7,-8.5 -17.3,-16.9 -26.1,-25.3 -6.5,-6.2 -12.3,-6.2 -18.9,-0.1 -1.6,1.4 -3.1,3 -4.4,4.6 -12.3,15.2 -24.8,30.4 -37.5,45.3 -26.1,30.5 -52.7,60.5 -82,88 -25,23.5 -51.5,45.2 -77.7,67.3 -29.5,24.9 -59.2,49.6 -88.8,74.3 -33.1,27.7 -66.1,55.1 -99.1,82.6 z m 401,-326.9 c 10.3,0.1 18.6,8.4 18.5,18.9 0,11 -8.8,19.7 -19.7,19.6 -10.5,0 -18.8,-8.4 -18.8,-19 0.1,-10.5 9.3,-19.5 20,-19.5 z"
           id="path579"
           inkscape:connector-curvature="0" />
      </g>
      <g
         id="g585">
        <path
           d="m 1277.7,1440.6 c 12.8,-1.9 23.3,-8.3 30.7,-15.8 20.6,-20.2 20.5,-41.3 0.2,-59.9 -15.8,-14.5 -32.9,-27.4 -50.7,-39.3 -10.9,-7.3 -21.9,-14.5 -34.9,-17.5 -12.3,-2.8 -18.3,2.5 -17.9,15.1 0.2,8.9 4.6,15.8 10.8,21.7 15.8,14.8 25,32.8 28.3,54.1 1.3,8.2 3.2,16.3 5.6,24.3 4.1,13.5 13.8,19.4 27.9,17.3 z"
           id="path583"
           inkscape:connector-curvature="0" />
      </g>
      <g
         id="g589">
        <path
           d="m 1287.6,1323.6 c -15.1,-11.2 -30.5,-22.2 -47.4,-30.8 -21.5,-10.9 -38.9,-7.6 -55.5,9.5 -4.2,4.3 -8.5,8.7 -12.7,13.1 -5.8,6 -11.5,12.1 -17.4,17.9 -9.4,9.4 -11.3,20.5 -7.7,32.8 2.2,7.5 6.1,14.1 11.6,19.7 22.2,22.3 31.7,49.1 28.5,80.4 -0.2,1.9 -0.1,3.8 -0.3,5.7 -1.3,14.5 2.3,27.9 8.5,40.8 6,12.6 13.9,23.8 23.2,33.9 21.8,23.8 47.1,42.4 79.2,49.6 19.9,4.4 37.4,-0.1 51.5,-15.6 9.3,-10.2 19,-20 28.7,-29.7 8.5,-8.6 14.2,-18.7 17.5,-30.4 11.3,-39.3 0.9,-74.6 -20,-107.8 -22.7,-36 -53.8,-64 -87.7,-89.1 z m 98.8,185.5 c -7.6,32.1 -29,44.4 -60.4,34.3 -20.6,-6.6 -37.7,-18.8 -53.8,-34.9 -8,-7.3 -15.7,-16.7 -22.3,-27 -10.3,-16.1 -16,-33.1 -14.5,-52.7 1.8,-23.7 0,-46.9 -15.3,-66.8 -6.2,-8.1 -13.2,-15.8 -18.6,-24.4 -6.3,-10 -11.2,-21.5 -2.6,-32.1 9,-11.2 21.6,-7.9 32.9,-3.6 18.7,7.1 34.7,19.1 50.7,30.9 32.7,24.1 62.5,51.2 84.3,85.9 17.3,27.6 27.5,57.1 19.6,90.4 z"
           id="path587"
           inkscape:connector-curvature="0" />
      </g>
      <g
         id="g593">
        <path
           d="m 1144.9,1242.8 c -23.8,-19.9 -47.5,-39.8 -71.2,-59.8 -1.8,-1.5 -2.9,-1.3 -4.6,0.1 -11.5,9.5 -22.9,19.2 -34.9,28.2 -3.7,2.8 -3.7,2.8 -0.1,5.7 15.8,12.9 31.5,25.9 47.3,38.8 9.3,7.6 18.4,15.4 28,22.7 8.5,6.4 18,7.5 27.7,2.6 9.1,-4.7 14.2,-12.3 15.2,-22.4 -0.5,-6.4 -2.5,-11.8 -7.4,-15.9 z"
           id="path591"
           inkscape:connector-curvature="0" />
      </g>
      <g
         id="g597">
        <path
           d="m 1067.6,1370.3 c -13.3,-8.3 -25.1,-15.5 -39.9,-13.5 -12.1,1.6 -15.4,9 -8.1,18.7 2.5,3.3 5.4,6.3 8.3,9.3 24.2,24.2 39.2,52 34.8,87.7 -0.8,6.6 -0.4,13.5 0.1,20.2 1.6,18.4 10,27 28.3,29.2 4.7,0.6 9.6,0.5 14.4,0.4 12.6,-0.5 20.9,-7 25.4,-18.6 8,-20.6 6.6,-41 -2.7,-60.6 -14.2,-30 -37.8,-52.2 -60.6,-72.8 z m 38.9,98.1 c 2.5,4.1 3.2,8.6 0.7,12.6 -2.6,4 -6.9,5.6 -11.7,4.3 -4.8,-1.3 -10.4,0.3 -12.9,-2.7 -6,-4.7 -9.4,-8.6 -10.4,-14.4 -1.2,-7.1 1.9,-11 8.7,-12.1 8.2,-1.2 21.4,5.3 25.6,12.3 z"
           id="path595"
           inkscape:connector-curvature="0" />
      </g>
      <g
         id="g601">
        <path
           d="m 1019.5,1319.7 c -15.8,-8.4 -31.7,-16.7 -48.7,-22.4 -23.7,-8 -39.9,-2.6 -54.3,17.4 -7.7,10.6 -15.4,21.2 -23.1,31.9 -11.9,16.5 -11.9,30.7 1.3,46.1 6.8,8 15.2,14.6 22.8,21.9 18.1,17.4 23.1,40.1 24.6,63.8 1.4,20.7 9.7,38.1 22.9,53.7 7.5,8.9 15.9,16.7 25.1,23.6 24.1,18.3 50.3,31.9 81.2,33.6 19.6,1.1 35.8,-5.3 46.8,-22.6 3.8,-6 8.2,-11.5 12.4,-17.2 13.9,-17.4 26.2,-35.2 26.8,-59 1.1,-36.1 -12.7,-66.1 -35.3,-92.9 -28.4,-33.4 -64.1,-57.5 -102.5,-77.9 z m 125.1,177.5 c -4.4,25.9 -21.6,40.2 -47.5,36.4 -47.3,-7 -82.5,-32.7 -106.1,-74.2 -5.7,-10 -6,-21.5 -6.9,-32.7 -2.2,-26 -11.4,-48.4 -31.8,-65.6 -4.6,-3.9 -9.1,-8.1 -13,-12.6 -10.7,-12.2 -13.9,-24.8 -8.3,-33 8.5,-12.4 21,-10.9 33,-7.8 25.7,6.6 48.4,20 71.2,33 10,5.7 19.5,12.3 27.5,17.4 29,22.2 54.7,44.6 70.9,75.9 10.4,19.8 14.9,40.8 11,63.2 z"
           id="path599"
           inkscape:connector-curvature="0" />
      </g>
      <g
         id="g605">
        <path
           d="m 1014.1,1381.5 c -4,-2.6 -8.1,-4.4 -12.5,-5.3 -11.5,-2.3 -18.3,3.8 -14.8,15 6.1,19.6 9.5,39.9 14.3,59.8 1.6,6.6 4.8,12.5 9.7,17.4 6.7,6.7 14.5,9.3 23.6,7.1 9.6,-2.3 15.4,-8.8 17.9,-18.2 2.9,-10.7 1.1,-21 -3.1,-31 -7.8,-18.1 -21.5,-31.6 -35.1,-44.8 z"
           id="path603"
           inkscape:connector-curvature="0" />
      </g>
      <g
         id="g609">
        <path
           d="m 1001.2,1337.2 c -12.7,-14.7 -29.4,-21.3 -48.7,-20.1 -10.1,0.6 -13.1,6.8 -8.9,16.3 4.2,9.5 11.1,17 17.3,22.3 14.2,10.8 26.5,10.9 37.7,1.7 7,-5.8 8.5,-13.3 2.6,-20.2 z"
           id="path607"
           inkscape:connector-curvature="0" />
      </g>
      <g
         id="g613">
        <path
           d="m 664,966.5 c 11.4,13 22.6,26.2 34.1,39 12.1,13.5 24.4,26.7 36.9,39.8 17.1,17.9 34.5,35.5 52.4,52.7 21.4,20.7 43.4,40.9 65.9,60.4 7.6,6.6 15.1,13.2 22.7,19.7 3.1,2.7 3.1,2.5 6,-0.5 2.7,-2.9 5.4,-5.7 8.2,-8.5 5.7,-5.6 11.7,-10.8 17.2,-16.6 6.4,-6.7 13.6,-12.7 20.2,-19.2 1.1,-1.1 2.7,-1.7 3.7,-0.2 1.6,2.3 4.3,3.2 6.3,4.9 5.9,5.1 12,9.9 17.9,14.9 1.8,1.6 3.1,1.5 4.9,0 11.9,-9.9 23.9,-19.6 35.8,-29.5 3.1,-2.6 3.1,-2.6 0.1,-5.3 -24.8,-21.2 -49.7,-42.3 -74.5,-63.5 -15.1,-12.9 -30.3,-25.9 -44.6,-39.7 -19.8,-19.2 -38.5,-39.5 -56.7,-60.2 -18.2,-20.7 -35.9,-41.9 -53.3,-63.4 -3.8,-4.7 -7.2,-9.8 -12,-13.6 -2.4,-1.9 -5,-3.4 -8.3,-3.5 -2.6,0.1 -4.9,1.4 -7,3 -10.1,7.4 -18.4,17 -29.3,23.6 -3.7,2.2 -6.5,6 -9.7,9.1 -6.1,5.8 -12.9,10.6 -19,16.4 -1.6,1.5 -4.1,2.5 -5.4,3.8 -2,2.1 -4.1,3.9 -6.3,5.8 -5.7,5 -11.4,9.9 -17.1,14.9 -1,0.9 -1.5,2 -0.5,3.1 3.9,4.2 7.7,8.4 11.4,12.6 z m 84.8,-50.8 c 10.5,0.1 19.3,9.1 19.2,19.8 0,10.6 -8.4,18.7 -19,18.6 -10.6,-0.1 -19.6,-9.2 -19.4,-19.7 0.2,-10.3 8.9,-18.8 19.2,-18.7 z"
           id="path611"
           inkscape:connector-curvature="0" />
      </g>
      <g
         id="g617">
        <path
           d="m 705.4,1078.8 c 18.7,19.3 37.7,38.3 57,57 19.7,19 39.5,37.9 60.2,55.9 6.1,5.3 12,10.8 19.3,14.5 6.7,3.4 13.4,2.6 18.3,-2 3.2,-3.1 5.9,-6.6 8.6,-10.2 1.4,-1.9 2.5,-3.8 0.7,-6.2 -0.8,-1.1 -0.4,-2.5 0.1,-4 -1.5,5.1 -3.5,2.2 -5.2,0.7 -9.5,-8.1 -18.9,-16.1 -28.3,-24.3 -18.6,-16.3 -36.8,-33.1 -54.8,-50.2 -26.1,-24.8 -51.3,-50.4 -76,-76.5 -17.8,-18.9 -35.3,-38.1 -52.2,-57.8 -3.4,-3.9 -6.9,-7.6 -10.2,-11.6 -2,-2.4 -3.2,-2.1 -5.3,-0.2 -5.3,4.9 -10.9,9.6 -16.3,14.4 0,0.8 0,1.6 0,2.4 0.7,1 1.5,1.9 2.1,2.9 3.6,6.2 8,11.9 12.4,17.6 21.5,27.4 45.4,52.6 69.6,77.6 z"
           id="path615"
           inkscape:connector-curvature="0" />
      </g>
      <g
         id="g621">
        <path
           d="m 865.3,1387.4 c -28.5,-28.5 -62.7,-48.5 -98.8,-65.6 -18,-8.5 -36.2,-16.3 -55.3,-21.8 -23.9,-6.9 -40.8,0 -54,21 -7,11.1 -13.4,22.7 -21.1,33.3 -14.1,19.5 -4.5,38.1 7.3,48.8 4.3,3.9 8.9,7.3 13.5,10.8 16.3,12.4 28.4,27.6 32.6,48.2 1.8,8.8 3.9,17.5 5.4,26.4 1.6,9.7 4.6,18.8 10.2,26.7 29.8,41.9 70.4,65.5 121.7,69.2 20.8,1.5 38.3,-6.3 48.7,-26.1 3.2,-5.9 7.1,-11.4 10.7,-17.1 21.2,-33.9 23.3,-39.2 22.8,-61.6 -0.7,-37.1 -18.2,-66.7 -43.7,-92.2 z m 32.1,99.8 c -2,29.3 -26.2,43.7 -52.1,39.9 -32.5,-4.9 -60.8,-19.3 -84.3,-42.1 -13.3,-12.8 -24.4,-27.3 -26.6,-47.2 -1.4,-12.9 -5,-25.7 -9.9,-38 -5.8,-14.4 -15.8,-25.4 -28.1,-34.5 -9,-6.7 -17.6,-13.9 -23,-24.1 -8.5,-16.1 -1.1,-29.7 17.2,-31.3 18.6,-1.6 35.1,6.3 51.6,12.8 22.9,9.1 45.1,19.9 64.4,32.6 27.1,16.4 50.2,34.9 68.3,59.1 16,21.7 24.4,45.5 22.5,72.8 z"
           id="path619"
           inkscape:connector-curvature="0" />
      </g>
      <g
         id="g625">
        <path
           d="m 798.2,1359 c -11.4,-6 -26.9,-14.4 -42.7,-22.1 -10.3,-5 -21.1,-9.2 -31.9,-13.2 -9.3,-3.5 -19,-6.1 -29.1,-4.9 -12.2,1.4 -16.2,8.6 -10.8,19.6 4,8.2 10.2,14.9 17.8,19.7 22.7,14.4 35.1,35.5 38.5,61.4 6.4,48.7 48.7,89 96,96.7 35.4,5.7 52.3,-12.1 52,-43.4 -0.2,-20.7 -8.7,-38.5 -21,-54.7 -17.6,-23.5 -40.8,-40.5 -68.8,-59.1 z m 54.1,121.5 c -2.6,4 -6.9,5.6 -11.7,4.3 -4.8,-1.3 -10.4,0.3 -12.9,-2.7 -6,-4.7 -9.4,-8.6 -10.4,-14.4 -1.2,-7.1 1.9,-11 8.7,-12.1 8.1,-1.3 21.3,5.2 25.5,12.2 2.6,4.2 3.4,8.7 0.8,12.7 z"
           id="path623"
           inkscape:connector-curvature="0" />
      </g>
    </g>
    <g
       class="st1"
       id="g661"
       style="display:inline">
      <g
         id="g631">
        <path
           d="m 556.5,1418.6 c -8,-5.7 -12,-12 -12,-21.9 0,-12.5 -7.1,-19.7 -18.8,-23.9 -46.1,-16.4 -92.5,-31.9 -137.7,-50.3 -25.3,-10.3 -47.4,-8.5 -72.7,0.4 -58.7,20.8 -115.2,48.2 -179.7,52.2 -40.8,2.6 -52.2,20.3 -54,60.3 -0.3,6 -2.8,10.1 -6.6,14.3 -15.9,17.4 -16.3,38.1 0,54.2 8.6,8.5 12.2,17.9 11.4,29.4 -1.4,20.9 9,34.3 27,42.8 17.9,8.4 36.9,11.2 56.6,11.1 5.4,0 10.9,-1 13.8,5.9 7.2,17.6 22.4,26.3 39.2,31.4 39.7,12 79.8,12.2 119.5,-0.1 15,-4.7 29.2,-12 36.9,-26.9 3.9,-7.5 9.7,-10.9 17.1,-13.6 41.3,-14.7 82.5,-29.7 123.7,-44.6 28,-10.1 28.5,-10.9 28.7,-40.9 0,-6.2 -1.1,-12.9 5.5,-17.1 7.3,-4.7 11.5,-12.2 16.4,-19 0,-9.3 0,-18.6 0,-27.8 -4.9,-5.3 -8.7,-11.8 -14.3,-15.9 z m -441.7,-12.1 c 11.9,-8.2 26.3,-11.7 39.7,-10.8 31.8,2.2 59.2,-10.6 87.6,-20.7 32.9,-11.7 65.8,-23.7 98.6,-35.6 5.6,-2 11.2,-3.9 17.2,-1.8 51.8,18.7 103.7,37.3 155.5,56 0,1 0.1,2 0.1,3.1 -32,11.6 -64,23.2 -96,34.7 -13.1,4.7 -26.2,9.4 -39.2,14.1 -10.7,3.9 -23.3,5.1 -24.1,21.1 -0.3,5.3 -6,9.2 -11.1,11.4 -43.2,18.8 -86.7,18.9 -129.7,0.1 -15.8,-6.9 -16.8,-16.3 -7.4,-34.2 -2.6,-3.7 -5.9,-1.4 -9,-1 -22.3,2.6 -44.6,3.5 -66.5,-2.2 -5.6,-1.5 -11.2,-3.9 -16.1,-7 -12.1,-7.9 -11.9,-18.7 0.4,-27.2 z m 420.1,58.9 c -14.3,6.7 -29.6,9.7 -45.4,9.2 -7.9,-0.3 -14.7,1.2 -20.1,7.9 -2.8,3.4 -7.3,5.9 -11.5,7.4 -8.6,3.1 -15.2,7.2 -18.9,16.6 -4,10 -10.1,10.5 -16.7,2.1 -4.3,-5.5 -6.9,-4.6 -12.2,-1.5 -15.5,9 -31.5,17.1 -47.3,25.6 -2.2,1.2 -5.1,2.3 -6,4.2 -8.7,18 -26.1,20.1 -42.5,22.9 -7.6,1.3 -12.9,3.5 -17.7,9.9 -9,12.3 -19.8,11.7 -28.3,-1.4 -4,-6.2 -8.9,-8.8 -15.7,-11.1 -16.3,-5.5 -35,-7.3 -48.7,-16.1 -18.3,-11.7 -39.1,-13.8 -57.2,-22.9 -17.2,-8.6 -32.9,-20.4 -51.1,-27.6 -4.6,-1.8 -7.9,-6.3 -8.6,-14.5 21.4,21.7 47,27 74.1,27.2 9.5,0.1 16.3,1.3 21.1,11.2 5.9,12.1 17.3,19.5 30,23.9 43.7,15.1 87.5,15.3 131.2,0.2 14.3,-4.9 26.2,-13.7 33.2,-27.6 3.3,-6.5 9,-8.4 15,-10.5 44,-15.9 87.9,-31.8 131.9,-47.7 5.6,-2 11.1,-4 15.4,-8.4 1.6,-1.7 2.7,-5.1 5.7,-4.1 3.4,1.1 3,4.8 3.1,7.6 0.2,9.4 -5.6,14.2 -12.8,17.5 z"
           id="path629"
           inkscape:connector-curvature="0" />
      </g>
      <g
         id="g635">
        <path
           d="m -200.6,1044.9 c -58.7,-0.1 -117.3,0.2 -176,-0.1 -64.1,-0.3 -111.6,47.5 -111.4,111.6 0.3,96.5 0,193 0.1,289.4 0,22.4 -2.1,45.1 2.3,67.2 10.3,51.4 52.5,86.4 105.1,86.8 61.4,0.5 122.8,0.5 184.2,-0.1 59.1,-0.5 105.3,-47.9 105.4,-107 0.1,-56.7 0,-113.5 0,-170.2 0,-55.6 -0.2,-111.3 0.1,-166.9 0.3,-64.2 -45.6,-110.6 -109.8,-110.7 z m -129.3,413.6 c 0,5.8 -2.3,7.5 -7.8,7.5 -29,-0.2 -58,-0.2 -87.1,0.1 -6,0.1 -8.1,-1.9 -8.1,-8 0.2,-36.7 0.1,-73.4 0.1,-110.1 h -0.1 c 0,-35.6 0.2,-71.2 -0.2,-106.8 -0.1,-7.7 2.5,-9.8 9.9,-9.7 28.2,0.4 56.4,0.3 84.6,0.1 6.3,0 8.7,1.9 8.7,8.4 -0.1,72.8 -0.1,145.6 0,218.5 z"
           id="path633"
           inkscape:connector-curvature="0" />
      </g>
      <g
         id="g639">
        <path
           d="m -435.2,1008.2 c 0.1,13 0.2,13 13.4,13 54.2,0 108.4,0 162.7,0 35.3,0 70.7,-0.2 106,0.1 7.5,0.1 10.2,-2.5 9.8,-10 -0.5,-11.5 -0.1,-23 -0.1,-34.5 0,-10.4 -0.2,-10.7 -10.4,-10.7 -44.9,0 -89.8,0 -134.7,0 -45.7,0 -91.5,0.1 -137.2,-0.1 -7.2,0 -9.8,2.3 -9.5,9.5 0.3,10.7 0,21.7 0,32.7 z"
           id="path637"
           inkscape:connector-curvature="0" />
      </g>
      <g
         id="g643">
        <path
           d="m 30.5,992.1 c -1,-12.5 -4.6,-22.9 -14.4,-28.8 -4.7,0 -9.4,0 -14.1,0 -14,11.8 -22.3,28.8 -28.4,47.6 -17.9,54.4 -27.4,110.8 -26,169.6 0.9,38.2 9.5,73.6 30.3,102.8 9.4,13.2 11.5,27.4 9.5,43.2 -6.7,52 -14.5,103.7 -20.5,155.8 -3.1,26.5 -7,53.2 -3.2,80.3 2.8,20.1 15.2,36.1 29.8,37.6 16.8,1.7 29.4,-9.2 35.4,-30.3 2.6,-9 2.9,-18.4 2.9,-27.8 0.1,-145.3 0.4,-290.5 0.2,-435.8 -0.2,-38.2 1.6,-76.2 -1.5,-114.2 z"
           id="path641"
           inkscape:connector-curvature="0" />
      </g>
      <g
         id="g647">
        <path
           d="m 83.5,1059.4 c 0,68.9 0,137.9 0,206.8 0,20.8 9,29.9 29.5,29.9 51.5,0 103,0 154.4,0 52.4,0 104.7,-0.1 157.1,0.1 8.7,0 16,-2.3 22.4,-8.5 7.9,-7.7 6.1,-17.2 6.1,-26.5 0,-66.9 0.1,-133.7 0.1,-200.6 0,-6.1 1.3,-11.2 4.7,-16.5 15.6,-24.5 14.8,-49 -1.4,-73 -14,-20.8 -34,-34.5 -56.4,-44.4 -72,-31.8 -146.3,-34.3 -221.8,-15.2 -31.5,8 -61,21 -84.8,43.9 -27.2,26.2 -35.5,59.3 -12.4,92.2 2.9,3.8 2.5,7.8 2.5,11.8 z m 19,-77.8 c 11.9,-15.4 27.9,-25.4 45.2,-33.4 42.8,-19.7 88.1,-25.7 134.7,-23.9 36.9,1.4 72.7,8 106.4,23.8 17.3,8.1 33.3,18 45.2,33.4 13.8,17.7 14.3,35.7 0.8,53.6 -4.4,5.8 -6.1,11.6 -6.1,18.7 0.3,31.1 0.1,62.1 0.1,93.2 h 0.2 c 0,31.7 0.2,63.3 -0.1,95 -0.1,8.5 -1.3,17 -0.2,25.6 0.7,5.3 -4,4.1 -6.9,4.1 -27.4,0.1 -54.8,0.1 -82.2,0 -29.4,0 -58.9,-0.1 -88.3,-0.2 -34.4,-0.1 -68.9,-0.4 -103.3,-0.5 -10.9,0 -21.8,-0.2 -32.6,0.5 -6.6,0.4 -7.9,-2.4 -7.9,-8.1 0.2,-68.9 0.2,-137.7 0.5,-206.6 0,-8.9 -1.6,-16.2 -7.2,-23.7 -12.4,-16.4 -11.2,-34.9 1.7,-51.5 z"
           id="path645"
           inkscape:connector-curvature="0" />
      </g>
      <g
         id="g651">
        <path
           d="m 225.1,1125.8 c 17.4,5.4 34.9,11 52.5,15.8 6.5,1.8 8.3,5.2 8,11.3 -0.7,14.4 -5.6,27.7 -10.8,40.9 -2.8,7.1 -6.3,14 -6.7,22.3 0.9,9.7 5,17.7 14.7,22.1 9.5,4.3 18.6,3.1 26.6,-3.3 8.4,-6.8 11.2,-16 8.2,-26.2 -2.4,-8.2 -5.9,-16 -9,-24 -7.5,-19.3 -9.2,-38.6 -1.9,-58.6 6.2,-17.2 10.8,-34.9 16,-52.4 3.3,-11.2 0.4,-16.9 -10.6,-20.3 -20,-6.2 -40,-12.3 -60.1,-18.1 -10.5,-3.1 -16.3,0.1 -19.5,10.6 -6.2,20 -12.3,40 -18.3,60 -3.4,10.6 -0.2,16.4 10.9,19.9 z"
           id="path649"
           inkscape:connector-curvature="0" />
      </g>
      <g
         id="g655">
        <path
           d="m 368.5,1026.8 c 6.6,-0.4 10.2,-4 10.4,-9.5 0.1,-7.5 -5,-12.9 -11,-12.3 -6.2,0.7 -10.3,4.4 -10.7,10.9 -0.4,6 5.1,11.2 11.3,10.9 z"
           id="path653"
           inkscape:connector-curvature="0" />
      </g>
      <g
         id="g659">
        <path
           d="m 201.8,1222.7 c 5.6,0.7 11.6,-5.2 11.7,-10.9 0,-5.7 -5.8,-11.8 -11.5,-11.1 -6.2,0.7 -10.4,4 -10.3,10.9 -0.2,6.9 3.8,10.3 10.1,11.1 z"
           id="path657"
           inkscape:connector-curvature="0" />
      </g>
    </g>
    <g
       class="st1"
       id="g669"
       style="display:inline">
      <path
         d="m 1686.6,107.7 c -0.3,-3.8 -4.4,-6.8 -9.3,-6.8 h -110.9 c -4.9,0 -9,3 -9.3,6.8 l -56,661.4 c -0.4,4.2 3.9,7.8 9.3,7.8 h 222.8 c 5.4,0 9.7,-3.6 9.3,-7.8 z"
         id="path663"
         inkscape:connector-curvature="0" />
      <path
         d="m 1596.9,94.3 h 52.6 c 5.4,0 9.7,-3.6 9.3,-7.8 l -3,-36.7 c -0.3,-3.9 -4.4,-6.9 -9.3,-6.9 h -46.6 c -4.9,0 -9,3 -9.3,6.9 l -3,36.7 c -0.4,4.2 3.9,7.8 9.3,7.8 z"
         id="path665"
         inkscape:connector-curvature="0" />
      <path
         d="m 1878.5,28.2 h -32.1 c -2.6,0 -4.8,2.1 -4.8,4.8 0,1.7 0.1,3.4 0.1,5.2 h -43 c -2.1,0 -3.8,2 -3.8,4.5 0.3,1.8 0.5,3.5 0.7,5.3 h 46.2 c 0,1.1 0.1,2.1 0.1,3.2 H 1796 c 0.2,1.8 0.5,3.7 0.7,5.5 h 45.4 c 0,1.1 0.1,2.1 0.1,3.2 h -45.1 c 0.2,1.8 0.4,3.7 0.5,5.5 h 44.8 c 0,1.1 0.1,2.1 0.1,3.2 h -44.6 c 0.2,1.8 0.3,3.7 0.4,5.5 h 44.4 c 0,1.1 0.1,2.1 0.1,3.2 h -44.3 c 0.1,1.8 0.2,3.7 0.3,5.5 h 44.2 c 0,1.1 0.1,2.1 0.1,3.2 H 1799 c 0.1,1.8 0.1,3.7 0.2,5.5 h 44.3 c 0,1.1 0.1,2.1 0.1,3.2 h -44.4 c 0,1.8 0,3.7 0,5.5 h 44.6 c 0,1.1 0.1,2.1 0.1,3.2 h -44.8 c 0,1.8 -0.1,3.7 -0.1,5.5 h 45.1 c 0.1,1.1 0.1,2.1 0.2,3.2 H 1799 c -0.1,1.8 -0.1,3.7 -0.2,5.5 h 45.9 c 0.1,1.1 0.1,2.1 0.2,3.2 h -46.3 c -0.1,1.8 -0.2,3.7 -0.4,5.5 h 46.9 c 0.1,1.1 0.1,2.1 0.2,3.2 H 1798 c -0.2,1.8 -0.3,3.7 -0.5,5.5 h 48.2 c 0.1,1.1 0.1,2.1 0.2,3.2 H 1797 c -0.2,1.8 -0.4,3.7 -0.7,5.5 h 49.6 c 0.1,1.1 0.1,2.1 0.2,3.2 h -50.2 c -0.3,2.1 -0.6,4.2 -1,6.4 0,2.5 1.7,4.5 3.8,4.5 h 47.4 c 0.2,0 0.3,0 0.5,-0.1 3.5,72.4 5.1,136.5 -9.9,182.3 22.4,53.4 18.7,250.4 4.8,425.3 0,2.6 2.1,4.8 4.8,4.8 h 32.1 c 2.6,0 4.8,-2.1 4.8,-4.8 V 33 c 0,-2.7 -2.1,-4.8 -4.7,-4.8 z"
         id="path667"
         inkscape:connector-curvature="0" />
    </g>
    <g
       class="st1"
       id="g677"
       style="display:inline">
      <path
         d="m 1583.7,1299.8 h -3 c -2.1,0 -3.8,1.8 -3.7,3.9 l 5.7,116.4 c 0.1,2.1 -1.6,3.9 -3.7,3.9 h -6.6 c -2,0 -3.6,-1.6 -3.7,-3.5 l -4,-117 c -0.1,-2 -1.7,-3.5 -3.7,-3.5 h -3.2 c -2.1,0 -3.7,1.7 -3.7,3.7 l 2.5,116.6 c 0,2.1 -1.6,3.7 -3.7,3.7 h -6.6 c -2,0 -3.7,-1.6 -3.7,-3.6 l -0.7,-116.8 c 0,-2 -1.7,-3.6 -3.7,-3.6 h -3.2 c -2,0 -3.7,1.6 -3.7,3.6 l -0.7,116.8 c 0,2 -1.7,3.6 -3.7,3.6 h -6.6 c -2.1,0 -3.7,-1.7 -3.7,-3.7 l 2.5,-116.6 c 0,-2.1 -1.6,-3.7 -3.7,-3.7 h -3.2 c -2,0 -3.6,1.6 -3.7,3.5 l -4,117 c -0.1,2 -1.7,3.5 -3.7,3.5 h -6.6 c -2.1,0 -3.8,-1.8 -3.7,-3.9 l 5.7,-116.4 c 0.1,-2.1 -1.6,-3.9 -3.7,-3.9 h -3 c -1.9,0 -3.5,1.5 -3.7,3.4 l -13.5,220.2 c -0.2,7.4 19.2,11.9 43,13.6 2,0.1 3.5,1.8 3.4,3.8 l -11.6,423.9 c -0.1,2.1 1.6,3.8 3.7,3.8 h 51.1 c 2.1,0 3.7,-1.7 3.7,-3.8 L 1554,1540.8 c -0.1,-2 1.5,-3.6 3.4,-3.8 23.8,-1.6 43.2,-6.2 43,-13.6 l -13.5,-220.2 c 0.4,-1.9 -1.2,-3.4 -3.2,-3.4 z"
         id="path671"
         inkscape:connector-curvature="0" />
      <path
         d="m 1731.9,1340.6 c -11.8,-10.7 -25.5,-16.8 -40.2,-16.8 -14.7,0 -28.4,6.1 -40.2,16.8 -2.7,2.4 -5.2,5.1 -7.7,7.9 -19,22.2 -31.3,57.2 -31.3,96.6 0,31.2 7.7,59.7 20.4,81.2 v -0.7 0 0.7 c 10.3,17.5 23.9,30.4 39.3,36.4 0.4,0.2 0.8,0.3 1.2,0.4 1,0.6 1.7,1.8 1.7,3 l -10.9,398.7 c -0.1,1.9 1.5,3.5 3.5,3.5 h 48 c 1.9,0 3.5,-1.6 3.5,-3.5 l -10.9,-398.7 c 0,-1.3 0.6,-2.4 1.7,-3 0.4,-0.1 0.8,-0.3 1.2,-0.4 15.4,-6 29,-18.9 39.3,-36.4 0,0 0,-0.1 0,-0.1 12.6,-21.5 20.3,-49.9 20.3,-81.1 0,-39.4 -12.3,-74.4 -31.3,-96.6 -2.4,-2.8 -4.9,-5.5 -7.6,-7.9 z"
         id="path673"
         inkscape:connector-curvature="0" />
      <path
         d="m 1893.7,1261.8 c -1.2,-14.5 -5.4,-26.6 -16.7,-33.5 -5.4,0 -10.9,0 -16.3,0 -16.3,13.7 -25.9,33.5 -33.1,55.3 -20.8,63.2 -31.8,128.8 -30.2,197.1 1.1,44.4 11,85.5 35.2,119.4 10.9,15.3 13.4,31.8 11,50.2 -7.8,60.4 -16.8,120.5 -23.9,181 -3.6,30.8 -8.1,61.8 -3.7,93.3 3.2,23.3 17.6,42 34.6,43.7 19.6,2 34.2,-10.7 41.1,-35.2 3,-10.5 3.4,-21.4 3.4,-32.3 0.1,-168.8 0.5,-337.6 0.2,-506.4 0,-44.3 2,-88.5 -1.6,-132.6 z"
         id="path675"
         inkscape:connector-curvature="0" />
    </g>
  </g>
  <g
     id="Left_overs"
     transform="translate(0.00390625,-0.39251709)">
    <g
       id="Layer_1_2_"
       class="st0"
       style="display:none">
      <g
         class="st1"
         id="g700"
         style="display:inline">
        <path
           class="st2"
           d="m 46.9,1927.2 c 18.3,11.2 37.5,12.9 57.5,5.8 6.6,-2.2 9.5,-0.2 12.4,5.1 4.9,9.3 6.3,19.2 5.8,29.5 -0.7,19.7 -1.7,39.4 -2.9,59.2 -0.5,6.3 1.5,8.8 8,9 27.3,1 54.5,2.4 81.8,4.1 6.6,0.5 8.5,-1.7 8.8,-8 0.7,-20.2 1.7,-40.4 2.9,-60.6 0.5,-10 3.2,-19.5 9,-27.8 3.4,-4.9 6.6,-5.8 12.4,-3.2 32.9,14.9 69.2,3.4 85.2,-27 2.7,-5.1 4.6,-10.7 6.8,-16.3 0.5,-8.5 0.7,-16.8 1.2,-25.3 -4.6,-11.2 -3.7,-22.9 -4.6,-34.6 -3.4,-35.3 -27.5,-60.4 -62.3,-65.3 -7.1,-1 -12.2,-3.4 -16.3,-10 -32.9,-50.2 -102.5,-53.6 -140.3,-7.1 -4.9,5.8 -10,8 -17.3,8.3 -37.5,1.5 -66.2,28.2 -69.6,65.7 -1,9.5 -3.4,18.3 -6.8,27 -0.5,8.5 -0.7,16.8 -1.2,25.3 3.7,19.5 12.3,35.8 29.5,46.2 z m 150.3,82.3 c -0.5,5.4 -2.2,7.5 -7.8,7.1 -13.1,-1 -26.3,-1.5 -39.4,-1.9 -5.6,-0.2 -7.3,-2.4 -7.1,-7.8 0.5,-17.3 2.9,-34.6 1.5,-52.1 -0.7,-7.5 -3.2,-14.6 -5.4,-22.4 7.1,2.2 13.1,3.9 19,5.6 3.9,1.2 4.1,3.9 3.9,7.3 -0.5,7.3 -0.5,14.6 -1,21.9 -0.2,4.6 1.2,6.8 6.1,7.1 15.6,1.5 15.6,1.5 16.3,-13.9 0.2,-4.4 0.7,-9 0.7,-13.4 0,-4.9 1.7,-7.3 6.8,-8 5.6,-0.7 11,-1.9 17.8,-3.4 -12.6,23.8 -9.5,49.4 -11.4,73.9 z M 43.8,1852.3 c 2.2,-4.9 3.4,-9.3 3.4,-14.9 -0.5,-33.1 24.3,-55 57.7,-52.1 1,0 1.9,0 2.7,0.2 7.1,2.2 11,-0.2 14.9,-7.1 12.4,-22.2 31.7,-34.6 57.5,-34.3 27.5,0.2 47,13.9 58.7,38 3.9,8.3 7.8,11 17,11 35.6,-0.7 58,25.6 53.1,60.6 -0.5,4.1 0.7,7.3 1.9,11 9.5,27 -5.1,54.8 -31.7,59.4 -12.7,2.2 -24.3,-0.7 -34.8,-8 -3.9,-2.7 -4.6,-5.4 -1.9,-9.5 3.4,-5.1 5.8,-10.7 7.1,-16.8 0.2,-1.5 1,-3.4 0.2,-4.1 -4.4,-3.7 -10,-3.2 -15.1,-4.1 -3.2,-0.5 -5.1,0.2 -6.6,3.7 -15.6,32.4 -54.3,42.9 -85,23.1 -9,-5.8 -15.1,-14.4 -17.5,-24.6 -1.5,-6.3 -4.4,-8.3 -10.7,-8 -13.6,0.7 -14.4,1.7 -10.5,14.9 0.7,2.7 1.5,5.6 2.9,7.8 3.9,6.1 1.2,9.3 -4.4,11.9 -17.3,8.3 -37.7,5.8 -50.6,-6.6 -13.2,-13.1 -16.8,-33.8 -8.3,-51.5 z"
           id="path680"
           inkscape:connector-curvature="0"
           style="fill:#010101" />
        <path
           class="st2"
           d="m -161,2080.9 c -2.7,-1 -5.6,-0.5 -6.8,1.9 -3.2,6.1 -6.6,12.2 -10.2,18 -1.5,2.2 -1,4.6 1.2,6.3 2.2,1.9 5.1,2.4 7.1,0.2 5.8,-5.8 9.7,-13.1 12.2,-20.5 -0.1,-2.7 -0.8,-4.9 -3.5,-5.9 z"
           id="path682"
           inkscape:connector-curvature="0"
           style="fill:#010101" />
        <path
           class="st2"
           d="m -39,2122.5 c -12.2,-11.4 -25.8,-20.9 -41.2,-27.3 -17.5,-7.3 -30.2,-19.7 -39.7,-35.6 -2.4,-3.9 -5.1,-6.1 -9.5,-6.8 -14.4,-2.4 -28.7,-5.1 -43.1,-8 -4.4,-0.7 -6.8,0.2 -8.5,4.6 -4.9,12.2 -11.4,23.4 -20,33.6 -5.8,6.8 -12.7,12.4 -20.5,17 -38.7,21.7 -63.1,54.1 -70.9,98.4 0,10.5 0,20.9 0,31.4 10.5,57.7 49.7,86.9 103,100.1 44.1,11 87.7,8.5 128.8,-11.9 33.8,-16.8 55.3,-43.8 62.1,-81.6 0.2,-1.2 0.5,-2.4 1,-3.9 0,-10 0,-20 0,-30.2 -4.7,-31.6 -18.4,-58.1 -41.5,-79.8 z m 8.3,138.8 c -1.2,2.2 -2.7,4.4 -4.9,6.6 -1.5,-25.6 -0.2,-51.6 -15.3,-73.8 -0.7,0 -1.5,0.2 -2.2,0.2 0.7,6.3 1.7,12.7 2.2,19 1.5,19 1.9,37.7 -1.2,56.7 -2.7,15.8 -10.2,26.5 -25.8,31.2 -5.1,1.5 -10.2,3.7 -15.3,5.4 -2.9,1 -4.4,0.2 -2.9,-3.2 17.3,-42.6 2.7,-80.8 -16.3,-118.3 -1.9,-3.7 -4.1,-7.1 -6.3,-10.7 -0.2,-0.5 -1,-0.7 -1.5,-1.2 5.6,17.8 6.8,35.8 5.8,54.1 -1.2,27.5 -7.3,54.1 -15.1,80.1 -1.2,4.1 -3.7,5.4 -7.5,5.6 -11.7,0.2 -23.1,-0.7 -34.6,-2.4 -4.6,-0.7 -7.1,-2.9 -8.3,-7.1 -2.7,-8 -3.7,-16.1 -4.1,-24.3 -1,-24.8 1.2,-49.7 4.9,-74.3 0.2,-2.4 0.2,-4.6 0.5,-7.5 -3.2,1.5 -3.9,4.1 -4.9,6.3 -8,16.3 -11,33.8 -13.1,51.9 -1.7,13.9 -2.4,27.8 -2.2,41.9 0,4.9 -1.5,6.6 -6.1,4.1 -5.1,-2.4 -10.2,-5.1 -15.3,-7.3 -10.7,-4.4 -14.1,-12.7 -14.9,-23.6 -1.9,-33.1 7.3,-63.8 18.7,-94.2 1,-2.7 2.7,-4.9 2.4,-9.7 -26.1,23.6 -42.4,50.9 -47,86.9 -7.3,-15.3 -10.2,-29.7 -9,-44.6 2.9,-38.7 22.4,-67.4 55.5,-86.7 20,-11.4 35.1,-27 46.3,-47 2.7,-4.9 5.6,-6.6 11,-5.1 4.4,1.2 9,1.9 13.6,2.4 -1.5,1.5 -1.7,3.2 -0.7,5.4 1.7,3.7 3.2,7.1 5.4,10.5 5.4,9 12.2,16.3 21.7,21.2 5.4,2.7 10.5,0.2 10.5,-4.4 v -0.2 c 5.8,4.1 12.2,7.8 19,11 35.8,16.6 59.9,43.3 67.7,82.8 3.4,21.7 0.7,42.8 -10.7,62.3 z"
           id="path684"
           inkscape:connector-curvature="0"
           style="fill:#010101" />
        <path
           class="st2"
           d="m 589.5,2161.2 c 0.7,-13.4 1.9,-27 0,-40.4 -0.5,-4.1 -1,-8.3 -2.2,-12.4 -5.4,-18.3 -17,-29.5 -35.8,-33.1 -11.2,-2.2 -22.2,0.2 -32.9,2.4 -2.4,0.5 -3.9,0.5 -5.6,-1.5 -5.4,-5.8 -11.9,-10 -19.5,-12.7 -2.9,-1 -6.8,-1 -8.5,-2.9 -1.7,-1.9 -0.7,-5.8 -1.2,-9 -0.7,-6.1 -5.1,-9.7 -11.2,-9.5 -8.5,0.5 -17.3,0.7 -25.8,1.5 -10.7,1 -13.9,4.6 -13.4,15.3 0,0.5 0,0.7 0,1.2 0.2,1.7 -0.5,2.7 -1.7,3.4 -6.8,4.4 -12.4,10 -16.6,17 -1,1.5 -1.9,2.4 -3.7,2.2 -3.7,-0.2 -7.1,0.5 -10.2,1.5 -11.9,3.2 -22.9,8 -31.9,16.8 -15.1,14.6 -19,33.1 -17,53.3 1.2,11.2 4.6,22.2 8.8,32.6 6.1,15.3 10.7,30.9 14.4,47 2.9,12.9 5.4,26.1 8.8,39 3.9,14.4 9.5,28.2 18.7,40.2 13.1,16.8 37,23.1 56.7,14.6 1.7,-0.7 2.9,-0.5 4.4,0.5 6.1,4.1 12.9,6.8 20.2,7.8 8.3,1.2 16.1,0 24.1,-1.9 11.4,-2.7 21.4,-7.3 28.7,-17 1,-1.2 1.9,-1.9 3.7,-1.7 4.1,0.7 8.3,0.2 12.4,-0.7 13.4,-3.7 24.3,-10.5 31.4,-22.6 6.3,-10.7 8.3,-22.6 8.5,-35.1 0.5,-20.2 -2.2,-40.2 -3.4,-60.1 -0.5,-12.3 -0.7,-24 -0.2,-35.7 z m -139.3,-26.5 c 1.9,-1.2 3.9,-2.2 5.8,-3.4 3.4,-2.2 5.4,-5.4 5.1,-9.5 -0.5,-8.3 -1.2,-16.6 -1.9,-24.8 -0.7,-9.7 -1.7,-19.5 -2.7,-29.2 -0.2,-2.9 1.5,-2.9 3.4,-3.4 2.4,-0.5 2.9,1 3.2,2.9 0.5,9 1,18.3 1.5,27.3 0.2,6.1 0.5,12.2 1,18 0.5,4.6 3.7,8 8.8,9.5 3.7,1 7.1,1.9 10.5,3.4 1,0.5 1.9,0.5 2.7,1.9 -4.6,0.5 -8.8,1.5 -12.9,2.7 -7.8,2.4 -14.9,6.1 -20.9,11.4 -1.7,1.5 -2.7,1.5 -4.4,-0.2 -3.9,-3.7 -3.9,-3.7 0.8,-6.6 z m 77.4,154.6 c -2.9,12.4 -10.7,20 -23.1,22.9 -7.3,1.7 -14.9,3.7 -22.2,0.7 -13.9,-5.1 -22.6,-14.9 -25.8,-29.7 -0.2,-0.7 -0.2,-1.7 -0.5,-2.4 -0.7,-3.7 -3.4,-5.6 -6.6,-5.1 -3.2,0.5 -5.1,3.2 -4.9,6.8 0.7,6.1 2.7,11.7 5.4,17.3 0.2,0.5 0.5,0.7 0.5,1 2.9,5.4 2.2,7.3 -4.1,8 -11,1.5 -20.2,-1.5 -27,-10.7 -5.8,-7.8 -9.5,-16.6 -12.4,-25.6 -4.4,-13.6 -6.8,-27.8 -9.7,-41.9 -3.9,-18.3 -9.5,-36.3 -16.3,-53.8 -3.4,-8.5 -6.1,-17.5 -6.8,-26.8 -1,-12.4 1.2,-24.1 10.7,-33.4 6.8,-6.6 15.1,-9.7 24.1,-11.7 5.4,-1.2 9.3,1.9 10.5,7.5 0.7,3.7 2.7,5.6 5.6,5.4 3.4,-0.2 5.4,-2.4 5.6,-6.1 0.2,-2.9 -0.7,-5.8 -0.2,-9 0.7,-4.6 2.4,-9 5.8,-13.4 1.7,9 1.7,17.3 2.7,25.3 0.2,1.2 -0.5,1.9 -1.5,2.4 -3.2,2.2 -6.6,4.4 -9.3,7.1 -1.2,1.2 -2.7,0.7 -3.9,0.2 -7.3,-3.2 -14.9,-4.9 -22.6,-5.6 -2.9,-0.2 -5.8,-0.2 -8.5,1.2 -4.4,2.2 -6.6,7.1 -5.6,11.9 1,4.6 4.9,8 10,8.5 16.6,1 29.9,8.3 40.4,21.4 1.5,1.9 1.9,3.7 1.2,6.3 -1.9,5.6 -2.2,11.4 -2.4,17.3 0,0.5 0,1 0.2,1.5 0.5,3.4 2.9,5.6 5.8,5.6 3.2,-0.2 5.8,-2.9 5.4,-6.3 -1.2,-15.1 7.8,-23.9 19,-30.9 10,-6.1 21.2,-8.5 33.1,-7.5 7.5,0.7 14.4,3.4 20.2,8 3.9,3.2 6.1,7.3 7.1,12.2 1.7,8.8 1.2,17.5 1.2,26.3 0.2,12.9 0.2,26.1 0.2,39 0,11 0,22.2 0.2,33.1 0.5,7.9 0.2,15.5 -1.5,23 z m 43.8,-32.1 c -0.2,5.8 -1,11.7 -2.7,17.3 -3.4,11 -11.4,16.6 -21.9,19 -4.4,1 -7.1,-1.5 -6.6,-6.1 1.2,-11.7 0.5,-23.4 0.5,-35.1 0,-14.6 0,-29.2 -0.2,-44.1 -0.2,-13.1 0.7,-26.5 -1.2,-39.7 -1.2,-9 -4.6,-17.3 -12.2,-23.1 -1.5,-1.2 -1.2,-2.4 -0.5,-3.7 3.9,-8.3 10,-13.9 18.5,-16.8 5.4,-1.9 8.8,-6.8 8,-12.2 -0.7,-5.1 -5.4,-9 -10.7,-9.5 -2.2,0 -4.1,0.7 -6.3,1.5 -7.5,2.7 -13.9,7.1 -19.2,12.9 -1.5,1.5 -2.2,1.5 -3.9,0.2 -7.1,-5.8 -15.1,-10.7 -23.9,-13.9 -1.7,-0.7 -2.4,-1.5 -2.4,-3.7 0,-4.4 -0.5,-8.8 -0.7,-13.1 0,-1 -0.5,-1.9 0.2,-2.7 1,-0.7 1.9,0 2.9,0.5 4.9,2.4 9,6.1 11.9,11 4.4,7.3 9,8.8 16.8,5.1 10,-4.6 20.2,-6.8 31.2,-4.6 10.2,2.2 15.6,8.8 18,18.5 0.7,2.7 0.7,5.6 1.2,8.3 1.7,11.9 0.7,23.6 0,35.6 -1,14.1 -0.2,28.2 0.7,42.4 0.6,18.7 3,37.2 2.5,56 z"
           id="path686"
           inkscape:connector-curvature="0"
           style="fill:#010101" />
        <path
           class="st2"
           d="m 215.9,2168.3 c 6.8,-5.4 12.9,-5.8 20.5,-1.7 4.1,2.2 8,5.1 11.4,8.3 2.7,2.2 4.4,2.2 6.8,-0.2 10.5,-11 20.9,-21.9 31.2,-33.1 22.4,-24.3 44.6,-49.2 65.5,-74.8 20.2,-24.6 39.7,-50.2 57,-76.9 12.7,-19.7 24.1,-40.2 32.6,-62.1 5.1,-13.1 9,-26.5 10.2,-40.7 0.2,-2.9 -0.2,-3.2 -2.9,-1.9 -13.9,6.3 -26.8,14.4 -39.2,23.1 -14.4,10 -27.5,21.4 -40.2,33.4 -12.4,11.9 -24.1,24.6 -36.3,37 -52.4,54.3 -104.9,108.6 -157.3,163.1 -52.4,-54.3 -104.9,-108.6 -157.3,-163.1 -11.9,-12.4 -23.6,-25.1 -36.3,-37 -12.7,-12.2 -25.8,-23.4 -40.2,-33.4 -12.4,-8.8 -25.3,-16.8 -39.2,-23.1 -2.7,-1.2 -3.2,-1 -2.9,1.9 1.2,14.1 5.1,27.5 10.2,40.7 8.5,21.9 20,42.4 32.6,62.1 17.3,26.8 36.5,52.4 57,76.9 20.9,25.6 43.1,50.4 65.5,74.8 10.2,11.2 20.9,22.2 31.2,33.1 2.4,2.4 4.1,2.7 6.8,0.2 3.7,-3.2 7.3,-6.1 11.4,-8.3 7.8,-4.1 13.6,-3.7 20.5,1.7 0.7,0.5 1.5,1.2 2.2,1.9 1.9,1.7 3.7,3.4 5.6,5.1 -2.9,3.2 -6.1,6.3 -9,9.5 -26.3,27.3 -52.4,54.8 -79.1,81.8 -8.3,8.5 -9.3,17.5 -5.6,27.8 2.7,8 6.3,10.5 14.9,10.7 1.5,0 2.9,0 4.4,0 9.3,-0.2 17.8,-2.2 26.3,-5.6 3.7,-1.5 5.4,-4.1 5.8,-8 1,-8.5 4.6,-15.8 11.2,-21.4 3.2,-2.7 6.3,-5.4 9.7,-8 13.4,-10.5 24.1,-23.4 33.1,-37.7 5.6,-9 11.9,-17.5 20.2,-24.6 l 0.5,-0.5 0.5,0.5 c 8.3,6.8 14.6,15.6 20.2,24.6 9,14.4 19.7,27 33.1,37.7 3.4,2.7 6.6,5.4 9.7,8 6.6,5.6 10.2,12.9 11.2,21.4 0.5,3.9 2.2,6.3 5.8,8 8.5,3.7 17,5.6 26.3,5.6 1.5,0 2.9,0 4.4,0 8.5,-0.2 12.2,-2.7 14.9,-10.7 3.7,-10.2 2.7,-19.2 -5.6,-27.8 -26.5,-27 -52.8,-54.5 -79.1,-81.8 -2.9,-3.2 -6.1,-6.3 -9,-9.5 1.9,-1.7 3.7,-3.4 5.6,-5.1 1.8,-0.7 2.5,-1.4 3.2,-1.9 z"
           id="path688"
           inkscape:connector-curvature="0"
           style="fill:#010101" />
        <path
           class="st2"
           d="m 962.2,1927.2 c 18.3,11.2 37.5,12.9 57.5,5.8 6.6,-2.2 9.5,-0.2 12.4,5.1 4.9,9.3 6.3,19.2 5.8,29.5 -0.7,19.7 -1.7,39.4 -2.9,59.2 -0.5,6.3 1.5,8.8 8,9 27.3,1 54.5,2.4 81.8,4.1 6.6,0.5 8.5,-1.7 8.8,-8 0.7,-20.2 1.7,-40.4 2.9,-60.6 0.5,-10 3.2,-19.5 9,-27.8 3.4,-4.9 6.6,-5.8 12.4,-3.2 32.9,14.9 69.2,3.4 85.2,-27 2.7,-5.1 4.6,-10.7 6.8,-16.3 0.5,-8.5 0.7,-16.8 1.2,-25.3 -4.6,-11.2 -3.7,-22.9 -4.6,-34.6 -3.4,-35.3 -27.5,-60.4 -62.3,-65.3 -7.1,-1 -12.2,-3.4 -16.3,-10 -32.9,-50.2 -102.5,-53.6 -140.3,-7.1 -4.9,5.8 -10,8 -17.3,8.3 -37.5,1.5 -66.2,28.2 -69.6,65.7 -1,9.5 -3.4,18.3 -6.8,27 -0.5,8.5 -0.7,16.8 -1.2,25.3 3.7,19.5 12.3,35.8 29.5,46.2 z m 150.3,82.3 c -0.5,5.4 -2.2,7.5 -7.8,7.1 -13.1,-1 -26.3,-1.5 -39.4,-1.9 -5.6,-0.2 -7.3,-2.4 -7.1,-7.8 0.5,-17.3 2.9,-34.6 1.5,-52.1 -0.7,-7.5 -3.2,-14.6 -5.4,-22.4 7.1,2.2 13.1,3.9 19,5.6 3.9,1.2 4.1,3.9 3.9,7.3 -0.5,7.3 -0.5,14.6 -1,21.9 -0.2,4.6 1.2,6.8 6.1,7.1 15.6,1.5 15.6,1.5 16.3,-13.9 0.2,-4.4 0.7,-9 0.7,-13.4 0,-4.9 1.7,-7.3 6.8,-8 5.6,-0.7 11,-1.9 17.8,-3.4 -12.6,23.8 -9.5,49.4 -11.4,73.9 z M 959.1,1852.3 c 2.2,-4.9 3.4,-9.3 3.4,-14.9 -0.5,-33.1 24.3,-55 57.7,-52.1 1,0 1.9,0 2.7,0.2 7.1,2.2 11,-0.2 14.9,-7.1 12.4,-22.2 31.7,-34.6 57.5,-34.3 27.5,0.2 47,13.9 58.7,38 3.9,8.3 7.8,11 17,11 35.6,-0.7 58,25.6 53.1,60.6 -0.5,4.1 0.7,7.3 1.9,11 9.5,27 -5.1,54.8 -31.7,59.4 -12.7,2.2 -24.3,-0.7 -34.8,-8 -3.9,-2.7 -4.6,-5.4 -1.9,-9.5 3.4,-5.1 5.8,-10.7 7.1,-16.8 0.2,-1.5 1,-3.4 0.2,-4.1 -4.4,-3.7 -10,-3.2 -15.1,-4.1 -3.2,-0.5 -5.1,0.2 -6.6,3.7 -15.6,32.4 -54.3,42.9 -85,23.1 -9,-5.8 -15.1,-14.4 -17.5,-24.6 -1.5,-6.3 -4.4,-8.3 -10.7,-8 -13.6,0.7 -14.4,1.7 -10.5,14.9 0.7,2.7 1.5,5.6 2.9,7.8 3.9,6.1 1.2,9.3 -4.4,11.9 -17.3,8.3 -37.7,5.8 -50.6,-6.6 -13.2,-13.1 -16.8,-33.8 -8.3,-51.5 z"
           id="path690"
           inkscape:connector-curvature="0"
           style="fill:#010101" />
        <path
           class="st2"
           d="m 754.3,2080.9 c -2.7,-1 -5.6,-0.5 -6.8,1.9 -3.2,6.1 -6.6,12.2 -10.2,18 -1.5,2.2 -1,4.6 1.2,6.3 2.2,1.9 5.1,2.4 7.1,0.2 5.8,-5.8 9.7,-13.1 12.2,-20.5 -0.1,-2.7 -1.1,-4.9 -3.5,-5.9 z"
           id="path692"
           inkscape:connector-curvature="0"
           style="fill:#010101" />
        <path
           class="st2"
           d="m 876.3,2122.5 c -12.2,-11.4 -25.8,-20.9 -41.2,-27.3 -17.5,-7.3 -30.2,-19.7 -39.7,-35.6 -2.4,-3.9 -5.1,-6.1 -9.5,-6.8 -14.4,-2.4 -28.7,-5.1 -43.1,-8 -4.4,-0.7 -6.8,0.2 -8.5,4.6 -4.9,12.2 -11.4,23.4 -20,33.6 -5.8,6.8 -12.7,12.4 -20.5,17 -38.7,21.7 -63.1,54.1 -70.9,98.4 0,10.5 0,20.9 0,31.4 10.5,57.7 49.7,86.9 103,100.1 44.1,11 87.7,8.5 128.8,-11.9 33.8,-16.8 55.3,-43.8 62.1,-81.6 0.2,-1.2 0.5,-2.4 1,-3.9 0,-10 0,-20 0,-30.2 -4.7,-31.6 -18.4,-58.1 -41.5,-79.8 z m 8.3,138.8 c -1.2,2.2 -2.7,4.4 -4.9,6.6 -1.5,-25.6 -0.2,-51.6 -15.3,-73.8 -0.7,0 -1.5,0.2 -2.2,0.2 0.7,6.3 1.7,12.7 2.2,19 1.5,19 1.9,37.7 -1.2,56.7 -2.7,15.8 -10.2,26.5 -25.8,31.2 -5.1,1.5 -10.2,3.7 -15.3,5.4 -2.9,1 -4.4,0.2 -2.9,-3.2 17.3,-42.6 2.7,-80.8 -16.3,-118.3 -1.9,-3.7 -4.1,-7.1 -6.3,-10.7 -0.2,-0.5 -1,-0.7 -1.5,-1.2 5.6,17.8 6.8,35.8 5.8,54.1 -1.2,27.5 -7.3,54.1 -15.1,80.1 -1.2,4.1 -3.7,5.4 -7.5,5.6 -11.7,0.2 -23.1,-0.7 -34.6,-2.4 -4.6,-0.7 -7.1,-2.9 -8.3,-7.1 -2.7,-8 -3.7,-16.1 -4.1,-24.3 -1,-24.8 1.2,-49.7 4.9,-74.3 0.2,-2.4 0.2,-4.6 0.5,-7.5 -3.2,1.5 -3.9,4.1 -4.9,6.3 -8,16.3 -11,33.8 -13.1,51.9 -1.7,13.9 -2.4,27.8 -2.2,41.9 0,4.9 -1.5,6.6 -6.1,4.1 -5.1,-2.4 -10.2,-5.1 -15.3,-7.3 -10.7,-4.4 -14.1,-12.7 -14.9,-23.6 -1.9,-33.1 7.3,-63.8 18.7,-94.2 1,-2.7 2.7,-4.9 2.4,-9.7 -26.1,23.6 -42.4,50.9 -47,86.9 -7.3,-15.3 -10.2,-29.7 -9,-44.6 2.9,-38.7 22.4,-67.4 55.5,-86.7 20,-11.4 35.1,-27 46.3,-47 2.7,-4.9 5.6,-6.6 11,-5.1 4.4,1.2 9,1.9 13.6,2.4 -1.5,1.5 -1.7,3.2 -0.7,5.4 1.7,3.7 3.2,7.1 5.4,10.5 5.4,9 12.2,16.3 21.7,21.2 5.4,2.7 10.5,0.2 10.5,-4.4 v -0.2 c 5.8,4.1 12.2,7.8 19,11 35.8,16.6 59.9,43.3 67.7,82.8 3.1,21.7 0.5,42.8 -10.7,62.3 z"
           id="path694"
           inkscape:connector-curvature="0"
           style="fill:#010101" />
        <path
           class="st2"
           d="m 1505.2,2196.6 c -0.7,-11.7 -1,-23.6 -0.5,-35.3 0.7,-13.4 1.9,-27 0,-40.4 -0.5,-4.1 -1,-8.3 -2.2,-12.4 -5.4,-18.3 -17,-29.5 -35.8,-33.1 -11.2,-2.2 -22.2,0.2 -32.9,2.4 -2.4,0.5 -3.9,0.5 -5.6,-1.5 -5.4,-5.8 -11.9,-10 -19.5,-12.7 -2.9,-1 -6.8,-1 -8.5,-2.9 -1.7,-1.9 -0.7,-5.8 -1.2,-9 -0.7,-6.1 -5.1,-9.7 -11.2,-9.5 -8.5,0.5 -17.3,0.7 -25.8,1.5 -10.7,1 -13.9,4.6 -13.4,15.3 0,0.5 0,0.7 0,1.2 0.2,1.7 -0.5,2.7 -1.7,3.4 -6.8,4.4 -12.4,10 -16.6,17 -1,1.5 -1.9,2.4 -3.7,2.2 -3.7,-0.2 -7.1,0.5 -10.2,1.5 -11.9,3.2 -22.9,8 -31.9,16.8 -15.1,14.6 -19,33.1 -17,53.3 1.2,11.2 4.6,22.2 8.8,32.6 6.1,15.3 10.7,30.9 14.4,47 2.9,12.9 5.4,26.1 8.8,39 3.9,14.4 9.5,28.2 18.7,40.2 13.1,16.8 37,23.1 56.7,14.6 1.7,-0.7 2.9,-0.5 4.4,0.5 6.1,4.1 12.9,6.8 20.2,7.8 8.3,1.2 16.1,0 24.1,-1.9 11.4,-2.7 21.4,-7.3 28.7,-17 1,-1.2 1.9,-1.9 3.7,-1.7 4.1,0.7 8.3,0.2 12.4,-0.7 13.4,-3.7 24.3,-10.5 31.4,-22.6 6.3,-10.7 8.3,-22.6 8.5,-35.1 0.6,-20.6 -1.9,-40.6 -3.1,-60.5 z m -139.7,-61.9 c 1.9,-1.2 3.9,-2.2 5.8,-3.4 3.4,-2.2 5.4,-5.4 5.1,-9.5 -0.5,-8.3 -1.2,-16.6 -1.9,-24.8 -0.7,-9.7 -1.7,-19.5 -2.7,-29.2 -0.2,-2.9 1.5,-2.9 3.4,-3.4 2.4,-0.5 2.9,1 3.2,2.9 0.5,9 1,18.3 1.5,27.3 0.2,6.1 0.5,12.2 1,18 0.5,4.6 3.7,8 8.8,9.5 3.7,1 7.1,1.9 10.5,3.4 1,0.5 1.9,0.5 2.7,1.9 -4.6,0.5 -8.8,1.5 -12.9,2.7 -7.8,2.4 -14.9,6.1 -20.9,11.4 -1.7,1.5 -2.7,1.5 -4.4,-0.2 -3.9,-3.7 -3.9,-3.7 0.8,-6.6 z m 77.4,154.6 c -2.9,12.4 -10.7,20 -23.1,22.9 -7.3,1.7 -14.9,3.7 -22.2,0.7 -13.9,-5.1 -22.6,-14.9 -25.8,-29.7 -0.2,-0.7 -0.2,-1.7 -0.5,-2.4 -0.7,-3.7 -3.4,-5.6 -6.6,-5.1 -3.2,0.5 -5.1,3.2 -4.9,6.8 0.7,6.1 2.7,11.7 5.4,17.3 0.2,0.5 0.5,0.7 0.5,1 2.9,5.4 2.2,7.3 -4.1,8 -11,1.5 -20.2,-1.5 -27,-10.7 -5.8,-7.8 -9.5,-16.6 -12.4,-25.6 -4.4,-13.6 -6.8,-27.8 -9.7,-41.9 -3.9,-18.3 -9.5,-36.3 -16.3,-53.8 -3.4,-8.5 -6.1,-17.5 -6.8,-26.8 -1,-12.4 1.2,-24.1 10.7,-33.4 6.8,-6.6 15.1,-9.7 24.1,-11.7 5.4,-1.2 9.3,1.9 10.5,7.5 0.7,3.7 2.7,5.6 5.6,5.4 3.4,-0.2 5.4,-2.4 5.6,-6.1 0.2,-2.9 -0.7,-5.8 -0.2,-9 0.7,-4.6 2.4,-9 5.8,-13.4 1.7,9 1.7,17.3 2.7,25.3 0.2,1.2 -0.5,1.9 -1.5,2.4 -3.2,2.2 -6.6,4.4 -9.3,7.1 -1.2,1.2 -2.7,0.7 -3.9,0.2 -7.3,-3.2 -14.9,-4.9 -22.6,-5.6 -2.9,-0.2 -5.8,-0.2 -8.5,1.2 -4.4,2.2 -6.6,7.1 -5.6,11.9 1,4.6 4.9,8 10,8.5 16.6,1 29.9,8.3 40.4,21.4 1.5,1.9 1.9,3.7 1.2,6.3 -1.9,5.6 -2.2,11.4 -2.4,17.3 0,0.5 0,1 0.2,1.5 0.5,3.4 2.9,5.6 5.8,5.6 3.2,-0.2 5.8,-2.9 5.4,-6.3 -1.2,-15.1 7.8,-23.9 19,-30.9 10,-6.1 21.2,-8.5 33.1,-7.5 7.5,0.7 14.4,3.4 20.2,8 3.9,3.2 6.1,7.3 7.1,12.2 1.7,8.8 1.2,17.5 1.2,26.3 0.2,12.9 0.2,26.1 0.2,39 0,11 0,22.2 0.2,33.1 0.4,7.9 0.2,15.5 -1.5,23 z m 43.6,-32.1 c -0.2,5.8 -1,11.7 -2.7,17.3 -3.4,11 -11.4,16.6 -21.9,19 -4.4,1 -7.1,-1.5 -6.6,-6.1 1.2,-11.7 0.5,-23.4 0.5,-35.1 0,-14.6 0,-29.2 -0.2,-44.1 -0.2,-13.1 0.7,-26.5 -1.2,-39.7 -1.2,-9 -4.6,-17.3 -12.2,-23.1 -1.5,-1.2 -1.2,-2.4 -0.5,-3.7 3.9,-8.3 10,-13.9 18.5,-16.8 5.4,-1.9 8.8,-6.8 8,-12.2 -0.7,-5.1 -5.4,-9 -10.7,-9.5 -2.2,0 -4.1,0.7 -6.3,1.5 -7.5,2.7 -13.9,7.1 -19.2,12.9 -1.5,1.5 -2.2,1.5 -3.9,0.2 -7.1,-5.8 -15.1,-10.7 -23.9,-13.9 -1.7,-0.7 -2.4,-1.5 -2.4,-3.7 0,-4.4 -0.5,-8.8 -0.7,-13.1 0,-1 -0.5,-1.9 0.2,-2.7 1,-0.7 1.9,0 2.9,0.5 4.9,2.4 9,6.1 11.9,11 4.4,7.3 9,8.8 16.8,5.1 10,-4.6 20.2,-6.8 31.2,-4.6 10.2,2.2 15.6,8.8 18,18.5 0.7,2.7 0.7,5.6 1.2,8.3 1.7,11.9 0.7,23.6 0,35.6 -1,14.1 -0.2,28.2 0.7,42.4 0.8,18.7 3.2,37.2 2.5,56 z"
           id="path696"
           inkscape:connector-curvature="0"
           style="fill:#010101" />
        <path
           class="st2"
           d="m 1131.2,2168.3 c 6.8,-5.4 12.9,-5.8 20.5,-1.7 4.1,2.2 8,5.1 11.4,8.3 2.7,2.2 4.4,2.2 6.8,-0.2 10.5,-11 20.9,-21.9 31.2,-33.1 22.4,-24.3 44.6,-49.2 65.5,-74.8 20.2,-24.6 39.7,-50.2 57,-76.9 12.7,-19.7 24.1,-40.2 32.6,-62.1 5.1,-13.1 9,-26.5 10.2,-40.7 0.2,-2.9 -0.2,-3.2 -2.9,-1.9 -13.9,6.3 -26.8,14.4 -39.2,23.1 -14.4,10 -27.5,21.4 -40.2,33.4 -12.4,11.9 -24.1,24.6 -36.3,37 -52.4,54.3 -104.9,108.6 -157.3,163.1 -52.4,-54.3 -104.7,-108.6 -157.3,-163.1 -11.9,-12.4 -23.6,-25.1 -36.3,-37 -12.7,-12.2 -25.8,-23.4 -40.2,-33.4 -12.4,-8.8 -25.3,-16.8 -39.2,-23.1 -2.7,-1.2 -3.2,-1 -2.9,1.9 1.2,14.1 5.1,27.5 10.2,40.7 8.5,21.9 20,42.4 32.6,62.1 17.3,26.8 36.5,52.4 57,76.9 20.9,25.6 43.1,50.4 65.5,74.8 10.2,11.2 20.9,22.2 31.2,33.1 2.4,2.4 4.1,2.7 6.8,0.2 3.7,-3.2 7.3,-6.1 11.4,-8.3 7.8,-4.1 13.6,-3.7 20.5,1.7 0.7,0.5 1.5,1.2 2.2,1.9 1.9,1.7 3.7,3.4 5.6,5.1 -2.9,3.2 -6.1,6.3 -9,9.5 -26.3,27.3 -52.4,54.8 -79.1,81.8 -8.3,8.5 -9.3,17.5 -5.6,27.8 2.7,8 6.3,10.5 14.9,10.7 1.5,0 2.9,0 4.4,0 9.3,-0.2 17.8,-2.2 26.3,-5.6 3.7,-1.5 5.4,-4.1 5.8,-8 1,-8.5 4.6,-15.8 11.2,-21.4 3.2,-2.7 6.3,-5.4 9.7,-8 13.4,-10.5 24.1,-23.4 33.1,-37.7 5.6,-9 11.9,-17.5 20.2,-24.6 l 0.5,-0.5 0.5,0.5 c 8.3,6.8 14.6,15.6 20.2,24.6 9,14.4 19.7,27 33.1,37.7 3.4,2.7 6.6,5.4 9.7,8 6.6,5.6 10.2,12.9 11.2,21.4 0.5,3.9 2.2,6.3 5.8,8 8.5,3.7 17,5.6 26.3,5.6 1.5,0 2.9,0 4.4,0 8.5,-0.2 12.2,-2.7 14.9,-10.7 3.7,-10.2 2.7,-19.2 -5.6,-27.8 -26.5,-27 -52.8,-54.5 -79.1,-81.8 -2.9,-3.2 -6.1,-6.3 -9,-9.5 1.9,-1.7 3.7,-3.4 5.6,-5.1 1.8,-0.7 2.5,-1.4 3.2,-1.9 z"
           id="path698"
           inkscape:connector-curvature="0"
           style="fill:#010101" />
      </g>
    </g>
    <g
       id="g783">
      <g
         id="g715">
        <path
           d="M 78.1,600.5 V 584.8 H 115 V 617 c -7,4.7 -13.3,7.9 -18.7,9.6 -5.4,1.7 -11.8,2.5 -19.3,2.5 -9.2,0 -16.6,-1.5 -22.4,-4.6 -5.8,-3.1 -10.2,-7.6 -13.4,-13.6 -3.2,-6 -4.8,-13 -4.8,-20.8 0,-8.2 1.7,-15.4 5.2,-21.5 3.5,-6.1 8.6,-10.7 15.3,-13.9 5.2,-2.4 12.3,-3.7 21.1,-3.7 8.5,0 14.9,0.8 19.1,2.3 4.2,1.5 7.7,3.9 10.5,7 2.8,3.2 4.9,7.2 6.3,12.1 l -23,4 c -0.9,-2.8 -2.6,-5 -4.8,-6.5 -2.3,-1.5 -5.1,-2.3 -8.7,-2.3 -5.2,0 -9.4,1.8 -12.5,5.3 -3.1,3.6 -4.7,9.2 -4.7,16.9 0,8.2 1.6,14 4.7,17.5 3.1,3.5 7.5,5.3 13.1,5.3 2.7,0 5.2,-0.4 7.6,-1.1 2.4,-0.8 5.2,-2 8.3,-3.9 v -7.1 H 78.1 Z"
           id="path703"
           inkscape:connector-curvature="0" />
        <path
           d="m 129.1,552.3 h 23.8 v 56.9 h 37.2 v 18.6 h -61 z"
           id="path705"
           inkscape:connector-curvature="0" />
        <path
           d="m 248.4,552.3 h 23.8 v 45 c 0,4.5 -0.7,8.7 -2.1,12.6 -1.4,4 -3.6,7.4 -6.7,10.4 -3,3 -6.2,5.1 -9.5,6.3 -4.6,1.7 -10.2,2.5 -16.7,2.5 -3.8,0 -7.8,-0.3 -12.3,-0.8 -4.4,-0.5 -8.1,-1.5 -11.1,-3.1 -3,-1.5 -5.7,-3.7 -8.2,-6.5 -2.5,-2.8 -4.2,-5.7 -5.1,-8.7 -1.5,-4.8 -2.2,-9.1 -2.2,-12.8 v -45 h 23.8 v 46 c 0,4.1 1.2,7.3 3.5,9.6 2.3,2.3 5.6,3.5 9.7,3.5 4.1,0 7.3,-1.1 9.7,-3.4 2.3,-2.3 3.5,-5.5 3.5,-9.7 v -45.9 z"
           id="path707"
           inkscape:connector-curvature="0" />
        <path
           d="M 282.6,552.3 H 355 V 571 h -24.3 v 56.8 H 306.9 V 571 h -24.3 z"
           id="path709"
           inkscape:connector-curvature="0" />
        <path
           d="m 365.7,552.3 h 63.8 v 16.1 h -40 v 12 h 37.1 v 15.4 h -37.1 v 14.9 h 41.1 v 17.1 h -65 v -75.5 z"
           id="path711"
           inkscape:connector-curvature="0" />
        <path
           d="m 443.7,552.3 h 22.2 l 29,41.8 v -41.8 h 22.5 v 75.5 H 495 l -28.9,-41.4 v 41.4 h -22.4 z"
           id="path713"
           inkscape:connector-curvature="0" />
      </g>
      <g
         id="g725">
        <path
           d="m 130.8,678.9 h 58.9 v 16.2 h -35 v 13.2 h 29.9 v 15.2 h -29.9 v 30.8 h -23.9 z"
           id="path717"
           inkscape:connector-curvature="0" />
        <path
           d="m 202.8,754.4 v -75.5 h 39.7 c 7.4,0 13,0.6 16.9,1.9 3.9,1.2 7,3.5 9.4,6.9 2.4,3.3 3.6,7.4 3.6,12.2 0,4.2 -0.9,7.8 -2.7,10.8 -1.8,3 -4.3,5.5 -7.5,7.4 -2,1.2 -4.8,2.2 -8.4,3 2.8,0.9 4.9,1.9 6.2,2.8 0.9,0.6 2.1,1.9 3.8,4 1.7,2 2.8,3.6 3.3,4.7 l 11.5,21.9 H 251.7 L 239,731.3 c -1.6,-3 -3.1,-4.9 -4.3,-5.8 -1.7,-1.2 -3.7,-1.8 -5.8,-1.8 h -2.1 v 30.6 h -24 z m 24,-44.9 h 10 c 1.1,0 3.2,-0.3 6.3,-1 1.6,-0.3 2.9,-1.1 3.9,-2.4 1,-1.3 1.5,-2.7 1.5,-4.4 0,-2.4 -0.8,-4.3 -2.4,-5.6 -1.6,-1.3 -4.5,-2 -8.9,-2 h -10.5 v 15.4 z"
           id="path719"
           inkscape:connector-curvature="0" />
        <path
           d="m 286.3,678.9 h 63.8 V 695 h -40 v 12 h 37.1 v 15.4 h -37.1 v 14.9 h 41.1 v 17.1 h -65 v -75.5 z"
           id="path721"
           inkscape:connector-curvature="0" />
        <path
           d="m 364,678.9 h 63.8 V 695 h -40 v 12 H 425 v 15.4 h -37.1 v 14.9 H 429 v 17.1 h -65 z"
           id="path723"
           inkscape:connector-curvature="0" />
      </g>
      <g
         id="g729">
        <path
           d="M 271.4,14.5 C 202.1,14.5 136.9,41.4 88,90.3 -13,191.5 -13,356 88.1,457.1 137,506 202.1,533 271.4,533 c 69.3,0 134.5,-26.9 183.4,-75.8 101.1,-101.1 101.1,-265.6 0,-366.7 -48.9,-49 -114,-76 -183.4,-76 z m -160.9,98.3 c 42.9,-42.9 100.1,-66.6 161,-66.6 50.3,0 99.5,16.7 139,47.2 L 91.1,412.8 C 21.1,322.2 29,194.2 110.5,112.8 Z m 321.9,321.9 c -42.9,42.9 -100.1,66.6 -161,66.6 -59.9,0 -116.1,-22.9 -158.8,-64.4 L 434.5,115 c 41.6,42.7 64.4,99 64.4,158.8 0.1,60.8 -23.5,118 -66.5,160.9 z"
           id="path727"
           inkscape:connector-curvature="0" />
      </g>
      <g
         id="g733">
        <path
           d="m 259.6,305.9 c 6.3,-1.4 10.5,-7.2 10,-19.2 l -18.4,18.4 c 2.9,1.2 5.9,1.4 8.4,0.8 z"
           id="path731"
           inkscape:connector-curvature="0" />
      </g>
      <g
         id="g737">
        <path
           d="m 228.6,232.4 c 2.8,5.5 6.5,13.3 8.8,27.2 l 11.3,-11.3 c -10.3,-10.1 -20.8,-17.4 -20.1,-15.9 z"
           id="path735"
           inkscape:connector-curvature="0" />
      </g>
      <g
         id="g741">
        <path
           d="m 259.8,368.1 c 8.1,-1.8 12.8,-10.8 8.8,-30.7 -1.8,-9.2 -11.1,-20.4 -20.3,-29.3 l -11.2,11.2 c 1.2,6.7 2,14.8 2.3,24.7 0.6,20.4 12.3,26 20.4,24.1 z"
           id="path739"
           inkscape:connector-curvature="0" />
      </g>
      <g
         id="g745">
        <path
           d="m 239.6,160.6 c 0.6,19.7 12.1,25.1 20.1,23.4 8,-1.8 12.5,-10.5 8.7,-29.7 -3.8,-19.1 -41,-46.5 -39.7,-43.8 4,7.9 9.9,20.8 10.9,50.1 z"
           id="path743"
           inkscape:connector-curvature="0" />
      </g>
      <g
         id="g749">
        <path
           d="m 228.3,170.1 c 4.1,8.3 10.1,21.6 11.1,51.9 0.4,14 6,21 12.1,23.4 L 270,227 c -0.1,-3.4 -0.5,-7.2 -1.4,-11.5 -3.9,-19.8 -41.7,-48.1 -40.3,-45.4 z"
           id="path747"
           inkscape:connector-curvature="0" />
      </g>
      <g
         id="g753">
        <path
           d="m 268.9,398.6 c -4,-20.4 -42.4,-49.7 -41,-46.8 4.2,8.6 10.3,22.3 11.3,53.6 0.6,21.1 12.5,26.9 20.8,25 8.3,-1.9 13,-11.2 8.9,-31.8 z"
           id="path751"
           inkscape:connector-curvature="0" />
      </g>
      <g
         id="g757">
        <path
           d="m 283.1,303.7 c 8.1,1.8 19.6,-3.7 20.3,-23.8 0.4,-13.1 1.8,-22.9 3.6,-30.5 l -33.9,33.9 c -0.8,12.8 3.5,19 10,20.4 z"
           id="path755"
           inkscape:connector-curvature="0" />
      </g>
      <g
         id="g761">
        <path
           d="m 283,367.1 c 8.2,1.9 20,-3.8 20.6,-24.6 1,-30.8 7,-44.4 11.2,-52.8 1.4,-2.8 -36.7,26.1 -40.7,46.1 -4,20.3 0.7,29.4 8.9,31.3 z"
           id="path759"
           inkscape:connector-curvature="0" />
      </g>
      <g
         id="g765">
        <path
           d="m 283.1,179.7 c 8.1,1.8 19.6,-3.7 20.3,-23.8 0.9,-29.8 6.9,-42.9 11,-51.1 1.4,-2.7 -36.1,25.2 -40,44.6 -3.9,19.6 0.7,28.4 8.7,30.3 z"
           id="path763"
           inkscape:connector-curvature="0" />
      </g>
      <g
         id="g769">
        <path
           d="m 274.1,211.7 c -1,4.8 -1.4,9 -1.4,12.6 l 33.7,-33.7 c 2.4,-12.4 5.7,-19.7 8.4,-25 1.3,-2.8 -36.8,26 -40.7,46.1 z"
           id="path767"
           inkscape:connector-curvature="0" />
      </g>
      <g
         id="g773">
        <path
           d="m 273.9,397.9 c -4,20.6 0.7,29.9 8.9,31.8 8.3,1.9 20.1,-3.9 20.8,-25 1,-31.3 7.1,-45.1 11.3,-53.6 1.4,-2.9 -37,26.5 -41,46.8 z"
           id="path771"
           inkscape:connector-curvature="0" />
      </g>
      <g
         id="g777">
        <path
           d="m 288.1,106.9 c 1,-26.4 -16.4,-52.9 -18.4,-50 -1.9,2.9 -20.1,32 -17.9,52.5 2.2,20.6 9.8,27.6 18.7,26.7 8.9,-0.9 16.9,-8.5 17.6,-29.2 z"
           id="path775"
           inkscape:connector-curvature="0" />
      </g>
      <g
         id="g781">
        <rect
           x="266.70001"
           y="435.20001"
           width="9.1999998"
           height="51.599998"
           id="rect779" />
      </g>
    </g>
  </g>
</svg>
