<?xml version="1.0" encoding="UTF-8"?>
<svg width="32mm" height="30mm" version="1.1" viewBox="0 0 113.38582 106.29921" xmlns="http://www.w3.org/2000/svg" xmlns:xlink="http://www.w3.org/1999/xlink">
 <defs>
  <pattern id="j" patternTransform="matrix(.70155 0 0 .84297 .24414 -14.319)" xlink:href="#a"/>
  <pattern id="i" patternTransform="matrix(.8125 0 0 .7 .45395 -14.293)" xlink:href="#a"/>
  <pattern id="a" width="10" height="10" patternTransform="translate(0) scale(10)" patternUnits="userSpaceOnUse">
   <circle cx="2.567" cy=".81" r=".45"/>
   <circle cx="3.048" cy="2.33" r=".45"/>
   <circle cx="4.418" cy="2.415" r=".45"/>
   <circle cx="1.844" cy="3.029" r=".45"/>
   <circle cx="6.08" cy="1.363" r=".45"/>
   <circle cx="5.819" cy="4.413" r=".45"/>
   <circle cx="4.305" cy="4.048" r=".45"/>
   <circle cx="5.541" cy="3.045" r=".45"/>
   <circle cx="4.785" cy="5.527" r=".45"/>
   <circle cx="2.667" cy="5.184" r=".45"/>
   <circle cx="7.965" cy="1.448" r=".45"/>
   <circle cx="7.047" cy="5.049" r=".45"/>
   <circle cx="4.34" cy=".895" r=".45"/>
   <circle cx="7.125" cy=".34" r=".45"/>
   <circle cx="9.553" cy="1.049" r=".45"/>
   <circle cx="7.006" cy="2.689" r=".45"/>
   <circle cx="8.909" cy="2.689" r=".45"/>
   <circle cx="9.315" cy="4.407" r=".45"/>
   <circle cx="7.82" cy="3.87" r=".45"/>
   <circle cx="8.27" cy="5.948" r=".45"/>
   <circle cx="7.973" cy="7.428" r=".45"/>
   <circle cx="9.342" cy="8.072" r=".45"/>
   <circle cx="8.206" cy="9.315" r=".45"/>
   <circle cx="9.682" cy="9.475" r=".45"/>
   <circle cx="9.688" cy="6.186" r=".45"/>
   <circle cx="3.379" cy="6.296" r=".45"/>
   <circle cx="2.871" cy="8.204" r=".45"/>
   <circle cx="4.59" cy="8.719" r=".45"/>
   <circle cx="3.181" cy="9.671" r=".45"/>
   <circle cx="5.734" cy="7.315" r=".45"/>
   <circle cx="6.707" cy="6.513" r=".45"/>
   <circle cx="5.73" cy="9.67" r=".45"/>
   <circle cx="6.535" cy="8.373" r=".45"/>
   <circle cx="4.37" cy="7.154" r=".45"/>
   <circle cx=".622" cy="7.25" r=".45"/>
   <circle cx=".831" cy="5.679" r=".45"/>
   <circle cx="1.257" cy="8.519" r=".45"/>
   <circle cx="1.989" cy="6.877" r=".45"/>
   <circle cx=".374" cy="3.181" r=".45"/>
   <circle cx="1.166" cy="1.664" r=".45"/>
   <circle cx="1.151" cy=".093" r=".45"/>
   <circle cx="1.151" cy="10.093" r=".45"/>
   <circle cx="1.302" cy="4.451" r=".45"/>
   <circle cx="3.047" cy="3.763" r=".45"/>
  </pattern>
  <radialGradient id="k" cx="52.943" cy="133.26" r="41.15" gradientTransform="matrix(-1.3356 .01017 -.0028055 -.36845 114.16 112.34)" gradientUnits="userSpaceOnUse">
   <stop stop-color="#e76262" offset="0"/>
   <stop stop-color="#ba4545" offset=".34655"/>
   <stop stop-color="#9c0101" offset=".60168"/>
   <stop stop-color="#8f0202" offset=".75476"/>
   <stop stop-color="#6f0606" offset="1"/>
  </radialGradient>
  <radialGradient id="l" cx="42.49" cy="19.99" r="38.978" gradientTransform="matrix(1.3552 -.053853 .03167 .79696 -15.73 18.891)" gradientUnits="userSpaceOnUse">
   <stop stop-color="#000c0e" offset="0"/>
   <stop stop-color="#000c0e" offset=".098449"/>
   <stop stop-color="#000c0e" stop-opacity=".5058" offset=".4321"/>
   <stop stop-color="#000c0e" offset=".87203"/>
   <stop stop-color="#000c0e" offset="1"/>
  </radialGradient>
  <radialGradient id="m" cx="42.364" cy="84.512" r="30.05" gradientTransform="matrix(2.5764 -.07873 .027479 .89924 -69.104 -7.2776)" gradientUnits="userSpaceOnUse">
   <stop stop-color="#848484" offset="0"/>
   <stop stop-color="#1b1b1b" offset=".42179"/>
   <stop stop-color="#1b1b1b" offset="1"/>
  </radialGradient>
  <linearGradient id="h" x1="74.524" x2="84.021" y1="28.651" y2="7.9437" gradientUnits="userSpaceOnUse">
   <stop stop-color="#272e3b" offset="0"/>
   <stop stop-color="#272e3b" offset=".21335"/>
   <stop stop-color="#5b667b" offset=".47885"/>
   <stop stop-color="#272e3b" offset=".77524"/>
   <stop stop-color="#272e3b" offset="1"/>
  </linearGradient>
 </defs>
 <g transform="translate(3.2568 11.182)" fill-rule="evenodd">
  <path d="m101 3.5991c-1.7747-0.07809-3.6894 0.63019-5.3574 1.2559-2.8615 1.0733-5.2233 3.2052-7.5996 5.127-3.4672 2.804-6.3303 6.2853-9.6348 9.2793-2.3232 2.1049-7.1602 6.0996-7.1602 6.0996l-5.7441 1.502s5.1972 1.4566 7.5996 2.6523c2.1873 1.0887 6.0996 4.0664 6.0996 4.0664l2.0332-3.0938s1.2302-5.7982 2.916-8.1328c3.1329-4.3388 8.2241-6.8762 12.641-9.8984 2.7147-1.8577 4.3817-2.8569 7.4238-4.5957 1.822-1.0414-0.18506-3.3284-1.502-3.8906-0.54614-0.23318-1.1233-0.34506-1.7148-0.37109zm-1.291 2.4707c0.36847 0.0232 0.75105 0.13537 1.1484 0.33203 0.53946 0.56103 0.57949 1.1261-1.5898 1.9883-1.5496 0.58084-3.3366 1.2864-3.7353 0.4861-0.76897-1.0906 1.805-2.2684 3.1161-2.6072 0.33846-0.15688 0.69208-0.22242 1.0605-0.19922z" fill="url(#h)" stroke="#f60" stroke-width=".29055"/>
  <path d="m79.296 33.669 2.7842 2.8726c0.61858-1.696 1.5314-3.0811 1.2374-5.3475-0.49239-0.16413 3.792-8.8524 9.104-11.888 3.8653-2.209 11.358-7.7782 11.358-7.7782 1.4959-1.6299 2.1542-3.0835 1.4142-4.2426-0.38409-0.24442-10.65 6.2662-15.044 9.9546-3.3927 2.8475-7.4375 6.604-7.2478 6.4524l-1.9263 6.9275z" fill="#2f2f2f" stroke="#cf0" stroke-width=".29055"/>
  <path d="m100.45 3.4465c-1.2813-0.04484-2.6373 0.27127-3.8262 0.6582-4.2976 1.3987-7.9536 4.5301-11.125 7.75-4.681 4.7525-12.126 12.31-14.25 13.125l-5.25 2s7.8651 3.3953 8.875 3.875c0.95238 0.45238 6.8869 5.7619 7 5.875l2.625-8.625s2.6545-4.5421 4.5-6.375c4.1416-4.1132 9.1805-6.7111 14.375-10 1.1808-0.74761 1.9568-2.3549 1.875-3.75-0.0933-1.5921-1.2138-3.257-2.625-4-0.66379-0.34947-1.4051-0.5063-2.1738-0.5332zm-1.2891 2.6191c0.47655-0.02357 0.96604 0.04549 1.5254 0.60156 0.95678 0.74764-0.63032 1.2275-1.8125 1.75-1.7708 0.75376-2.9006 0.92475-3.375 0.5 0.0929-1.2607 1.3305-2.1398 3.1875-2.8125 0.15794-0.01423 0.31576-0.0312 0.47461-0.03906z" fill="url(#j)" opacity=".301" stroke="#fc0" stroke-width=".29055"/>
  <path d="m2.3101 49.668 0.088388 5.6569c1.2656 4.3256 3.58 8.6989 9.9879 13.258l0.26516 1.591c2.3981 3.3216 12.154 10.053 32.173 9.8995 17.133-0.13174 27.02-5.572 31.289-12.728l-0.08839-1.2374s4.1382-5.6565 5.6872-8.8754c1.0651-2.2134 2.8714-5.4002 2.2678-7.2112 1.0593-2.7419 1.7978-7.2093-0.35355-11.049-3.091-5.516-9.4137-8.8937-15.291-11.225-8.9949-3.5684-19.151-4.0369-28.815-3.5355-8.5436 0.44328-17.438 1.7704-25.014 5.7452-4.949 2.5967-10.175 6.1759-12.374 11.314-1.1019 2.5736 0.17678 8.3969 0.17678 8.3969z" fill="#fff" stroke="#0ff" stroke-width=".29055"/>
  <path d="m3.6592 46.229c-0.5-14.289 23.712-19.763 38.01-19.879 11.853-0.09605 38.903 4.4876 40.311 17.671 1.5925 14.91-23.995 19.841-38.378 20.432-12.781 0.52432-39.457-4.3299-39.943-18.223z" fill="url(#l)" stroke="#c87137" stroke-width=".29055"/>
  <path d="m13.663 57.762s6.2684-13.532 28.895-13.666c25.019-0.14868 30.847 12.495 30.847 12.495s-10.741 8.3732-28.374 8.7204c-21.882 0.43084-31.368-7.549-31.368-7.549z" fill="url(#m)" stroke="#6f0" stroke-width=".29055"/>
  <path d="m43.964 43.607c-8.9523 0.0094-18.117 1.717-25.242 7.4824-2.164 1.7512-3.9545 4.2138-5.4689 6.53 0.47996 0.44152 1.5869-1.1761 2.1993-2.0163 4.5874-6.2931 12.397-9.2554 19.857-10.321 7.8859-1.1268 16.077-0.90738 23.77 1.2551 5.327 1.4974 11.579 5.5401 14.054 10.25l0.62289-0.62088c-3.3912-5.1918-9.4466-8.8615-15.205-10.41-4.7745-1.2844-9.6555-2.1536-14.588-2.1484z" color="#000000" color-rendering="auto" fill="#9e9c9c" image-rendering="auto" shape-rendering="auto" solid-color="#000000" style="block-progression:tb;isolation:auto;mix-blend-mode:normal;text-decoration-color:#000000;text-decoration-line:none;text-decoration-style:solid;text-indent:0;text-transform:none;white-space:normal"/>
  <path transform="translate(-3.2568 -11.182)" d="m48.736 35.289c-2.2815-0.03134-4.4397 0.05058-6.4004 0.23633-14.841 1.4059-39.766 5.9233-37.182 24.48 2.0953 15.045 34.042 18.032 41.783 17.947 16.192-0.1762 43.167-6.6447 41.322-22.732-1.6031-13.978-23.553-19.712-39.523-19.932zm-3.0879 2.6099c11.853-0.09605 38.166 3.3107 39.574 16.494 1.5925 14.91-23.258 20.578-37.641 21.168-12.781 0.52432-39.457-4.3298-39.943-18.223-0.5-14.289 23.712-19.323 38.01-19.439z" fill="#9eafaf" stroke="#55d400" stroke-width=".29055"/>
  <path d="m2.079 50.256c-0.13199 4.9497 0.76356 7.5327 2.375 10 2.7083 4.1467 5.4167 5.8633 8.125 8.125l-0.125 1.625s7.9615 10.001 30.75 10.125c25.617 0.13883 32.875-12.625 32.875-12.625l-0.25-1.125c6.1208-6.8938 7.3679-11.351 8.25-15.625 0 0-6.7705 14.858-40.75 16.125-25.806 0.96194-40.5-12.625-41.25-16.625z" fill="url(#k)" stroke="#f60" stroke-width=".29055"/>
  <path d="m2.079 50.256c-0.13199 4.9497 0.76357 7.5327 2.375 10 2.7083 4.1467 5.4167 5.8633 8.125 8.125l-0.125 1.625s7.9615 10.001 30.75 10.125c25.617 0.13884 32.875-12.625 32.875-12.625l-0.25-1.125c6.1208-6.8937 7.3679-11.351 8.25-15.625 0 0-6.7705 14.858-40.75 16.125-25.806 0.96194-40.5-12.625-41.25-16.625z" fill="url(#i)" opacity=".306" stroke="#f60" stroke-width=".29055"/>
  <path d="m44.391 26.074c-6.9646-0.03612-17.092 1.2093-25.549 4.332-4.2282 1.5614-8.0433 3.59-10.826 6.2266-2.7829 2.6366-4.5254 5.9418-4.4316 9.8398 0.079116 3.2883 1.7708 6.1392 4.3652 8.4805s6.1035 4.2266 10.021 5.7246c7.836 2.996 17.317 4.4339 24.455 4.3906 7.4549-0.04517 17.351-1.6694 25.498-4.8984 4.0737-1.6145 7.7132-3.629 10.387-6.1035 2.6735-2.4745 4.3926-5.4657 4.4219-8.8887 0.03131-3.6583-1.5619-6.7518-4.1055-9.2168-2.5435-2.465-6.0246-4.351-9.918-5.8008-7.7868-2.8996-17.249-4.0493-24.318-4.0859zm23.721 5.1572c3.749 1.396 7.4722 3.735 9.7662 5.9581 2.2939 2.2231 3.613 4.8111 3.5859 7.9746-0.02452 2.8648-1.4303 5.3876-3.873 7.6484-2.4427 2.2609-6.3541 4.9119-10.297 6.4747-7.8867 3.1257-17.664 4.7336-24.877 4.7773-6.8967 0.04178-16.262-1.3815-23.836-4.2773-3.787-1.4479-7.7436-3.9725-10.105-6.1036-2.3615-2.1311-3.735-4.52-3.8008-7.252-0.081207-3.3752 1.3668-6.1581 3.8984-8.5566s6.7728-4.884 10.861-6.3936c8.1762-3.0192 18.198-4.2616 25.018-4.2262 6.8196 0.03536 16.162 1.1841 23.66 3.9762z" color="#000000" color-rendering="auto" fill="#727777" image-rendering="auto" shape-rendering="auto" solid-color="#000000" style="block-progression:tb;isolation:auto;mix-blend-mode:normal;text-decoration-color:#000000;text-decoration-line:none;text-decoration-style:solid;text-indent:0;text-transform:none;white-space:normal"/>
  <path d="m1.4598 49.611c-0.045479 6.2546 1.4062 12.698 9.2637 18.453 0.58146 0.61303 0.77928 0.49564 1.207 1.9004 1.6339 2.6129 4.5024 4.555 6.6953 5.7227 5.0275 2.677 13.548 5.2472 27.607 5.1328 11.433-0.09301 19.065-3.3161 23.824-6.5508 4.7594-3.2347 6.6953-6.5508 6.6953-6.5508 0.23289-0.38435 0.11914-0.88238 0.11914-1.3203 2.1992-2.4145 3.9329-5.1749 5.5586-8.6875 1.6862-3.6435 2.025-5.0144 2.4824-8.3242l-1.2695 0.87695c-0.54771 2.6044-0.77634 3.5133-2.4785 6.9531-1.7031 3.4417-3.4046 5.9003-5.8145 8.5039l-0.25 1.2676c-0.13816 0.23307-1.7439 2.8952-6.0391 5.8145-4.4859 3.0488-11.734 6.1557-22.842 6.2461-13.837 0.11258-22.027-2.4576-26.764-4.9258-2.2738-1.1849-4.2862-2.8521-5.832-4.6738-0.51697-1.6978-1.2737-2.2359-1.625-2.6113-6.6307-5.8916-9.1198-10.145-9.2988-17.152z" color="#000000" color-rendering="auto" fill="#3e0000" image-rendering="auto" shape-rendering="auto" solid-color="#000000" style="block-progression:tb;isolation:auto;mix-blend-mode:normal;text-decoration-color:#000000;text-decoration-line:none;text-decoration-style:solid;text-indent:0;text-transform:none;white-space:normal"/>
  <path d="m99.897 3.1206c-1.1829 0.03815-2.3463 0.25888-3.4004 0.55274-3.4321 0.95679-6.415 3.6665-9.0039 5.5488-3.5923 2.6119-6.2102 6.0252-9.2598 8.8652-2.2702 2.1143-4.1613 4.4985-6.5566 5.9238-0.70803 0.42131-2.1806 0.76682-3.5566 1.127-0.68803 0.18007-1.3577 0.37259-1.9531 0.64648s-1.1795 0.6382-1.4727 1.3223l1.627 0.69726c0.01387-0.03236 0.17578-0.2215 0.58594-0.41016s1.0062-0.36935 1.6621-0.54102c1.3119-0.34333 2.8419-0.62307 4.0137-1.3203 2.7739-1.6506 4.7258-4.1632 6.8574-6.1484 3.1982-2.9785 5.8257-6.4096 9.1387-8.8184 2.6892-1.9553 5.5406-4.3899 8.3945-5.1855 1.9352-0.53948 4.1213-0.7751 5.75-0.11914 0.81918 0.32992 1.4709 0.97295 1.4473 1.7613-3.5047 2.3536-7.5204 4.3891-10.529 6.6641-3.8722 2.9276-8.338 5.4913-11.109 9.8559-1.5724 2.4764-1.5406 5.4271-2.5586 7.4551-0.41038 0.81753-1.6348 2.7754-1.6348 2.7754l1.0581 0.63595s1.2406-1.62 1.7629-2.6606c1.2899-2.5697 1.1529-5.5207 2.3381-7.3872 2.4882-3.9188 6.7839-6.7046 10.73-9.7063 2.9098-2.2135 7.0075-4.7971 9.8965-6.5772-0.2278 0.70282-0.53263 2.0727-0.99046 2.3927-0.11103 0.0776-7.5916 4.9677-11.582 8.2168-4.1004 3.3387-7.5636 7.4231-8.7058 12.561-0.38622 1.7373-0.83963 3.3081-1.8157 4.6169l1.3184 1.4766c1.1908-1.5553 1.7305-3.6237 1.8457-5.7637 0.10138-1.8838 2.6691-7.921 8.3227-11.706 3.8845-2.6003 10.831-7.138 11.585-7.9194 0.77667-0.80402 1.6617-1.7025 1.8613-2.6758 0.28033-1.3665 0.21752-2.4675-0.2461-3.5723-0.35948-0.85664-1.1625-1.6216-2.3106-2.0781-1.2205-0.4854-2.334-0.54378-3.5098-0.50586z" color="#000000" color-rendering="auto" image-rendering="auto" shape-rendering="auto" solid-color="#000000" style="block-progression:tb;isolation:auto;mix-blend-mode:normal;text-decoration-color:#000000;text-decoration-line:none;text-decoration-style:solid;text-indent:0;text-transform:none;white-space:normal"/>
  <path d="m97.632 6.144c-0.65081 0.24673-1.2546 0.6171-1.7963 1.0526-0.38759 0.31162-0.77244 0.765-0.70776 1.3006 0.05879 0.48675 0.46738 0.90379 0.95909 0.93595 0.84364 0.05518 1.6707-0.20388 2.4546-0.48596 0.89749-0.32298 1.7888-0.70367 2.5726-1.2527 0.33964-0.23793 0.51681-0.71166 0.34704-1.1084-0.20412-0.47698-0.67443-0.82898-1.4623-0.883-0.78785-0.05402-1.6036 0.15153-2.367 0.44095zm2.1887 1.1947c0.46804-0.04529 1.2914-0.13085 0.71185 0.21434-0.96915 0.57719-2.3344 1.0678-3.4403 1.3061-0.26642 0.05741-0.87061 0.12364-1.1878 0.03197 0.18375-0.37751 0.69786-0.62747 0.96734-0.7682 1.3103-0.68427 1.5839-0.65208 2.949-0.78418z" color="#000000" color-rendering="auto" image-rendering="auto" shape-rendering="auto" solid-color="#000000" style="block-progression:tb;isolation:auto;mix-blend-mode:normal;text-decoration-color:#000000;text-decoration-line:none;text-decoration-style:solid;text-indent:0;text-transform:none;white-space:normal"/>
  <path d="m65.586 72.067c-4.2758 2.0427-10.998 3.8492-20.944 3.8989-9.3481 0.04671-15.785-1.1061-19.871-2.4802s-6.1084-2.5169-6.1084-2.5169c-0.13258 0.53033 1.5672 1.8904 5.7705 3.3037s10.758 2.8031 20.213 2.7559c10.091-0.05042 17.026-2.1571 21.443-4.2676 4.4176-2.1104 6.2683-4.2224 5.959-4.6201 0 0-2.1863 1.8836-6.4622 3.9263z" color="#000000" color-rendering="auto" fill="#410000" image-rendering="auto" shape-rendering="auto" solid-color="#000000" style="block-progression:tb;isolation:auto;mix-blend-mode:normal;text-decoration-color:#000000;text-decoration-line:none;text-decoration-style:solid;text-indent:0;text-transform:none;white-space:normal"/>
  <path d="m44.048 23.468c-7.9777-0.0099-18.612 1.5345-27.379 4.9727-4.3833 1.7191-8.3043 3.9098-11.182 6.6758s-4.7098 6.159-4.7461 10.104c-0.038292 4.1621 1.6985 7.7319 4.4961 10.637 2.7976 2.9048 6.644 5.1871 10.959 6.9609 8.63 3.5476 19.152 5.0645 27.102 5.0078 7.9776-0.05687 18.505-1.7291 27.107-5.4121 4.3014-1.8415 8.1275-4.1866 10.895-7.1406 2.767-2.954 4.4613-6.5597 4.375-10.734-0.07912-3.8267-1.6994-7.1202-4.2949-9.8105s-6.1528-4.8144-10.219-6.4727c-8.1319-3.3165-18.322-4.7762-27.113-4.7871zm-2e-3 1.2412c8.9507-0.02323 18.057 1.5325 26.445 4.6562 3.6914 1.3747 7.7885 4.1517 10.144 6.5928s3.7295 5.2617 3.7988 8.6172c0.07612 3.6818-1.3689 6.7879-3.8965 9.4863s-6.6802 4.9465-10.829 6.7227c-8.2979 3.5524-18.684 5.2144-26.422 5.2695-7.7105 0.05497-18.093-1.4535-26.416-4.875-4.1616-1.7107-8.0685-3.8989-10.623-6.5508-2.5541-2.6519-4.0337-5.7245-4-9.3926 0.031398-3.4128 1.5708-6.3113 4.2031-8.8418 2.6324-2.5305 6.6255-5.1724 10.865-6.835 8.4786-3.3252 17.675-4.8261 26.73-4.8496z" color="#000000" color-rendering="auto" fill="#001f22" image-rendering="auto" shape-rendering="auto" solid-color="#000000" style="block-progression:tb;isolation:auto;mix-blend-mode:normal;text-decoration-color:#000000;text-decoration-line:none;text-decoration-style:solid;text-indent:0;text-transform:none;white-space:normal"/>
 </g>
</svg>
